<svg xmlns="http://www.w3.org/2000/svg" viewBox="130 128 156.3 156.3"><path fill="#FF6A13" d="M234.2 251.5c-2 0-3.8-1.3-4.3-3.3l-20.4-71.7l-20.4 71.7c-0.7 2.4-3.2 3.8-5.6 3.1c-1.5-0.4-2.7-1.6-3.1-3.2 l-17.3-65.9c-0.6-2.4 0.8-4.9 3.2-5.5c2.4-0.6 4.9 0.8 5.5 3.2c0 0 0 0 0 0l13.1 50l20.2-71.1c0.7-2.4 3.2-3.8 5.6-3.1c1.5 0.4 2.7 1.6 3.1 3.1l20.2 71.1l13.1-50c0.6-2.4 3.1-3.8 5.5-3.2c2.4 0.6 3.8 3.1 3.2 5.5c0 0 0 0 0 0l-17.3 65.9C238.1 250.1 236.3 251.5 234.2 251.5L234.2 251.5zM209.5 283.4c-42.3 0-76.6-34.3-76.6-76.6s34.3-76.6 76.6-76.6s76.6 34.3 76.6 76.6C286 249.1 251.8 283.3 209.5 283.4zM209.5 139.3c-37.3 0-67.6 30.2-67.6 67.6s30.2 67.6 67.6 67.6s67.6-30.2 67.6-67.6C277 169.5 246.8 139.3 209.5 139.3z"/></svg>