<svg xmlns="http://www.w3.org/2000/svg" viewBox="286.3 128 971.9 156.3"><path fill="#F5F5F6" d="M334.2 206.6c0-25.7 19.4-43.8 49.6-43.8c3.3 0 5.7 0.1 8.1 0.3c2.4 0.3 5.3 0.8 7.3 1.2c-0.2 5.1-0.3 9.4-0.5 16.4h-0.8c-1.3-1.1-2.8-1.9-4.5-2.3c-3.1-0.8-6.3-1.1-9.5-1.1c-19.2 0-31.9 11.4-31.9 29.3s12.2 29.7 30.2 29.7c3.6 0.1 7.1-0.3 10.6-1.1c1.9-0.4 3.6-1.2 5.1-2.4h0.7c0.1 4 0.3 12.2 0.4 15.8c-2.4 0.7-4.8 1.2-7.3 1.6c-3.6 0.5-7.2 0.8-10.9 0.8c-26.2 0-46.6-16.8-46.6-44.3L334.2 206.6zM432.7 232.7c-4.6 11.2-6.4 15.7-5.3 16.4v0.7h-19.4v-0.7c1.2-0.7 3.3-5.2 17.3-37.4l21.1-49.3h2.4l20.8 49.4c13.6 32 15.6 36.6 16.8 37.3v0.7h-20.8v-0.7c1.1-0.7-0.7-5.3-5.1-16.4L432.7 232.7zM455.8 219.6l-0.1-0.3c-6.3-16.4-7.8-21-8.7-24.2h-0.1c-1 3.2-2.6 7.8-9.1 24.2l-0.1 0.3H455.8zM539.4 227.3c0 13.3-10.9 23.7-28.1 23.7c-5.7 0-12.3-1.1-16.2-2.8c0.2-5.6 0.3-8.4 0.5-16.2h0.7c1.2 1.4 2.6 2.4 4.3 3.1c3 1.1 6.2 1.6 9.4 1.5c6.5 0 11.8-3.5 11.8-9.9c0-3.8-2.1-7-6.3-10.5c-3.4-2.8-6.4-5.3-9.2-7.9c-6.2-5.6-10.3-11.9-10.3-20.8c0-12.6 9.1-24.2 27.9-24.2c4 0 8 0.5 11.9 1.5c-0.2 5.6-0.3 8.6-0.5 16h-0.7c-1.1-1.1-2.4-1.9-3.9-2.4c-1.8-0.5-3.7-0.8-5.6-0.8c-6.9 0-12 3.6-12 9.6c0 3.5 1.5 5.9 4 8.6c2.5 2.5 6.2 5.3 10.8 9.4c7 6.2 11.6 12.4 11.6 22L539.4 227.3zM570 211.8c0 32 0 36 1.5 37.3v0.7H552v-0.8c1.5-1.2 1.5-5.2 1.5-37.1v-12.2c0-29.8 0-33.9-1.4-35v-0.8h19.4v0.8c-1.4 1.1-1.4 5.1-1.4 35L570 211.8zM660.7 250.8h-2.1c-19.2-18.9-30.8-30.4-38.3-37.8c-5.3-5.3-9.1-9.1-15.4-16.2h-0.2c0.2 4.4 0.2 7.8 0.2 16.7c0 30.2 0 34.9 1.4 35.5v0.7h-18v-0.7c1.4-0.7 1.4-5.3 1.4-37.3V163h2.2c19.8 19.7 31.5 31.4 38.9 38.9c4.8 5 9.2 9.4 14.5 15.4h0.3c-0.1-5.2-0.1-8.8-0.1-19c0-28.5 0-33.1-1.5-33.8v-0.7H662v0.7c-1.3 0.7-1.3 5.3-1.3 35.1L660.7 250.8zM765 206.4c0 25.1-19 44.8-45 44.8c-25.1 0-44.7-19.5-44.7-44c0-25.3 19.7-44.3 45.8-44.3c25.3 0 43.9 18.6 43.9 43.5V206.4zM747.9 206.7c0-16.2-11.7-29-27.4-29c-16.3 0-27.9 12.6-27.9 29.3c0 16.3 11.7 29.2 27.9 29.2c16.3 0 27.4-12.9 27.4-29.3V206.7zM873.5 251.4h-2.3C850.6 207 848 200.4 846 194.8h-0.1c-2 5.7-4.7 12.4-25.7 56.5h-2.3L802.2 198c-8.4-28.2-9.5-32.6-10.8-33.4v-0.7h19.8v0.7c-1.4 0.9 0 5.2 5.9 26.5c2.8 10 4.2 15.5 5.7 22h0.3c2.2-5.9 4.6-11.7 9.2-22.1c4.8-10.1 9.6-19.2 12.9-26.2h2.2c3.3 6.8 7.6 15.6 13.2 26.5c4.1 9.6 6.7 15.7 8.9 21.3h0.2c1.5-6.6 2.9-12.1 5.3-20.9c5.9-22.1 7.5-26.4 6.1-27.2v-0.7h18.4v0.7c-1.3 1-2.5 5.2-10.7 33.4L873.5 251.4zM927.6 211.8c0 32 0 36 1.5 37.3v0.7h-19.6v-0.8c1.5-1.2 1.5-5.2 1.5-37.1v-12.2c0-29.8 0-33.9-1.4-35v-0.8H929v0.8c-1.4 1.1-1.4 5.1-1.4 35V211.8zM1018.3 250.8h-2.1c-19.3-18.9-30.8-30.4-38.3-37.8c-5.3-5.3-9.1-9.1-15.4-16.2h-0.2c0.2 4.4 0.2 7.8 0.2 16.7c0 30.2 0 34.9 1.4 35.5v0.7h-18v-0.7c1.4-0.7 1.4-5.3 1.4-37.3V163h2.2c19.8 19.7 31.5 31.4 38.9 38.9c4.8 5 9.2 9.4 14.5 15.4h0.3c-0.1-5.2-0.1-8.8-0.1-19c0-28.5 0-33.1-1.5-33.8v-0.7h17.9v0.7c-1.3 0.7-1.3 5.3-1.3 35.1V250.8zM1109 250.8h-2.1c-19.3-18.9-30.8-30.4-38.3-37.8c-5.3-5.3-9.1-9.1-15.4-16.2h-0.2c0.2 4.4 0.2 7.8 0.2 16.7c0 30.2 0 34.9 1.4 35.5v0.7h-18v-0.7c1.4-0.7 1.4-5.3 1.4-37.3V163h2.2c19.8 19.7 31.5 31.4 38.9 38.9c4.8 5 9.2 9.4 14.5 15.4h0.3c-0.1-5.2-0.1-8.8-0.1-19c0-28.5 0-33.1-1.5-33.8v-0.7h17.9v0.7c-1.3 0.7-1.3 5.3-1.3 35.1V250.8zM1128.9 199.7c0-29.8 0-34.4-1.3-35.1v-0.7h45c0 4.9-0.1 8.8-0.1 15.3h-0.7c-0.8-1.2-5.7-1.5-12.4-1.5h-14.1v21.7h14c6.8 0 8.9-0.1 9.7-0.9h0.5V214h-0.5c-0.8-0.9-3-1-9.5-1h-14.2v20.8c0 1 0.1 1.5 0.8 2c5.7 0.1 13.3 0.1 18.4 0c4.6 0 7.6-0.2 8.5-1.3h0.7c-0.1 6.6-0.1 10.2-0.1 15.3h-46v-0.7c1.4-0.7 1.4-5.3 1.4-37.3V199.7zM1189.4 199.7c0-29.8 0-34.4-1.3-34.9v-0.7c1.9-0.1 5-0.2 8-0.3c2.6-0.1 7.5-0.2 10.3-0.2c5.6-0.2 11.1 0.5 16.5 2.1c6.8 2.2 16.2 8.6 16.2 23.2c0 10.2-5.3 16.8-9.2 19.7c-1.9 1.6-4.1 2.9-6.4 3.9v0.2c1.5 2.2 3.4 4.8 19.9 27.7c2.6 3.6 6.1 8 7.2 8.7v0.7h-16.5c-1.2 0-2.4-0.1-3.5-0.4c-6.4-9.6-13.9-20.8-22.5-33.5h-3v4.4c0 23.6 0.1 28.3 1.3 28.9v0.7h-18.3v-0.7c1.3-0.7 1.3-5.3 1.3-37.3V199.7zM1222.8 189.9c0-7.9-5.2-12.5-13.4-12.5c-1.5 0-2.9 0.1-4.4 0.2v26.2c1.1 0.1 2.1 0.1 3.2 0.1c2.9 0 5.8-0.8 8.4-2.2c3.1-1.8 6.3-5.5 6.3-11.7V189.9z"/></svg>