<?xml version="1.0" encoding="utf-8"?>
<svg version="1.1" xmlns="http://www.w3.org/2000/svg" viewBox="0 0 127 32">
<path fill="#fff" d="M11.957 31.876c-2.617 0-4.936-1.017-6.623-2.778v2.319h-5.358v-31.392h5.606v11.733c1.65-1.6 3.882-2.53 6.375-2.53 5.693 0 10.332 4.899 10.332 11.349 0 6.412-4.639 11.299-10.332 11.299zM11.15 14.375c-3.076 0-5.569 2.778-5.569 6.239 0 3.374 2.493 6.115 5.569 6.115s5.569-2.654 5.569-6.115c0-3.547-2.481-6.239-5.569-6.239z"></path>
<path fill="#fff" d="M30.226 22.722c0.719 2.654 2.828 4.304 5.445 4.304 1.86 0 3.671-0.806 4.602-2.53h5.953c-1.265 4.428-5.11 7.429-10.505 7.429-6.115 0-11.138-5.060-11.138-11.349s5.023-11.436 11.138-11.436c6.412 0 11.733 4.974 10.927 13.581h-16.422zM41.116 18.171c-0.67-2.53-2.791-4.13-5.445-4.13-2.53 0-4.552 1.6-5.358 4.13h10.803z"></path>
<path fill="#fff" d="M61.023 31.74c-6.375 0.67-9.749-3.163-9.749-9.116v-7.64h-2.617v-4.924h2.617v-5.532h5.569v5.532h3.919v4.936h-3.919v7.678c0 3.039 1.389 4.18 4.18 4.006v5.060z"></path>
<path fill="#fff" d="M73.55 31.926c-5.532 0-9.625-2.915-10.295-7.591h5.656c0.757 1.86 2.989 2.53 4.639 2.53 2.233 0 3.919-0.67 3.919-1.935 0-1.228-0.757-1.724-4.552-2.319-3.882-0.595-9.067-1.65-9.067-6.499 0-3.423 3.002-6.958 9.278-6.958 4.974 0 8.695 2.704 9.414 6.797h-5.78c-0.335-1.017-1.563-1.811-3.634-1.811-2.567 0-3.634 0.93-3.634 1.724 0 1.141 1.6 1.513 4.304 1.935 5.395 0.881 9.278 2.071 9.278 6.797 0 4.291-3.957 7.33-9.526 7.33z"></path>
<path fill="#fff" d="M97.86 31.913h-5.916v-22.264h-4.837v-3.944c2.778-0.050 5.693-1.749 6.003-5.705h4.75v31.913z"></path>
<path fill="#fff" d="M126.983 16.012c0 11.696-5.966 15.864-11.522 15.864-5.606 0-11.56-4.167-11.56-15.864s5.966-15.864 11.56-15.864c5.557-0.012 11.522 4.155 11.522 15.864zM121.116 16.012c0-3.138-0.583-10.443-5.643-10.443-5.11 0-5.693 7.305-5.693 10.443 0 3.088 0.583 10.394 5.693 10.394 5.060 0 5.643-7.305 5.643-10.394z"></path>
</svg>