<svg xmlns="http://www.w3.org/2000/svg" viewBox="0 0 1012.9 297.93"><defs><style>.cls-1{opacity:0;}.cls-2{fill:#513d38;}.cls-3{fill:#fff;}.cls-4{fill:#d61a3d;}</style></defs><title>CADK Main Logo</title><g id="Layer_2" data-name="Layer 2"><g id="Layer_1-2" data-name="Layer 1"><g class="cls-1"><rect class="cls-2" width="1012.9" height="297.93"/></g><path class="cls-3" d="M164.44,188.11l-7.88-6.43c-3.58-2.79-7.34-2.52-10.58.72-.6.57-1.2,1.17-1.81,1.77-5.52,5.42-11.23,11-23.73,11-17.54,0-31.28-14.92-31.28-34,0-18.88,13.87-33.67,31.57-33.67,7.74,0,15.83,3.87,21.66,10.35l.68.62c2.06,1.85,5.51,4.94,10.13.7l9.52-8.68a7.75,7.75,0,0,0,1.44-11.06c-11.57-14.42-25.88-21.43-43.72-21.43a63.92,63.92,0,0,0-63.06,63.46,62.61,62.61,0,0,0,62.77,62.89c19.88,0,36.48-9,46.74-25.37C169.38,195.42,168.46,191.34,164.44,188.11Z"/><path class="cls-3" d="M230.14,98.06c-20.52,0-37.25,5.33-40.8,6.82-4.17,1.43-6.06,4.83-5.08,9.1l2.32,10.76,0,.11c1.32,4.83,4.74,7.18,9,6.12,12.11-3.47,22.56-5.16,31.93-5.16,5.65,0,9.36,1.11,11.7,3.48,2.84,2.88,4.13,8.11,4.21,17.24a85.19,85.19,0,0,0-20.85-2.81c-29,0-48.54,15.92-48.54,39.62,0,24.56,15.89,41.07,39.55,41.07,13.14,0,24.56-4.35,34.81-13.28l1.84,5c1.12,2.8,2.73,5.39,6.89,5.39h8.12a7.82,7.82,0,0,0,7.62-7.63V151.93C272.88,123.54,269.61,98.06,230.14,98.06Zm13,88.45c-3.61,5.5-13.88,13.05-24,13.05-9.19,0-15.61-6.79-15.61-16.51,0-10.39,8.41-17.1,21.42-17.1a44.33,44.33,0,0,1,18.22,3.79Z"/><path class="cls-3" d="M333,146.22c-11.69-5.11-17.32-7.83-17.32-13.78,0-4.27,3.9-6.63,11-6.63,10.41,0,22.77,5.85,22.86,5.89a8.21,8.21,0,0,0,10.34-3.22l5.2-9.85c2.4-4.08.33-9-3-11.22s-15.88-9.35-35.39-9.35c-16.67,0-26.48,6-31.79,11.12a32.07,32.07,0,0,0-10.08,23c0,22.44,19.6,33.59,34.32,40,16.11,7.33,21.12,10.64,21.12,17,0,7-8.48,7.79-12.12,7.79-13.46,0-25.81-7.19-25.92-7.26a7.82,7.82,0,0,0-6.25-.94,6.32,6.32,0,0,0-3.93,3.2l-6.1,11.34,0,.06a7,7,0,0,0,2.37,8.73c4.65,3.76,17.69,12.34,39.57,12.34,12.64,0,24.19-3.82,32.51-10.74,8.09-6.74,12.54-15.75,12.54-25.39C372.87,165.54,355.6,156.14,333,146.22Z"/><path class="cls-3" d="M401.39,38.8c-10.46,0-18.65,8.46-18.65,19.26a18.61,18.61,0,0,0,18.65,19,19.12,19.12,0,1,0,0-38.23Z"/><path class="cls-3" d="M410.1,101H393.55a7.82,7.82,0,0,0-7.61,7.63V213.87a7.81,7.81,0,0,0,7.61,7.63H410.1a7.82,7.82,0,0,0,7.61-7.63V108.59A7.83,7.83,0,0,0,410.1,101Z"/><path class="cls-3" d="M501.4,98.06a62,62,0,0,0-39.72,14.67l-2.4-6.82a6.78,6.78,0,0,0-6.65-5h-8.41a7.83,7.83,0,0,0-7.62,7.63V213.87a7.82,7.82,0,0,0,7.62,7.63h15.09c5.91,0,8.78-2.49,8.78-7.63V143.31c1.82-4.05,13.67-15.75,30.12-15.75,14.18,0,22,9.48,22,26.69v59.62a7.62,7.62,0,0,0,7.61,7.63h16.55a7.82,7.82,0,0,0,7.61-7.63V155.42c0-16.62-3.94-30.53-11.39-40.25C531.88,103.81,518.7,98.06,501.4,98.06Z"/><path class="cls-3" d="M668.5,116.77a58.82,58.82,0,0,0-86,0,63.68,63.68,0,0,0-17.71,44.17c0,35,27.25,63.47,60.74,63.47s60.73-28.47,60.73-63.47A63.68,63.68,0,0,0,668.5,116.77Zm-12.32,44.17c0,18.89-13.77,34.26-30.7,34.26s-30.7-15.37-30.7-34.26c0-18.41,13.77-33.38,30.7-33.38S656.18,142.53,656.18,160.94Z"/><path class="cls-4" d="M846.15,60.76l-30.69,31.1-.16,13.92a80.88,80.88,0,0,0-10.25-3.51l-47.12,47.85,62.44,62.45c.35-.29.68-.58,1-.85l.66,2.48,64.68,64.69,88.22-89.36Z"/><path class="cls-3" d="M941.33,223.48l-65.25-66.21,46.34-41.42a7,7,0,0,0,1.81-7.53,6.53,6.53,0,0,0-6.38-4.25l-20.14-.18h-.09c-3.47,0-6.19,1.88-8.66,4l-41.41,36.51-13.39,12.36,13.16,13.87L906,231.45a9.55,9.55,0,0,0,6.87,3.14l23.59.21h.08a6.55,6.55,0,0,0,6.34-3.83A7,7,0,0,0,941.33,223.48Z"/><path class="cls-3" d="M840.33,17.07l-16.69-.15a7.86,7.86,0,0,0-5.44,2.27,7.76,7.76,0,0,0-2.37,5.4l-.71,80.93a66.85,66.85,0,0,0-25.3-5.46A57,57,0,0,0,747.68,118c-11,11.63-17.22,27.34-17.37,44.24-.3,35.15,24.08,62.91,55.53,63.19h.45c17.44,0,29.75-9,35.06-13.71l1.23,4.64c1.21,4.15,3.87,6.55,7.3,6.58l8.63.07h.07a7.94,7.94,0,0,0,7.74-7.67L848,24.87A7.94,7.94,0,0,0,840.33,17.07ZM789.55,196.16a25.62,25.62,0,0,1-20.31-9.95c-5-6.22-7.7-14.63-7.62-23.7a34.82,34.82,0,0,1,8.79-23.43,29.14,29.14,0,0,1,21.74-9.41h.28a47,47,0,0,1,22.71,6.1l-.4,45.09c-1.31,2.47-8.91,15.31-24.93,15.31Z"/><path class="cls-4" d="M706.66,186.18c-10.45,0-18.64,8.46-18.64,19.26a18.61,18.61,0,0,0,18.64,19,19.12,19.12,0,1,0,0-38.23Z"/></g></g></svg>