<svg xmlns="http://www.w3.org/2000/svg" width="75" height="75" viewBox="6.25 6.25 61.85200500488281 61.753997802734375">
  <path d="M8.008 26.344h58.336C62.293 15.172 51.66 6.996 38.964 6.25h-3.577c-12.696.746-23.328 8.938-27.38 20.094zm0 0" fill="#fff"></path>
  <path d="M8.008 47.168h58.336c1.136-2.965 1.758-6.8 1.758-10.414 0-3.613-.622-6.7-1.758-10.41H8.008C6.87 30.054 6.25 33.14 6.25 36.754c0 3.613.621 7.45 1.758 10.414zm0 0" fill="#0041ab"></path>
  <path d="M35.387 68.004h3.578c12.695-.742 23.328-8.922 27.379-20.836H8.008c4.05 11.914 14.683 20.094 27.379 20.836zm0 0" fill="#ff0013"></path>
</svg>