<?xml version="1.0" encoding="utf-8"?>
<!-- Generator: Adobe Illustrator 21.0.2, SVG Export Plug-In . SVG Version: 6.00 Build 0)  -->
<svg version="1.1" id="Layer_3" xmlns="http://www.w3.org/2000/svg" xmlns:xlink="http://www.w3.org/1999/xlink" x="0px" y="0px"
	 viewBox="0 0 817.7 117.1" style="enable-background:new 0 0 817.7 117.1;" xml:space="preserve">
<style type="text/css">
	.st0{fill:#FFFFFF;}
	.st1{fill:#FFD000;}
</style>
<g>
	<path class="st0" d="M394.2,53.9l-4.7,17.5h9.3L394.2,53.9z M405.6,93.6l-3.4-11.2h-16l-3.4,11.2h-13.2l21.7-65.1h6.3l21.6,65.1
		H405.6z"/>
	<g>
		<path class="st0" d="M444,94.6c-13,0-21.3-7.2-21.3-22.2V28.9h13.4v43.6c0,6.3,2.7,10,8.3,10c5.5,0,8-3.7,8-10V28.9h13.4v43.5
			C465.9,87.6,457.2,94.6,444,94.6"/>
	</g>
	<polygon class="st0" points="499.7,41.3 499.7,93.6 486.3,93.6 486.3,41.3 472.3,41.3 472.3,28.9 513.7,28.9 513.7,41.3 	"/>
	<g>
		<path class="st0" d="M541.6,39.7c-7,0-11,8-11,21.5c0,13.3,4.1,21.6,11,21.6s11.1-8.3,11.1-21.6C552.7,47.8,548.6,39.7,541.6,39.7
			 M541.3,94.6c-15.3,0-24.8-13.2-24.8-33.3c0-20,9.8-33.4,25.4-33.4c15.3,0,24.8,13.1,24.8,33.2C566.8,81.2,556.9,94.6,541.3,94.6"
			/>
	</g>
	<polygon class="st0" points="615.8,93.6 615.1,61.8 602.8,83.2 600.7,83.2 588.1,61.8 587.5,93.6 574.6,93.6 576.8,28.7 
		581.3,28.5 602,62.5 622,28.5 626.6,28.7 628.8,93.6 	"/>
	<path class="st0" d="M657.8,53.9l-4.7,17.5h9.3L657.8,53.9z M669.2,93.6l-3.4-11.2h-16l-3.4,11.2h-13.2l21.7-65.1h6.3l21.6,65.1
		H669.2z"/>
	<polygon class="st0" points="706.7,41.3 706.7,93.6 693.3,93.6 693.3,41.3 679.2,41.3 679.2,28.9 720.6,28.9 720.6,41.3 	"/>
	<polygon class="st0" points="727.5,93.6 727.5,28.9 761.1,28.9 761.1,41.2 740.9,41.2 740.9,54.6 758.8,54.6 758.8,66.4 
		740.9,66.4 740.9,81.3 761.1,81.3 761.1,93.6 	"/>
	<polygon class="st0" points="770.4,28.5 770.4,93.6 783.5,93.6 783.5,60.4 809.9,94.2 814.1,94 814.1,28.9 800.8,28.9 800.8,61.3 
		774.7,28.3 	"/>
	<g>
		<path class="st1" d="M361.1,49.9c0,0,4.6-13.6-1.3-18.3c-4.6-3.6-13.7-2.3-13.7-2.3s9.7-7.1,16.8-1.3
			C370.1,35,361.1,49.9,361.1,49.9 M353.5,21.8c-4.6,1-10,3.4-13.8,6.3c-5,3.8-9.5,7.9-12.7,12.9c-0.7-5.9-1.2-10.5-2.9-15.8
			c-1.6-5-4.5-8.5-9.5-9.4c-4.7-0.9-10.9,2.8-13.3,6.5c-7.8,11.8-6.1,21.1-5.2,35c0.8,12.6,5.1,29.4,13,39.9
			c2.8,3.8,4.1,6.2,7.6,3.3c21-20,27.1-25.4,33.5-31.3c8.6-8.4,18.2-18.9,19.2-31.6C370.3,27.4,363,19.7,353.5,21.8"/>
		<path class="st0" d="M196.5,59.8v30c-4.5,3.4-9.9,5.2-16.3,5.2c-14.7,0-26-12.8-26-33.7c0-20.7,12.1-33.6,25.7-33.6
			c7.3,0,12.3,2.5,16.7,6.2l-3.6,5.1c-3.9-3.1-8.2-5.2-13.1-5.2c-11.1,0-18.7,10.4-18.7,27.3c0,17.5,8.1,28,19.3,28
			c3.9,0,6.7-0.8,9.5-2.5V66h-12.3v-6.2H196.5z"/>
	</g>
	<polygon class="st0" points="3.6,28 3.6,94.2 10.9,94.2 10.9,48.2 40.4,94.6 42.7,94.6 42.7,28.4 35.6,28.4 35.6,73.7 6.3,28 	"/>
	<g>
		<path class="st0" d="M83.3,85.7c1.9-1.4,3.5-3.2,4.8-5.6c1.3-2.4,2.3-5.1,2.9-8.3c0.7-3.2,1-6.6,1-10.3c0-3.7-0.3-7.1-1-10.3
			c-0.7-3.2-1.6-6-2.9-8.4c-1.3-2.4-2.9-4.3-4.8-5.6c-1.9-1.4-4.1-2-6.6-2c-2.5,0-4.7,0.7-6.6,2c-1.9,1.4-3.5,3.2-4.8,5.6
			C64,45.1,63,47.8,62.4,51c-0.7,3.2-1,6.6-1,10.3c0,3.7,0.3,7.1,1,10.3c0.7,3.2,1.6,6,2.9,8.4c1.3,2.4,2.9,4.2,4.8,5.6
			c1.9,1.4,4.1,2,6.6,2C79.2,87.7,81.4,87.1,83.3,85.7 M67.1,92.6c-2.8-1.6-5.2-3.9-7.2-6.9c-2-3-3.5-6.5-4.6-10.6
			c-1.1-4.1-1.6-8.7-1.6-13.7c0-5,0.5-9.6,1.6-13.8c1.1-4.1,2.6-7.7,4.6-10.6c2-3,4.4-5.2,7.2-6.9c2.8-1.6,6-2.4,9.6-2.4
			c3.5,0,6.7,0.8,9.6,2.4c2.8,1.6,5.3,3.9,7.3,6.9c2,3,3.6,6.5,4.6,10.6c1.1,4.1,1.6,8.7,1.6,13.7s-0.5,9.6-1.6,13.8
			c-1.1,4.1-2.6,7.7-4.6,10.6c-2,3-4.4,5.3-7.3,6.9c-2.8,1.6-6,2.5-9.6,2.5C73.1,95,70,94.2,67.1,92.6"/>
		<path class="st0" d="M120.9,64.9c6,0,10.3-1.2,12.9-3.7c2.6-2.5,4-6.1,4-10.9c0-4.7-1.4-8.3-4.1-10.8c-2.7-2.5-7-3.7-12.8-3.7
			h-2.7v29.2H120.9z M148.4,94.2H140l-12.2-22.9c-2.2,0.4-4.7,0.6-7.3,0.6h-2.3v22.4h-7.6V28.4h7.7c9.1,0,15.9,1.8,20.3,5.4
			c4.4,3.6,6.6,9,6.6,16.3c0,4.5-0.9,8.3-2.7,11.4c-1.8,3.1-4.4,5.6-7.8,7.3L148.4,94.2z"/>
	</g>
	<polygon class="st0" points="208.4,28.4 238.4,28.4 238.4,35.6 215.9,35.6 215.9,57.6 233.5,57.6 233.5,64.8 215.9,64.8 
		215.9,87.2 239,87.2 239,94.2 208.4,94.2 	"/>
	<g>
		<path class="st0" d="M252.3,93.4c-3-1-5.4-1.9-7.1-2.8l3-6.4c1.4,0.7,3.5,1.6,6.2,2.4c2.7,0.9,5.5,1.3,8.5,1.3
			c3.7,0,6.5-0.8,8.4-2.5c1.9-1.6,2.8-3.9,2.8-6.9c0-1.5-0.3-2.9-1-4.2c-0.7-1.3-1.5-2.5-2.6-3.7c-1.1-1.2-2.3-2.3-3.8-3.5
			c-1.4-1.1-2.9-2.3-4.4-3.4c-1.8-1.4-3.6-2.8-5.4-4.2c-1.8-1.4-3.4-3-4.8-4.6c-1.4-1.6-2.5-3.4-3.4-5.3c-0.9-1.9-1.3-4.1-1.3-6.4
			c0-2.6,0.4-4.9,1.4-6.8c0.9-1.9,2.1-3.5,3.7-4.8c1.6-1.3,3.4-2.3,5.6-2.9c2.1-0.6,4.5-0.9,6.9-0.9c3.5,0,6.4,0.3,8.8,0.9
			c2.4,0.6,4,1.2,4.9,1.7l-2.3,6.8c-1.7-0.7-3.6-1.2-5.6-1.6c-2-0.4-3.9-0.6-5.9-0.6c-3.1,0-5.5,0.7-7.3,2.1
			c-1.8,1.4-2.7,3.4-2.7,6.1c0,1.5,0.3,2.9,1,4.1c0.7,1.3,1.5,2.5,2.7,3.6c1.1,1.2,2.4,2.3,3.8,3.4c1.4,1.1,2.9,2.2,4.5,3.4
			c1.7,1.3,3.5,2.7,5.3,4.1c1.8,1.4,3.4,3,4.8,4.6c1.4,1.7,2.5,3.5,3.4,5.5c0.9,2,1.3,4.2,1.3,6.6c0,5-1.6,9-4.9,12
			c-3.3,3-8,4.4-14.3,4.4C258.7,94.8,255.3,94.3,252.3,93.4"/>
	</g>
</g>
</svg>
