<svg xmlns="http://www.w3.org/2000/svg" width="75" height="75" viewBox="0 0 75 75">
    <g fill="none" fill-rule="evenodd">
        <path d="M37.4680842,0 C20.6376405,0.000949535117 5.33229963,11.4149314 1.10792985,28.4925104 L1.10792985,28.4925104 C-3.86959123,48.593789 8.39295002,68.9201074 28.4923666,73.892443 L28.4923666,73.892443 C48.5946317,78.8687667 68.9187024,66.6077995 73.8935648,46.5067108 L73.8935648,46.5067108 C78.8661485,26.4052423 66.6106336,6.08006326 46.5072291,1.10734785 L46.5072291,1.10734785 C43.4817105,0.35854446 40.4535334,0 37.4709327,0 L37.4709327,0 L37.4680842,0 Z"/>
        <path fill="#ED2D2E" d="M1.17643939,28.5479735 C6.13666667,8.4974053 26.4097727,-3.72513258 46.4540909,1.23642045 C66.5037121,6.19570076 78.7268182,26.4657765 73.7669697,46.513125 C68.8056061,66.5599053 48.5359091,78.7877462 28.4876136,73.8252462 C8.4417803,68.8659659 -3.78776515,48.5947538 1.17643939,28.5479735"/>
        <path fill="#FEFEFE" d="M73.0927462,26.1527462 L48.9857386,26.1527462 L48.9857386,1.95899621 C48.1563826,1.69157197 47.3130114,1.44895833 46.4541098,1.23645833 C39.3899053,-0.512026515 32.298428,-0.123768939 25.8577083,1.98664773 L25.8577083,26.1527462 L1.85600379,26.1527462 C1.60581439,26.9383523 1.37721591,27.7360795 1.17645833,28.5480114 C-0.584905303,35.660322 -0.179602273,42.8002841 1.96888258,49.2752841 L25.8577083,49.2752841 L25.8577083,73.0716856 C26.7186932,73.3517992 27.5950189,73.6044508 28.4876326,73.8252841 C35.5166098,75.5650568 42.5717235,75.1894886 48.9857386,73.1071023 L48.9857386,49.2752841 L72.9713447,49.2752841 C73.269072,48.3724432 73.5347917,47.4512311 73.7669886,46.5131629 C75.4935038,39.5345644 75.135928,32.5300189 73.0927462,26.1527462"/>
        <path fill="#212F63" d="M74.2926326,30.9845455 L44.1539962,30.9845455 L44.1539962,0.744583333 C39.5850568,-0.0896969697 35.0361932,-0.0525757576 30.6896023,0.751401515 L30.6896023,30.9845455 L0.660056818,30.9845455 C-0.157367424,35.5532955 -0.102443182,40.1008333 0.717064394,44.4436364 L30.6896023,44.4436364 L30.6896023,74.29875 C35.2575947,75.1459091 39.8064583,75.1199621 44.1539962,74.3279167 L44.1539962,44.4436364 L74.2164962,44.4436364 C75.079375,39.8798106 75.0676326,35.3326515 74.2926326,30.9845455"/>
    </g>
</svg>