<?xml version="1.0" encoding="UTF-8"?>
<svg width="102px" height="38px" viewBox="0 0 102 38" version="1.1" xmlns="http://www.w3.org/2000/svg" xmlns:xlink="http://www.w3.org/1999/xlink">
    <title>colbet-by-betsson-white</title>
    <g id="colbet-by-betsson-white" stroke="none" stroke-width="1" fill="none" fill-rule="evenodd">
        <g id="Group-5" transform="translate(0.000000, 0.000000)">
            <path d="M14.2215319,19.6087466 C13.4593443,19.1969896 10.869931,17.8532788 10.2899209,17.552319 C10.195718,19.1176241 8.89789713,20.3686109 7.32447429,20.3686109 C5.69032548,20.3686109 4.35357783,19.0193997 4.35357783,17.3700144 L4.35357783,10.5807394 C4.35357783,8.9313543 5.69032548,7.58214289 7.32447429,7.58214289 C8.9586231,7.58214289 10.2953708,8.9313543 10.2953708,10.5807394 L10.2953708,10.6381026 C10.9438919,10.2695643 13.46168,8.92585368 14.212968,8.52509776 C13.189192,5.68366042 10.4822196,3.64059154 7.32447429,3.64059154 C3.29632495,3.64059154 8.49690123e-15,6.96765073 8.49690123e-15,11.0333577 L8.49690123e-15,17.1248462 C8.49690123e-15,21.1913391 3.29632495,24.5176123 7.32447429,24.5176123 C10.4907835,24.5176123 13.2047628,22.4627567 14.2215319,19.6087466 Z" id="Path" fill="#FFFFFF"></path>
            <path d="M54.4672136,4.45153272 L58.7647368,4.45153272 L58.7647368,18.8551684 C58.7647368,19.168701 59.0185399,19.425656 59.3291761,19.425656 L61.4179902,19.425656 L61.4179902,23.5369393 L57.856963,23.5369393 C55.9923673,23.5369393 54.4672136,21.9975656 54.4672136,20.1155848 L54.4672136,4.45153272 Z" id="Path" fill="#FFFFFF"></path>
            <path d="M63.3612181,23.4929347 L72.9527916,23.4929347 C78.3612868,23.4929347 79.3648207,15.4589592 75.7851086,13.6862041 C79.5275351,12.0297467 78.0475365,4.45153272 72.7386941,4.45153272 L63.3612181,4.45153272 L63.3612181,23.4929347 Z M67.546632,8.26107039 L71.9422509,8.26107039 C72.8741594,8.26107039 73.6371255,9.0311502 73.6371255,9.97174783 L73.6371255,10.0959035 C73.6371255,11.0365009 72.8741594,11.8065807 71.9422509,11.8065807 L67.546632,11.8065807 L67.546632,8.26107039 Z M67.546632,15.9744412 L71.9422509,15.9744412 C72.8741594,15.9744412 73.6371255,16.7437353 73.6371255,17.6851187 L73.6371255,17.8084885 C73.6371255,18.7498717 72.8741594,19.5191658 71.9422509,19.5191658 L67.546632,19.5191658 L67.546632,15.9744412 Z" id="Shape" fill="#FFFFFF"></path>
            <path d="M91.7427775,20.6640701 L89.491249,18.6241444 C89.1938481,19.483805 88.0704194,20.1234426 86.7305576,20.1234426 C85.1633629,20.1234426 83.8920123,19.248852 83.8920123,18.1691688 C83.8920123,18.12595 83.894348,18.0827312 83.8982406,18.0395124 C84.2361257,17.9955078 87.1330611,18.0041516 89.5605388,18.0198675 C91.0350876,18.0292971 92.3360226,18.0418698 92.7836812,18.0465847 C92.8911193,17.5193157 92.947174,16.9708302 92.947174,16.4082005 C92.947174,6.24000379 79.4341107,7.14838365 79.4341107,16.4082005 C79.4341107,20.4157586 82.5700569,23.6862405 86.5055603,23.8685452 C86.6207838,23.8732598 86.7360072,23.876403 86.8520094,23.876403 C89.0871884,23.876403 91.0911422,22.8808 92.4512461,21.3060654 L91.7427775,20.6640701 Z M86.2198375,12.7495356 C87.5044231,12.7495356 88.5461055,13.7498537 88.5461055,14.9843386 L83.8935695,14.9843386 C83.8935695,13.7498537 84.9352516,12.7495356 86.2198375,12.7495356 Z" id="Shape" fill="#FFFFFF"></path>
            <path d="M99.3467466,5.67658831 L99.3467466,9.82558973 L101.6808,9.82558973 L101.6808,13.0882136 L99.3467466,13.0882136 L99.3467466,18.8551684 C99.3467466,19.168701 99.6013281,19.425656 99.9119642,19.425656 L102,19.425656 L102,23.5369393 L98.4389725,23.5369393 C96.574377,23.5369393 95.0492234,21.9975656 95.0492234,20.1155848 L95.0492234,13.0882136 L93.7584092,13.0882136 L93.7584092,9.82558973 L95.0492234,9.82558973 L95.0492234,5.67658831 L99.3467466,5.67658831 Z" id="Path" fill="#FFFFFF"></path>
            <path d="M31.621051,0.722932066 C29.220822,1.47336703 25.8271802,2.95852085 25.0914627,4.05470593 C23.9516849,5.7520247 24.8672441,12.4847225 25.5025302,13.1070727 C26.1378162,13.7294229 33.9480975,15.4864621 36.1529137,14.728955 C36.1529137,14.728955 41.4407357,8.65632569 41.1044078,6.60068408 C41.1044078,6.60068408 39.4492387,3.54236712 35.8461703,1.26513122 C33.7853833,-0.0369324493 33.9636682,-0.00942954868 31.621051,0.722932066 Z" id="Path" fill="#FED900"></path>
            <path d="M26.1004465,0 C26.1004465,0 25.2969965,3.26262384 24.1945883,4.11128323 C23.0921802,4.95994261 20.0465442,6.82699325 20.0465442,6.82699325 C20.0465442,6.82699325 21.6347593,2.60255544 26.1004465,0 Z" id="Path" fill="#FED900"></path>
            <path d="M44.5432051,1.64074147 C44.5432051,1.64074147 42.7120865,5.99719296 42.9363051,6.4498113 C43.1605237,6.90242964 45.2158609,11.3343175 45.6269283,14.5780823 C45.6269283,14.5780823 45.6269283,16.3508374 49.1023166,16.1622464 C49.1023166,16.1622464 51.606091,9.58042146 44.5432051,1.64074147 Z" id="Path" fill="#FED900"></path>
            <path d="M36.4713354,15.8416418 C36.4713354,15.8416418 39.0872191,16.4451329 41.5723086,16.6714421 C44.0573981,16.8977512 45.1598062,16.6903012 45.2719155,17.5766787 C45.3848033,18.4630563 45.0858452,23.2155489 44.2450254,24.3470947 C43.4532535,25.411848 38.2580773,27.9751135 35.0941037,27.9916154 C34.6721368,27.9939726 34.6176391,28.0591937 34.3467083,27.7841653 C33.6164409,27.0431599 30.8650917,24.2213674 30.4929512,23.4041398 C30.0631989,22.461185 31.2216617,21.8199757 32.5109186,20.4244024 C33.8001756,19.0288292 36.4713354,15.8416418 36.4713354,15.8416418 Z" id="Path" fill="#D21D10"></path>
            <path d="M18.7915429,14.3800617 C18.7915429,14.3800617 18.8662824,12.1358292 19.4268289,12.0226746 C19.9873754,11.90952 24.5091172,12.9051232 25.1257184,14.7831749 C25.7423195,16.6620125 27.7229172,21.7162506 28.713216,23.149542 C28.713216,23.149542 28.946777,24.3337362 25.7796893,26.1669976 C25.7796893,26.1669976 19.2680074,21.9205575 18.7915429,14.3800617 Z" id="Path" fill="#008ED2"></path>
        </g>
        <path d="M39.2,36.128 C39.6106667,36.128 39.9626667,36.0586667 40.256,35.92 C40.5493333,35.7813333 40.7893333,35.6053333 40.976,35.392 C41.1626667,35.1786667 41.3,34.944 41.388,34.688 C41.476,34.432 41.52,34.184 41.52,33.944 C41.52,33.704 41.4786667,33.4506667 41.396,33.184 C41.3133333,32.9173333 41.1786667,32.6733333 40.992,32.452 C40.8053333,32.2306667 40.5586667,32.048 40.252,31.904 C39.9453333,31.76 39.568,31.688 39.12,31.688 C38.9013333,31.688 38.708,31.7053333 38.54,31.74 C38.372,31.7746667 38.216,31.8226667 38.072,31.884 C37.928,31.9453333 37.7893333,32.0186667 37.656,32.104 C37.5226667,32.1893333 37.3866667,32.2853333 37.248,32.392 L37.248,32.392 L37.248,30.184 L36.6,30.184 L36.6,35.216 C36.6,35.2426667 36.5973333,35.2933333 36.592,35.368 C36.5866667,35.4426667 36.5813333,35.5213333 36.576,35.604 L36.568,35.725 L36.568,35.725 L36.56,35.84 C36.5546667,35.9146667 36.552,35.968 36.552,36 L36.552,36 L37.056,36 L37.216,35.344 C37.3706667,35.472 37.5173333,35.5853333 37.656,35.684 C37.7946667,35.7826667 37.94,35.864 38.092,35.928 C38.244,35.992 38.408,36.0413333 38.584,36.076 C38.76,36.1106667 38.9653333,36.128 39.2,36.128 Z M39.064,35.576 C38.888,35.576 38.7133333,35.5506667 38.54,35.5 C38.3666667,35.4493333 38.2013333,35.3813333 38.044,35.296 C37.8866667,35.2106667 37.74,35.1146667 37.604,35.008 C37.468,34.9013333 37.3493333,34.7946667 37.248,34.688 L37.248,34.688 L37.248,33.064 C37.344,32.9626667 37.4506667,32.8626667 37.568,32.764 C37.6853333,32.6653333 37.8186667,32.5773333 37.968,32.5 C38.1173333,32.4226667 38.284,32.36 38.468,32.312 C38.652,32.264 38.856,32.24 39.08,32.24 C39.2933333,32.24 39.508,32.2693333 39.724,32.328 C39.94,32.3866667 40.132,32.484 40.3,32.62 C40.468,32.756 40.6053333,32.9333333 40.712,33.152 C40.8186667,33.3706667 40.872,33.64 40.872,33.96 C40.872,34.1786667 40.8306667,34.3853333 40.748,34.58 C40.6653333,34.7746667 40.5466667,34.9453333 40.392,35.092 C40.2373333,35.2386667 40.048,35.356 39.824,35.444 C39.6,35.532 39.3466667,35.576 39.064,35.576 Z M42.968,37.472 C43.1546667,37.472 43.324,37.4466667 43.476,37.396 C43.628,37.3453333 43.764,37.2786667 43.884,37.196 C44.004,37.1133333 44.1093333,37.0146667 44.2,36.9 C44.2906667,36.7853333 44.368,36.664 44.432,36.536 L44.432,36.536 L46.88,31.816 L46.176,31.816 L44.464,35.192 L42.672,31.816 L41.968,31.816 L44.12,35.84 C44.024,36.0426667 43.9306667,36.2106667 43.84,36.344 C43.7493333,36.4773333 43.656,36.584 43.56,36.664 C43.464,36.744 43.364,36.8 43.26,36.832 C43.156,36.864 43.0426667,36.88 42.92,36.88 C42.8133333,36.88 42.688,36.8706667 42.544,36.852 C42.4,36.8333333 42.2746667,36.8 42.168,36.752 L42.168,36.752 L42.168,37.344 C42.3013333,37.3866667 42.4333333,37.4186667 42.564,37.44 C42.6946667,37.4613333 42.8293333,37.472 42.968,37.472 Z" id="by" fill="#FFFFFF" fill-rule="nonzero"></path>
        <g id="general.brand-logo-copy" transform="translate(51.000000, 28.000000)" fill="#FFFFFF" fill-rule="nonzero">
            <path d="M6.31484303,5.67027861 C6.31484303,6.77089782 5.46410294,7.88544891 3.83870523,7.88544891 C2.90496612,7.88544891 1.91589432,7.27941176 1.34181768,6.66640866 C1.32798451,6.45743034 1.32798451,4.65325076 1.34181768,4.42337462 C1.85364505,3.89396284 2.60063634,3.30185758 3.85945499,3.30185758 C5.04910779,3.30185758 6.31484303,3.92182662 6.31484303,5.67027861 M3.92170426,2.20123839 C2.70438513,2.20123839 2.01964311,2.59133126 1.34873427,3.08591331 L1.34873427,0.445820433 C1.34873427,0.202012384 1.14815328,0 0.906072767,0 L0.117581962,0 L0.117581962,7.49535601 L0,8.79798761 L0.546410294,8.79798761 L0.72624153,8.79798761 C1.05132107,8.79798761 1.12740352,8.57507739 1.16890303,8.373065 L1.27265182,7.97600618 C2.01272653,8.57507739 2.67671878,8.98606811 4.03928623,8.98606811 C6.61917279,8.98606811 7.5529119,6.9868421 7.5529119,5.6493808 C7.54599532,4.36068109 6.78517088,2.20123839 3.92170426,2.20123839" id="Shape"></path>
            <path d="M9.45497307,4.81346748 C9.75930283,3.81037151 10.5339605,3.28095975 11.6890303,3.28095975 C13.3697608,3.28095975 13.8539218,4.35371517 13.9853369,4.81346748 L9.45497307,4.81346748 L9.45497307,4.81346748 Z M11.6060313,2.18034055 C9.60022137,2.18034055 8.14082172,3.59442724 8.14082172,5.54489164 C8.14082172,7.53018576 9.64863748,8.96517025 11.7236133,8.96517025 C13.7294232,8.96517025 14.4141652,8.22678017 15.0159082,7.57894735 L15.2441556,7.33513929 L14.2550838,6.61764706 L14.1375018,6.77089782 C13.7709227,7.23065013 13.266012,7.86455105 11.8135289,7.86455105 C10.3402961,7.86455105 9.54488868,6.89628483 9.3927238,5.91408668 L15.3340712,5.91408668 L15.3409877,5.67027861 C15.3409877,4.65325076 15.0435746,3.83126934 14.4487482,3.22523219 C13.7916725,2.5495356 12.7818509,2.18034055 11.6060313,2.18034055 L11.6060313,2.18034055 Z" id="Shape"></path>
            <path d="M19.0690276,7.8993808 C18.1491217,7.8993808 17.9692905,7.58591332 17.9692905,7.04953559 L17.9692905,3.49690402 L20.383179,3.49690402 L20.383179,2.84210526 C20.383179,2.59829721 20.182598,2.39628482 19.9405174,2.39628482 L17.9623738,2.39628482 L17.9623738,0.808049534 C17.9623738,0.564241483 17.7617928,0.369195046 17.5197124,0.369195046 L16.7312215,0.369195046 L16.7312215,2.40325077 L15.4447366,2.40325077 L15.4447366,3.50386996 L16.7381381,3.50386996 L16.7381381,7.14705882 C16.7381381,7.65557273 16.7381381,9 18.8684466,9 C19.262692,9 19.7399364,8.93034055 20.4246784,8.82585139 L20.549177,8.80495353 L20.549177,7.68343651 L20.2932633,7.73219811 C19.8229355,7.82972134 19.4840228,7.8993808 19.0690276,7.8993808" id="Shape"></path>
            <path d="M24.5953798,4.93188853 C23.5648085,4.80650155 22.6725689,4.70201239 22.6725689,4.13777089 C22.6725689,3.3993808 23.6754739,3.28792569 24.2703003,3.28792569 C25.3008716,3.28792569 26.0893624,3.6362229 26.6288561,4.33281731 L26.7256883,4.45820433 L27.5764284,3.67801857 L27.5003459,3.5735294 C27.2582654,3.23219813 26.5251073,2.1873065 24.2841334,2.1873065 C22.9146494,2.1873065 21.4483332,2.71671826 21.4483332,4.19349845 C21.4483332,5.70510836 23.0460646,5.90015479 24.4570481,6.0743034 C25.5498687,6.20665634 26.497441,6.32507739 26.497441,6.97987613 C26.497441,7.64164084 25.5498687,7.87151702 24.7406281,7.87151702 C23.6339743,7.87151702 22.7486514,7.4605263 22.1054089,6.63854487 L22.0085767,6.5131579 L21.0955873,7.35603714 L21.1855029,7.46749223 C22.0569928,8.49148605 23.1636465,8.97213622 24.6645457,8.97213622 C26.6150229,8.97213622 27.7355099,8.21981424 27.7355099,6.91021672 C27.7285933,5.30804954 26.0616961,5.10603714 24.5953798,4.93188853" id="Shape"></path>
            <path d="M31.8162956,4.93188853 C30.7857243,4.80650155 29.8934847,4.70201239 29.8934847,4.13777089 C29.8934847,3.3993808 30.8963897,3.28792569 31.4912161,3.28792569 C32.5217874,3.28792569 33.3102782,3.6362229 33.8497719,4.33281731 L33.9466041,4.45820433 L34.7973442,3.67801857 L34.7212617,3.5735294 C34.4791812,3.23219813 33.7460231,2.1873065 31.5050493,2.1873065 C30.1355652,2.1873065 28.669249,2.71671826 28.669249,4.19349845 C28.669249,5.70510836 30.2669803,5.90015479 31.6779639,6.0743034 C32.7707845,6.20665634 33.7183568,6.32507739 33.7183568,6.97987613 C33.7183568,7.64164084 32.7707845,7.87151702 31.9615439,7.87151702 C30.8548902,7.87151702 29.9695671,7.4605263 29.3263247,6.63854487 L29.2294924,6.5131579 L28.3165031,7.35603714 L28.4064187,7.46749223 C29.2779085,8.49148605 30.3845623,8.97213622 31.8854615,8.97213622 C33.8359387,8.97213622 34.9564256,8.21981424 34.9564256,6.91021672 C34.9425925,5.30804954 33.2826118,5.10603714 31.8162956,4.93188853" id="Shape"></path>
            <path d="M41.6032648,5.59365324 C41.6032648,7.00077399 40.6833589,7.87848294 39.1962929,7.87848294 C37.7230601,7.87848294 36.7754878,6.97987613 36.7754878,5.59365324 C36.7754878,4.48606811 37.5363122,3.29489163 39.1962929,3.29489163 C40.8562735,3.29489163 41.6032648,4.44427244 41.6032648,5.59365324 M39.1962929,2.19427244 C37.0798175,2.19427244 35.5443355,3.5735294 35.5443355,5.47523218 C35.5443355,7.63467492 36.9414858,8.97910214 39.1962929,8.97910214 C41.4441833,8.97910214 42.8344172,7.63467492 42.8344172,5.47523218 C42.8344172,3.5735294 41.3058516,2.19427244 39.1962929,2.19427244" id="Shape"></path>
            <path d="M47.3440314,2.19427244 C46.5002076,2.19427244 45.7117169,2.49380805 44.9370593,3.10681114 L44.9370593,2.82120742 C44.9370593,2.57739937 44.7364782,2.37538699 44.4943977,2.37538699 L43.7059069,2.37538699 L43.7059069,8.78405571 L44.9370593,8.78405571 L44.9370593,4.43034055 C45.3520546,3.99148606 46.1889612,3.28792569 47.2333657,3.28792569 C47.7659431,3.28792569 48.1601884,3.42027863 48.4161022,3.68498451 C48.6581823,3.93575851 48.7757644,4.30495357 48.768848,4.79256966 L48.768848,8.79102164 L50,8.79102164 L50,4.61145508 C49.9930836,2.50773993 48.3331028,2.19427244 47.3440314,2.19427244" id="Shape"></path>
        </g>
    </g>
</svg>