<svg xmlns="http://www.w3.org/2000/svg" width="75" height="75" viewBox="0 0 75 75">
    <g fill="none">
        <circle cx="37.5" cy="37.5" r="37.5" fill="#009B3A"></circle>
        <polygon fill="#FEDF00" points=".722 35.698 37.428 12.251 73.981 35.698 37.428 59.231"></polygon>
        <path fill="#002776" d="M37.3510905,51.1915326 C28.8176603,51.1915326 21.8997824,44.2736547 21.8997824,35.7402245 C21.8997824,27.2067943 28.8176603,20.2910966 37.3510905,20.2910966 C45.8823405,20.2910966 52.8023987,27.2067943 52.8023987,35.7402245 C52.8023987,44.2736547 45.8823405,51.1915326 37.3510905,51.1915326 Z"></path>
        <path fill="#FFF" d="M43.1312672,32.0742776 C46.5956539,33.5414834 49.79407,35.5142204 52.6347388,37.8990908 C52.514826,38.7406605 52.3469481,39.5636984 52.0994917,40.3562129 C45.8465847,34.7442943 37.5856836,31.3267797 28.5213667,31.3267797 C26.4370644,31.3267797 24.3974568,31.5186402 22.411265,31.8652972 C22.6216574,31.0498902 22.8876458,30.2573757 23.2244917,29.4997449 C24.9555964,29.2544687 26.7226749,29.1203844 28.5213667,29.1203844 C33.3218646,29.1203844 37.9105592,30.0230059 42.1287669,31.666762 L42.211552,31.4015077 L41.6289249,30.9596761 L42.3492638,30.9633889 L42.5664249,30.2449483 L42.7871169,30.9633889 L43.5039249,30.9596761 L42.9212978,31.4015077 L43.1312672,32.0742776 Z M43.031422,32.032163 L42.5664249,31.6744038 L42.4246186,31.7835066 C42.6277676,31.8646737 42.8300413,31.9475653 43.031422,32.032163 Z M29.6744917,40.3902245 L29.8788667,41.0277245 L30.5463667,41.0239745 L30.0082417,41.4158495 L30.2126167,42.0495995 L29.6744917,41.6577245 L29.1363667,42.0495995 L29.3444917,41.4158495 L28.8026167,41.0239745 L29.4738667,41.0277245 L29.6744917,40.3902245 Z M39.5196589,38.9935675 L39.7240339,39.6310675 L40.3915339,39.6273175 L39.8534089,40.0191925 L40.0577839,40.6529425 L39.5196589,40.2610675 L38.9815339,40.6529425 L39.1896589,40.0191925 L38.6477839,39.6273175 L39.3190339,39.6310675 L39.5196589,38.9935675 Z M25.1224932,32.3144251 L25.3431853,33.0328657 L26.0599932,33.0291528 L25.477366,33.4709845 L25.7015892,34.1894251 L25.1224932,33.7438805 L24.5433971,34.1894251 L24.7676203,33.4709845 L24.1849932,33.0291528 L24.9053322,33.0328657 L25.1224932,32.3144251 Z M37.7546516,42.0126445 L37.9753437,42.7333708 L38.6921516,42.7296653 L38.1095245,43.1706238 L38.3337477,43.8876445 L37.7546516,43.4411278 L37.1755556,43.8876445 L37.3997787,43.1706238 L36.8171516,42.7296653 L37.5339595,42.7333708 L37.7546516,42.0126445 Z M29.2004438,42.0680225 L29.3579438,42.5517725 L29.8641938,42.5480225 L29.4535688,42.8442725 L29.6110688,43.3280225 L29.2004438,43.0280225 L28.7935688,43.3280225 L28.9510688,42.8442725 L28.5404438,42.5480225 L29.0466938,42.5517725 L29.2004438,42.0680225 Z M36.1392519,39.110646 L36.2967519,39.594396 L36.8030019,39.594396 L36.3923769,39.886896 L36.5498769,40.370646 L36.1392519,40.070646 L35.7323769,40.370646 L35.8898769,39.886896 L35.4792519,39.594396 L35.9855019,39.594396 L36.1392519,39.110646 Z M41.9278129,34.5095922 L42.0853129,34.9933422 L42.5915629,34.9933422 L42.1809379,35.2858422 L42.3346879,35.7695922 L41.9278129,35.4695922 L41.5171879,35.7695922 L41.6784379,35.2858422 L41.2640629,34.9933422 L41.7740629,34.9933422 L41.9278129,34.5095922 Z M37.4878783,47.5590472 L37.5647533,47.7971722 L37.8141283,47.7971722 L37.6116283,47.9396722 L37.6885033,48.1777972 L37.4878783,48.0315472 L37.2853783,48.1777972 L37.3660033,47.9396722 L37.1616283,47.7971722 L37.4110033,47.7971722 L37.4878783,47.5590472 Z M50.6628929,40.8756533 L50.8203929,41.3594033 L51.3266429,41.3594033 L50.9160179,41.6519033 L51.0697679,42.1356533 L50.6628929,41.8356533 L50.2522679,42.1356533 L50.4135179,41.6519033 L50.0010179,41.3594033 L50.5091429,41.3594033 L50.6628929,40.8756533 Z M45.3898042,43.8139527 L45.5473042,44.2977027 L46.0535542,44.2977027 L45.6429292,44.5902027 L45.7966792,45.0739527 L45.3898042,44.7739527 L44.9791792,45.0739527 L45.1404292,44.5902027 L44.7260542,44.2977027 L45.2360542,44.2977027 L45.3898042,43.8139527 Z M43.6338013,44.3653335 L43.7913013,44.8490835 L44.2975513,44.8490835 L43.8869263,45.1415835 L44.0444263,45.6253335 L43.6338013,45.3253335 L43.2269263,45.6253335 L43.3844263,45.1415835 L42.9738013,44.8490835 L43.4800513,44.8490835 L43.6338013,44.3653335 Z M41.1073696,43.9991635 L41.2648696,44.4829135 L41.7711196,44.4829135 L41.3604946,44.7754135 L41.5142446,45.2591635 L41.1073696,44.9591635 L40.6967446,45.2591635 L40.8579946,44.7754135 L40.4454946,44.4829135 L40.9536196,44.4829135 L41.1073696,43.9991635 Z M45.3898042,46.826598 L45.5473042,47.310348 L46.0535542,47.310348 L45.6429292,47.602848 L45.7966792,48.086598 L45.3898042,47.786598 L44.9791792,48.086598 L45.1404292,47.602848 L44.7260542,47.310348 L45.2360542,47.310348 L45.3898042,46.826598 Z M26.5148987,38.7402245 L26.7355908,39.4586651 L27.4523987,39.4549522 L26.8697716,39.8967839 L27.0939947,40.6152245 L26.5148987,40.1696799 L25.9358026,40.6152245 L26.1600258,39.8967839 L25.5773987,39.4549522 L26.2942066,39.4586651 L26.5148987,38.7402245 Z M48.2831036,43.1921504 L48.4874786,43.8296504 L49.1549786,43.8259004 L48.6168536,44.2177754 L48.8212286,44.8515254 L48.2831036,44.4559004 L47.7449786,44.8515254 L47.9531036,44.2177754 L47.4112286,43.8259004 L48.0824786,43.8296504 L48.2831036,43.1921504 Z M45.4769263,45.1594832 L45.6813013,45.7969832 L46.3488013,45.7932332 L45.8106763,46.1851082 L46.0150513,46.8188582 L45.4769263,46.4269832 L44.9388013,46.8188582 L45.1469263,46.1851082 L44.6050513,45.7932332 L45.2763013,45.7969832 L45.4769263,45.1594832 Z M31.907922,35.7424047 L32.112297,36.3799047 L32.779797,36.3761547 L32.237922,36.7680297 L32.446047,37.4017797 L31.907922,37.0061547 L31.369797,37.4017797 L31.577922,36.7680297 L31.036047,36.3761547 L31.703547,36.3799047 L31.907922,35.7424047 Z"></path>
        <path fill="#009B3A" d="M42.6868827,33.0894978 C42.5844118,33.3238728 42.6629001,33.5833204 42.8591211,33.6683495 C42.9975659,33.7283059 43.1556327,33.6836111 43.2722751,33.5724193 L43.0575222,33.4786693 L43.1403711,33.2857187 L43.3998188,33.4001809 L43.3998188,33.3980007 L43.4575949,33.4241635 L43.6516356,33.5091925 L43.3573042,34.1839745 L43.1654438,34.0989454 L43.252653,33.898364 C43.0934961,33.973582 42.9168972,33.992114 42.7511996,33.9201664 C42.4165339,33.7730007 42.2759089,33.3533059 42.4372461,32.9804861 C42.5996734,32.6087565 43.0019263,32.4234367 43.3387722,32.5695123 C43.5982199,32.6828844 43.7366647,32.9641344 43.7083217,33.2595559 L43.4357926,33.1407332 C43.4216211,32.997928 43.3507635,32.8747449 43.2275804,32.8191489 C43.0313595,32.7341199 42.7893536,32.8551228 42.6868827,33.0894978 L42.6868827,33.0894978 Z M51.4972025,38.3820123 C51.3391356,38.5825937 51.0731472,38.6360094 50.9052693,38.5019251 C50.7373914,38.370021 50.7308507,38.0996722 50.8878275,37.8990908 C51.0480746,37.6995995 51.314063,37.6461838 51.4819409,37.7780879 C51.6509089,37.9121722 51.6563595,38.182521 51.4972025,38.3820123 L51.4972025,38.3820123 Z M51.6509089,37.5644251 C51.3652984,37.3365908 50.9281618,37.4118088 50.6752548,37.7290326 C50.4223478,38.0462565 50.4496007,38.4888437 50.7352112,38.716678 C51.0219118,38.9445123 51.4590484,38.8703844 51.7119554,38.5531605 C51.9659525,38.2359367 51.9376095,37.7922594 51.6509089,37.5644251 L51.6509089,37.5644251 Z M50.330778,37.1098466 L50.06806,36.9223466 C50.1596298,36.7937129 50.0746007,36.6618088 49.9383362,36.5647885 C49.8042519,36.4710385 49.6963304,36.4241635 49.6069409,36.5473466 C49.4597751,36.7457478 50.34931,37.1817943 50.0473478,37.6058495 C49.8260542,37.9165326 49.4750368,37.7562855 49.242842,37.5927681 C49.0466211,37.4521431 48.7588304,37.1305588 48.9724932,36.8307768 L49.242842,37.0237274 C49.1567228,37.1436402 49.2297606,37.2864454 49.3998188,37.4074483 C49.5720571,37.5284512 49.6941501,37.5328117 49.7475659,37.4543233 C49.9219845,37.2112274 49.0128275,36.7937129 49.3213304,36.3707478 C49.5873188,36.0044687 49.9961124,36.3216925 50.1498188,36.429614 C50.302435,36.5408059 50.545531,36.8176954 50.330778,37.1098466 L50.330778,37.1098466 Z M48.7544699,36.0088291 L48.4841211,35.8365908 C48.5691501,35.7014164 48.4754001,35.5738728 48.3358653,35.4844832 C48.1974205,35.3972739 48.0862286,35.3569396 48.0033798,35.4844832 C47.8671153,35.6916053 48.7784525,36.0785966 48.4993827,36.5179135 C48.2933507,36.8405879 47.9325222,36.701053 47.6948769,36.5473466 C47.489935,36.4176228 47.1857926,36.11021 47.3841938,35.801707 L47.6643536,35.9783059 C47.5858653,36.1047594 47.6643536,36.2432041 47.8409525,36.3554861 C48.0208217,36.4688582 48.1396443,36.4644978 48.1908798,36.382739 C48.352217,36.1320123 47.4223478,35.763553 47.7090484,35.323146 C47.9565048,34.9437855 48.3783798,35.2402972 48.5375368,35.3394978 C48.6977839,35.4419687 48.9550513,35.7035966 48.7544699,36.0088291 L48.7544699,36.0088291 Z M46.3278711,34.3409512 L46.1807054,34.5971286 L46.9132635,35.0102826 L46.7900804,35.2315762 L46.0575222,34.816242 L45.8722025,35.1465472 L46.8042519,35.6741635 L46.6701676,35.9107187 L45.5168246,35.2588291 L46.242842,33.9790326 L47.339499,34.5993088 L47.2043246,34.8380443 L46.3278711,34.3409512 Z M45.2224932,33.9692216 C45.1756182,34.0629716 45.0633362,34.1011257 44.9695862,34.0542507 L44.4626821,33.8002536 L44.63056,33.4623175 L45.1374641,33.7152245 C45.2312141,33.7620995 45.2693682,33.8754716 45.2224932,33.9692216 L45.2224932,33.9692216 Z M45.2802693,33.4808495 L44.5259089,33.1069396 L43.8511269,34.413989 L44.096403,34.534992 L44.339499,34.0455297 L44.8474932,34.2984367 C44.91181,34.5011983 44.8093391,34.7312129 44.7461124,34.8587565 L44.9717664,34.9721286 C45.0458943,34.8206024 45.1799786,34.5328117 45.0949496,34.3496722 C45.2562868,34.3409512 45.4099932,34.2559222 45.4863013,34.1011257 C45.6018536,33.8732914 45.5081036,33.5942216 45.2802693,33.4808495 L45.2802693,33.4808495 Z M41.6414612,32.6654425 C41.5520717,32.9063582 41.3155164,33.0382623 41.1138449,32.9641344 C40.9132635,32.8867361 40.8216938,32.6338291 40.9110833,32.3929135 C41.0004728,32.1552681 41.237028,32.0211838 41.4386996,32.097492 C41.639281,32.1716199 41.7308507,32.4277972 41.6414612,32.6654425 L41.6414612,32.6654425 Z M41.5346298,31.8413146 C41.1923333,31.7115908 40.7988013,31.9187129 40.6559961,32.2969832 C40.5131909,32.6785239 40.6767083,33.091678 41.0179147,33.2192216 C41.3602112,33.3467652 41.7537432,33.1429135 41.8965484,32.7613728 C42.0393536,32.3809222 41.8758362,31.9699483 41.5346298,31.8413146 L41.5346298,31.8413146 Z M39.6694409,31.882739 L39.126563,31.7115908 L39.2421153,31.3518524 L39.782813,31.5230007 C39.8831036,31.5524338 39.9376095,31.6592652 39.9059961,31.7584658 C39.8743827,31.8587565 39.7697315,31.9143524 39.6694409,31.882739 L39.6694409,31.882739 Z M39.8852839,31.2668233 L39.0840484,31.0160966 L38.6196589,32.4125355 L38.8823769,32.4932041 L39.0458943,31.9721286 L39.586592,32.144367 C39.680342,32.331867 39.6171153,32.576053 39.5735106,32.7123175 L39.8144263,32.7875355 C39.8634815,32.6272885 39.9528711,32.323146 39.8384089,32.1552681 C39.9953856,32.1203844 40.1338304,32.0124629 40.1872461,31.8478553 C40.2635542,31.6036693 40.1294699,31.3431315 39.8852839,31.2668233 L39.8852839,31.2668233 Z M37.8347751,31.347492 L37.2853565,31.2046867 L37.3812868,30.8394978 L37.9307054,30.9812129 C38.029906,31.0073757 38.0920426,31.1098466 38.0647897,31.2112274 C38.0386269,31.3115181 37.9372461,31.3736547 37.8347751,31.347492 L37.8347751,31.347492 Z M38.0179147,30.7217652 L37.204688,30.5113728 L36.8144263,31.929614 L37.0804147,31.9993815 L37.2166792,31.469585 L37.7879001,31.6156605 C38.0342664,31.6799774 38.2860833,31.5328117 38.34931,31.2842652 C38.4136269,31.0368088 38.264281,30.786082 38.0179147,30.7217652 L38.0179147,30.7217652 Z M34.2450222,30.0764164 L35.3067955,30.2573757 L35.264281,30.5070123 L34.4510542,30.3685675 L34.4129001,30.5964018 L35.096403,30.7130443 L35.0538885,30.9605007 L34.3703856,30.8427681 L34.3126095,31.1752536 L35.151999,31.320239 L35.1094845,31.5676954 L34.0215484,31.3823757 L34.2450222,30.0764164 Z M32.0538885,29.6556315 L32.4201676,29.6872449 L32.292624,31.1523611 L32.0408071,31.1305588 L32.1280164,30.1254716 L31.7475659,31.1054861 L31.5175513,31.085864 L31.3104292,30.0535239 L31.2232199,31.0607914 L30.9724932,31.0368088 L31.1000368,29.5716925 L31.4663159,29.604396 L31.6723478,30.6345559 L32.0538885,29.6556315 Z M29.3667519,30.6945123 L30.4383362,30.7304861 L30.4296153,31.0051954 L29.105124,30.9583204 L29.1563595,29.4866635 L30.4165339,29.5313582 L30.407813,29.8038873 L29.3983653,29.7700937 L29.3907345,30.0644251 L30.2290339,30.0938582 L30.220313,30.344585 L29.3798333,30.3151518 L29.3667519,30.6945123 Z M27.9038159,30.692332 L27.5059234,30.6988728 L27.4895717,29.7744541 L27.8896443,29.7657332 C28.1087577,29.7613728 28.2918972,29.9379716 28.2962577,30.1592652 L28.298438,30.2857187 C28.3006182,30.504832 28.1261996,30.6879716 27.9038159,30.692332 L27.9038159,30.692332 Z M27.9038159,29.4932041 L27.2126821,29.5062855 L27.2377548,30.9779425 L27.9321589,30.9648611 C28.2788159,30.9583204 28.5557054,30.6705297 28.5491647,30.3238728 L28.5469845,30.1134803 C28.5404438,29.763553 28.2537432,29.4866635 27.9038159,29.4932041 L27.9038159,29.4932041 Z M26.1541792,30.2148611 L25.5873188,30.2551954 L25.5622461,29.8791053 L26.1280164,29.838771 C26.2326676,29.8322303 26.3220571,29.9107187 26.3285978,30.0153699 C26.3373188,30.1189309 26.2588304,30.2083204 26.1541792,30.2148611 L26.1541792,30.2148611 Z M26.1280164,29.5640617 L25.2918972,29.622928 L25.3725659,31.0924047 L25.6450949,31.0727826 L25.6069409,30.5277245 L26.1738013,30.4873902 C26.3285978,30.6301954 26.358031,30.879832 26.3689321,31.0226373 L26.620749,31.0051954 C26.6076676,30.8394978 26.5782345,30.5222739 26.4114467,30.4067216 C26.545531,30.3195123 26.6349205,30.1658059 26.6229292,29.9935675 C26.6054874,29.7384803 26.3841938,29.5466199 26.1280164,29.5640617 L26.1280164,29.5640617 Z M24.1396443,30.95396 C23.9270717,30.9790326 23.7286705,30.7958931 23.6970571,30.5429861 C23.667624,30.2900791 23.8136996,30.0622449 24.0273624,30.036082 C24.239935,30.0110094 24.4383362,30.1941489 24.4699496,30.4470559 C24.5015629,30.701053 24.3533071,30.9288873 24.1396443,30.95396 L24.1396443,30.95396 Z M23.9946589,29.7657332 C23.63056,29.8082478 23.3776531,30.1723466 23.4267083,30.5745995 C23.4757635,30.9790326 23.8104292,31.2690036 24.1745281,31.2243088 C24.5364467,31.1817943 24.7915339,30.8176954 24.7402984,30.4154425 C24.6912432,30.0110094 24.3565775,29.7210385 23.9946589,29.7657332 L23.9946589,29.7657332 Z"></path>
    </g>
</svg>