<svg xmlns="http://www.w3.org/2000/svg" width="75" height="75" viewBox="0 0 75 75">
    <g fill="none" fill-rule="evenodd">
        <path fill="#002B9E" fill-rule="nonzero" d="M74.1892856,36.5625 C74.1892856,16.3697844 57.58125,2.64677169e-13 37.0946428,2.64677169e-13 C16.6080357,2.64677169e-13 8.8817842e-15,16.3697844 8.8817842e-15,36.5625 C8.8817842e-15,56.7552157 16.6080357,73.125 37.0946428,73.125 C57.58125,73.125 74.1892856,56.7552157 74.1892856,36.5625"/>
        <path fill="#FFF" fill-rule="nonzero" d="M1.09660714,45.362988 L19.2376786,45.362988 L19.2376786,68.6173927 C23.8421429,71.2038555 30.4492857,73.1250018 36.7930357,73.1250018 C37.4876786,73.1250018 37.9876785,73.1030006 38.8805359,73.0651582 L38.8805359,45.362988 L73.1073214,45.362988 C73.8439286,42.7140416 74.1894641,39.1348837 74.1894641,35.7431764 C74.1894641,32.3074666 73.698393,28.6420641 72.7992859,26.0019182 L38.8805359,26.0019182 L38.8805359,0.059845005 C37.9876785,0.022002915 37.4876786,1.70250083e-06 36.7930357,1.70250083e-06 C31.1573214,1.70250083e-06 24.9832143,1.37903789 19.2376786,4.50761075 L19.2376786,26.0019182 L1.39035714,26.0019182 C0.49125,28.6420641 0.000178571428,32.3074666 0.000178571428,35.7431764 C0.000178571428,39.1348837 0.219821428,42.7228421 1.09660714,45.362988"/>
        <path fill="#E13200" fill-rule="nonzero" d="M0.236071429,41.0985933 L24.595,41.0985933 L24.595,71.1841665 C27.2735714,72.2877866 30.845,72.9905722 34.4164286,73.2466121 L34.4164286,41.0985933 L73.9146427,41.0985933 C74.1360713,38.4499046 74.189643,37.544936 74.189643,35.8639015 C74.189643,34.1387222 74.0601787,33.1525271 73.8271429,30.5038383 L34.4164286,30.5038383 L34.4164286,0.121612121 C30.845,0.377652037 27.2735714,1.08043746 24.595,2.18405779 L24.595,30.5038383 L0.361964286,30.5038383 C0.129821429,33.1525271 0.000357142857,34.1387222 0.000357142857,35.8639015 C0.000357142857,37.544936 0.0146428571,38.4499046 0.236071429,41.0985933"/>
    </g>
</svg>