<svg xmlns="http://www.w3.org/2000/svg" width="75" height="75" viewBox="0 0 75 75">
    <g>
        <path d="M2.1,24.4h70.8C68,10.8,55.1,0.9,39.7,0h-4.3C19.9,0.9,7,10.8,2.1,24.4"></path>
            <g transform="translate(0 20.571)">
                <path fill="#DB0C1B" d="M2.1,29.1h70.8c1.4-3.6,2.1-8.3,2.1-12.7s-0.8-8.1-2.1-12.6H2.1c-1.3,4.5-2.1,8.3-2.1,12.7S0.8,25.5,2.1,29.1"></path>
            </g>
        <path fill="#FFCE0D" d="M35.3,75h4.3C55.1,74.1,68,64.2,72.9,49.7H2.1C7,64.2,19.9,74.1,35.3,75"></path>
    </g>
</svg>