<svg xmlns="http://www.w3.org/2000/svg" width="96" height="96" viewBox="0 0 96 96">
    <path fill="#DDD" fill-rule="evenodd" d="M61.204461,51.9256506
        C61.5613383,50.6765799 61.739777,49.2490706 61.739777,47.8215613
        C61.739777,39.7918216 55.3159851,33.3680297 47.2862454,33.3680297
        C39.2565056,33.3680297 32.8327138,39.7918216 32.8327138,47.8215613
        C32.8327138,55.8513011 39.2565056,62.2750929 47.2862454,62.2750929
        C48.7137546,62.2750929 50.1412639,62.0966543 51.5687732,61.5613383
        L49.2490706,59.2416357 C48.7137546,59.4200743 48,59.4200743
        47.2862454,59.4200743 C40.8624535,59.4200743 35.6877323,54.2453532
        35.6877323,47.8215613 C35.6877323,41.3977695 40.8624535,36.2230483
        47.2862454,36.2230483 C53.7100372,36.2230483 58.8847584,41.3977695
        58.8847584,47.8215613 C58.8847584,48.3568773 58.8847584,49.070632
        58.7063197,49.605948 L61.204461,51.9256506 Z M50.4981413,63.8810409
        C41.5762082,65.6654275 33.0111524,59.9553903 31.2267658,51.0334572
        C29.4423792,42.1115242 35.1524164,33.5464684 44.0743494,31.7620818
        C52.9944981,29.9776952 61.5613383,35.6877323 63.3457249,44.6096654
        C64.0594796,47.6431227 63.7008178,50.8550186 62.6319703,53.5315985
        L66.9144981,57.8141264 L66.9144981,57.6356877 C67.4498141,56.7434944
        67.8066914,55.8513011 68.1617844,54.7806691 C68.3420074,54.4237918
        68.5204461,54.2453532 68.8773234,54.4237918 L71.197026,54.9591078
        C71.5539033,54.9591078 71.7305576,54.7806691 71.9107807,54.6022305
        L72.4460967,51.0334572 C72.4460967,50.6765799 72.267658,50.4981413
        72.0892193,50.3197026 L69.7695167,49.7843866 C69.4126394,49.7843866
        69.2342007,49.4275093 69.2342007,49.070632 L69.2342007,46.0371747
        C69.2342007,45.6802974 69.4126394,45.5018587 69.7695167,45.3234201
        L72.0892193,44.7881041 C72.4460967,44.7881041 72.6227509,44.4312268
        72.4460967,44.0743494 L71.7305576,40.6840149 C71.7305576,40.3271375
        71.3754647,40.1486989 71.0185874,40.3271375 L68.8773234,41.2193309
        C68.5204461,41.2193309 68.3420074,41.0408922 68.1617844,40.8624535
        C67.8066914,39.7918216 67.4498141,38.8996283 66.9144981,38.0074349
        C66.7360595,37.8289963 66.9144981,37.472119 67.0929368,37.2936803
        L69.0539777,36.0446097 C69.2342007,35.866171 69.4126394,35.5092937
        69.2342007,35.330855 L67.2695911,32.4758364 C67.0929368,32.2973978
        66.7360595,32.1189591 66.5576208,32.2973978 L64.5930112,33.5464684
        C64.4163569,33.7249071 64.0594796,33.7249071 63.8810409,33.3680297
        C63.1672862,32.6542751 62.4535316,31.9405204 61.739777,31.2267658
        C61.5613383,31.0483271 61.3828996,30.6914498 61.5613383,30.5130112
        L62.8086245,28.5501859 C62.9888476,28.3717472 62.9888476,28.0148699
        62.6319703,27.8364312 L59.7769517,26.0520446 C59.598513,25.8736059
        59.2398513,25.8736059 59.063197,26.2304833 L57.8141264,27.8364312
        C57.6356877,28.0148699 57.2788104,28.1933086 57.1003717,28.0148699
        C56.2081784,27.4795539 55.3159851,27.1226766 54.2453532,26.7657993
        C53.8866914,26.5873606 53.7100372,26.4089219 53.8866914,26.0520446
        L54.4237918,23.732342 C54.4237918,23.3754647 54.2453532,23.197026
        54.0669145,23.0185874 L50.6765799,22.3048327 C50.3179182,22.3048327
        50.1412639,22.4832714 49.9628253,22.66171 L49.4257249,24.9814126
        C49.4257249,25.33829 49.070632,25.5167286 48.7137546,25.5167286
        L45.6802974,25.5167286 C45.3234201,25.5167286 45.1449814,25.33829
        44.9665428,24.9814126 L44.4312268,22.66171 C44.4312268,22.3048327
        44.0743494,22.1263941 43.7174721,22.3048327 L40.3271375,23.0185874
        C39.9702602,23.0185874 39.7918216,23.3754647 39.9702602,23.732342
        L40.5055762,26.0520446 C40.5055762,26.4089219 40.3271375,26.5873606
        40.1486989,26.7657993 C39.0780669,27.1226766 38.1858736,27.4795539
        37.2936803,28.0148699 C37.1152416,28.1933086 36.7583643,28.0148699
        36.5799257,27.8364312 L35.330855,26.0520446 C35.1524164,25.8736059
        34.795539,25.6951673 34.6171004,25.8736059 L31.7620818,27.8364312
        C31.5836431,28.0148699 31.4052045,28.3717472 31.5836431,28.5501859
        L32.8327138,30.5130112 C33.0111524,30.6914498 33.0111524,31.0483271
        32.6542751,31.2267658 C31.9405204,31.9405204 31.2267658,32.6542751
        30.5130112,33.3680297 C30.3345725,33.5464684 29.9776952,33.7249071
        29.7992565,33.5464684 L27.8364312,32.2973978 C27.6579926,32.1189591
        27.3011152,32.1189591 27.1226766,32.4758364 L25.33829,35.330855
        C25.1598513,35.5092937 25.1598513,35.866171 25.5167286,36.0446097
        L27.4795539,37.2936803 C27.6579926,37.472119 27.8364312,37.8289963
        27.6579926,38.0074349 C27.1226766,38.8996283 26.7657993,39.7918216
        26.4089219,40.8624535 C26.2304833,41.2193309 26.0520446,41.3977695
        25.6951673,41.2193309 L23.3754647,40.6840149 C23.0185874,40.6840149
        22.8401487,40.8624535 22.66171,41.0408922 L21.9479554,44.4312268
        C21.9479554,44.7881041 22.1263941,44.9665428 22.3048327,45.1449814
        L24.6245353,45.6802974 C24.9814126,45.6802974 25.1598513,46.0371747
        25.1598513,46.394052 L25.1598513,49.4275093 C25.1598513,49.7843866
        24.9814126,49.9628253 24.6245353,50.1412639 L22.3048327,50.6765799
        C21.9479554,50.6765799 21.7695167,51.0334572 21.9479554,51.3903346
        L22.66171,54.7806691 C22.66171,55.1375465 23.0185874,55.3159851
        23.3754647,55.1375465 L25.6951673,54.6022305 C26.0520446,54.6022305
        26.2304833,54.7806691 26.4089219,54.9591078 C26.7657993,56.0297398
        27.1226766,56.9219331 27.6579926,57.8141264 C27.8364312,57.9925651
        27.6579926,58.3494424 27.4795539,58.527881 L25.5167286,59.7769517
        C25.33829,59.9553903 25.1598513,60.3122677 25.33829,60.4907063
        L27.3011152,63.3457249 C27.4795539,63.5241636 27.8364312,63.7026022
        28.0148699,63.5241636 L29.9776952,62.2750929 C30.1561338,62.0966543
        30.5130112,62.0966543 30.6914498,62.4535316 C31.4052045,63.1672862
        32.1189591,63.8810409 32.8327138,64.5947955 C33.0111524,64.7732342
        33.1895911,65.1301115 33.0111524,65.3085502 L31.7620818,67.0929368
        C31.5836431,67.2713755 31.5836431,67.6282528 31.9405204,67.8066914
        L34.795539,69.5910781 C34.9739777,69.7695167 35.330855,69.7695167
        35.5092937,69.4126394 L36.7583643,67.4498141 C36.936803,67.2713755
        37.2936803,67.0929368 37.472119,67.2713755 C38.3643123,67.8066914
        39.2565056,68.1635688 40.3271375,68.5204461 C40.6840149,68.6988848
        40.8624535,68.8773234 40.6840149,69.2342007 L40.3271375,71.5539033
        C40.3271375,71.9107807 40.5055762,72.0892193 40.6840149,72.267658
        L44.0743494,72.9814126 C44.4312268,72.9814126 44.6096654,72.802974
        44.7881041,72.6245353 L45.3234201,70.3048327 C45.3234201,69.9479554
        45.6802974,69.7695167 46.0371747,69.7695167 L49.070632,69.7695167
        C49.4257249,69.7695167 49.605948,69.9479554 49.7843866,70.3048327
        L50.3179182,72.6245353 C50.3179182,72.9814126 50.6765799,73.1598513
        51.0334572,72.9814126 L54.4237918,72.267658 C54.7788848,72.267658
        54.9591078,71.9107807 54.7788848,71.5539033 L54.2453532,69.2342007
        C54.2453532,68.8773234 54.4237918,68.6988848 54.6022305,68.5204461
        C55.6710781,68.1635688 56.5632714,67.8066914 57.4554647,67.2713755
        L57.6356877,67.2713755 L53.3531599,62.9888476 C52.2825279,63.5241636
        51.3903346,63.7026022 50.4981413,63.8810409 L50.4981413,63.8810409 Z
        M74.5873606,62.9888476 C72.267658,60.669145 69.0539777,60.133829
        66.2007435,61.0260223 L55.4944238,50.3197026 C56.3866171,47.464684
        55.6710781,44.2527881 53.5315985,41.9330855 C51.2101115,39.6133829
        48,39.0780669 45.1449814,39.9702602 L49.4257249,44.2527881
        C50.4981413,45.3234201 49.9628253,46.5724907 48.8921933,47.464684
        L47.2862454,49.070632 C46.2156134,50.1412639 44.9665428,50.4981413
        44.0743494,49.605948 L39.7918216,45.3234201 C38.8996283,48.1784387
        39.6133829,51.3903346 41.7546468,53.7100372 C44.0743494,56.0297398
        47.2862454,56.5650558 50.1412639,55.6728625 L60.8475836,66.3791822
        C59.9553903,69.2342007 60.669145,72.4460967 62.8086245,74.7657993
        C65.1301115,77.0855019 68.3420074,77.6208178 71.197026,76.7286245
        L67.0929368,72.4460967 C66.0223048,71.3754647 66.5576208,70.1263941
        67.6282528,69.2342007 L69.2342007,67.6282528 C70.3048327,66.5576208
        71.5539033,66.2007435 72.4460967,67.0929368 L76.7286245,71.3754647
        C77.4423792,68.5204461 76.9070632,65.3085502 74.5873606,62.9888476
        L74.5873606,62.9888476 Z M48,0 C74.5088476,0 96,21.489368 96,48
        C96,74.5088476 74.5088476,96 48,96 C21.489368,96 0,74.5088476 0,48
        C0,21.489368 21.489368,0 48,0 L48,0 Z" />
</svg>