<svg xmlns="http://www.w3.org/2000/svg" width="581" height="220" viewBox="0 0 581 220">
  <metadata><?xpacket begin="﻿" id="W5M0MpCehiHzreSzNTczkc9d"?>
<x:xmpmeta xmlns:x="adobe:ns:meta/" x:xmptk="Adobe XMP Core 5.6-c140 79.160451, 2017/05/06-01:08:21        ">
   <rdf:RDF xmlns:rdf="http://www.w3.org/1999/02/22-rdf-syntax-ns#">
      <rdf:Description rdf:about=""/>
   </rdf:RDF>
</x:xmpmeta>
                                                                                                    
                                                                                                    
                                                                                                    
                                                                                                    
                                                                                                    
                                                                                                    
                                                                                                    
                                                                                                    
                                                                                                    
                                                                                                    
                                                                                                    
                                                                                                    
                                                                                                    
                                                                                                    
                                                                                                    
                                                                                                    
                                                                                                    
                                                                                                    
                                                                                                    
                                                                                                    
                           
<?xpacket end="w"?></metadata>
<defs>
    <style>
      .cls-1 {
        fill: #fff;
        fill-rule: evenodd;
      }
    </style>
  </defs>
  <path id="CMAX_copy" data-name="CMAX copy" class="cls-1" d="M394.108,364.991l2.959,9.218h9.581l-7.751,5.7,2.962,9.215-7.751-5.7-7.753,5.7,2.961-9.215-7.755-5.7h9.584ZM470.519,396.9l-4.352,8.632,6.775,6.854-9.467-1.516-4.35,8.633-1.5-9.57-9.469-1.514,8.541-4.4-1.5-9.574,6.773,6.851Zm0.154,156.027-8.539-4.4-6.775,6.851,1.5-9.576-8.536-4.393,9.462-1.518,1.5-9.571,4.35,8.631,9.468-1.51-6.78,6.853ZM394.327,585l-2.96-9.216h-9.581l7.746-5.695-2.959-9.218,7.754,5.7,7.752-5.7-2.963,9.218,7.755,5.695h-9.584Zm-76.41-31.914,4.35-8.629-6.776-6.857,9.468,1.519,4.349-8.634,1.5,9.568,9.465,1.516-8.535,4.4,1.494,9.576-6.776-6.852Zm-0.154-156.027,8.536,4.4,6.777-6.851-1.5,9.573,8.539,4.4-9.465,1.516-1.5,9.571-4.348-8.632-9.472,1.512,6.78-6.852Zm-21.155,34.382,9.447,1.609,4.435-8.588,1.407,9.585,9.45,1.613-8.583,4.309,3.046,9.066-8.343-6.4-8.589,4.312,4.436-8.591ZM435.29,373.2l-0.736,9.66,8.864,3.7-9.323,2.281-0.732,9.659-5.022-8.257-9.313,2.283,6.208-7.386-5.018-8.252,8.862,3.695Zm0.524,203.384-6.234-7.359-8.849,3.721,4.99-8.271-6.231-7.358,9.32,2.248,5-8.268,0.762,9.657,9.323,2.249-8.845,3.723Zm-82.67.219,0.734-9.663-8.857-3.692,9.313-2.282,0.737-9.658,5.025,8.252,9.315-2.275-6.213,7.383,5.018,8.249-8.86-3.694Zm-0.523-203.383,6.235,7.356,8.848-3.724-4.992,8.277,6.232,7.355-9.321-2.246L354.63,398.7l-0.769-9.657-9.32-2.248,8.842-3.725ZM178.337,454.274l-9.8,9.453q-10-10.695-22.51-10.695a24.051,24.051,0,0,0-17.782,7.3,24.571,24.571,0,0,0-7.227,17.992,26.834,26.834,0,0,0,3.2,13.225,23.092,23.092,0,0,0,9.054,9.073,26.079,26.079,0,0,0,13.007,3.292,26.556,26.556,0,0,0,11.154-2.3q5.048-2.305,11.1-8.387l9.5,10.027q-8.16,8.055-15.418,11.169a41.712,41.712,0,0,1-16.573,3.116q-17.174,0-28.109-11.013T107,478.3a39,39,0,0,1,4.979-19.8,37.258,37.258,0,0,1,14.269-13.922,39.908,39.908,0,0,1,20-5.263,41.439,41.439,0,0,1,17.547,3.891,42,42,0,0,1,14.544,11.068m50.966,6.3h13.668v55.081H229.3v-5.821a26.8,26.8,0,0,1-8.027,5.545,22.259,22.259,0,0,1-8.726,1.694q-10.551,0-18.253-8.279t-7.7-20.576q0-12.76,7.45-20.91a23.629,23.629,0,0,1,18.1-8.152,22.766,22.766,0,0,1,9.2,1.875,25.071,25.071,0,0,1,7.951,5.621v-6.078Zm-14.368,11.341a13.743,13.743,0,0,0-10.529,4.531,16.434,16.434,0,0,0-4.19,11.618,16.6,16.6,0,0,0,4.266,11.745,13.748,13.748,0,0,0,10.5,4.608,14,14,0,0,0,10.677-4.531q4.242-4.53,4.243-11.872,0-7.19-4.243-11.645a14.173,14.173,0,0,0-10.726-4.454m75.195-3.644-8.46,8.555q-5.16-5.164-9.363-5.163a5.838,5.838,0,0,0-3.6.988,2.972,2.972,0,0,0-1.3,2.452,3.036,3.036,0,0,0,.827,2.052,15.318,15.318,0,0,0,4.079,2.556l5.008,2.532q7.908,3.949,10.861,8.051a16.9,16.9,0,0,1-2.377,21.868q-5.328,4.911-14.293,4.912a22.633,22.633,0,0,1-19.024-9.417l8.41-9.266a19.459,19.459,0,0,0,5.633,4.582,12.351,12.351,0,0,0,5.732,1.746,6.781,6.781,0,0,0,4.355-1.314,3.831,3.831,0,0,0,1.653-3.039q0-3.187-5.958-6.227l-4.6-2.33q-13.216-6.73-13.219-16.857a14.7,14.7,0,0,1,4.983-11.164,17.966,17.966,0,0,1,12.74-4.632,22.017,22.017,0,0,1,17.923,9.115m10.263-7.7h13.67v55.081h-13.67V460.578Zm26.085,0h13.67v5.646a32.63,32.63,0,0,1,8.424-5.514,20.157,20.157,0,0,1,7.724-1.55,18.6,18.6,0,0,1,13.748,5.72q4.746,4.861,4.747,14.378v36.4H361.272V491.536q0-9.857-.874-13.1a8.965,8.965,0,0,0-3.045-4.93,8.455,8.455,0,0,0-5.37-1.7,9.99,9.99,0,0,0-7.117,2.809,15,15,0,0,0-4.12,7.761q-0.6,2.58-.6,11.174v22.1h-13.67V460.577Zm87.112-1.418a28.634,28.634,0,0,1,14.494,3.9,28.023,28.023,0,0,1,10.589,10.583,28.668,28.668,0,0,1,3.805,14.428,29.162,29.162,0,0,1-3.829,14.579,27.789,27.789,0,0,1-10.439,10.607,28.591,28.591,0,0,1-14.57,3.822,27.032,27.032,0,0,1-20-8.427,29.421,29.421,0,0,1,1.076-42,27.185,27.185,0,0,1,18.873-7.493m0.226,13.012a13.994,13.994,0,0,0-10.608,4.48,16.014,16.014,0,0,0-4.236,11.466q0,7.19,4.186,11.645a13.936,13.936,0,0,0,10.607,4.456,14.107,14.107,0,0,0,10.684-4.507,16.2,16.2,0,0,0,4.26-11.594q0-7.083-4.186-11.517a14.078,14.078,0,0,0-10.707-4.429m51.377-30.984h13.658l17.074,51.941,17.224-51.941H526.8l12.357,74.47H525.6l-7.9-47.03-15.644,47.03H489.7L474.2,468.627l-8.085,47.03H452.443Zm123.828,19.389h13.668v55.081H589.021v-5.821a26.8,26.8,0,0,1-8.028,5.545,22.265,22.265,0,0,1-8.725,1.694q-10.553,0-18.253-8.279t-7.7-20.576q0-12.76,7.451-20.91a23.623,23.623,0,0,1,18.1-8.152,22.751,22.751,0,0,1,9.2,1.875,25.1,25.1,0,0,1,7.954,5.621v-6.078Zm-14.368,11.341a13.743,13.743,0,0,0-10.529,4.531,16.434,16.434,0,0,0-4.191,11.618,16.608,16.608,0,0,0,4.264,11.745,13.755,13.755,0,0,0,10.5,4.608,14,14,0,0,0,10.678-4.531q4.24-4.53,4.243-11.872,0-7.19-4.243-11.645a14.179,14.179,0,0,0-10.726-4.454m36.946-11.34h15.87l10.767,15.012,10.712-15.012h15.6L646.058,486.5l20.914,29.16H651.1L638.146,497.59l-12.894,18.068H609.646l20.674-28.977Zm67.665-22.68a8.318,8.318,0,0,1,6.163,2.631,8.8,8.8,0,0,1,2.57,6.381,8.679,8.679,0,0,1-2.546,6.3,8.213,8.213,0,0,1-6.089,2.606,8.332,8.332,0,0,1-6.218-2.657,8.943,8.943,0,0,1-2.567-6.455,8.539,8.539,0,0,1,2.544-6.226,8.313,8.313,0,0,1,6.143-2.581m-6.837,22.681h13.667v55.081H672.427V460.578Z" transform="translate(-107 -365)"/>
</svg>
