<?xml version="1.0" encoding="utf-8"?>
<svg version="1.1" xmlns="http://www.w3.org/2000/svg" viewBox="0 0 64 32">
<path fill="#e2e2e2" d="M12.258 9.182c-4.308 0-6.252 2.585-6.252 2.585v-11.643h-6.018v31.409h5.551v-2.314c0 0 2.068 2.609 6.56 2.609s10.388-3.508 10.388-11.188c0-7.692-5.92-11.458-10.228-11.458zM11.138 26.88c-1.563 0-5.662-1.083-5.662-6.191 0-5.12 4.012-6.314 5.662-6.314s5.551 1.132 5.551 6.252c0 5.132-3.988 6.252-5.551 6.252z"></path>
<path fill="#eec983" d="M35.422 0.123h-4.935c0 5.957-5.969 5.982-5.969 5.982v3.963h4.738v21.809h6.166v-31.754z"></path>
<path fill="#eec983" d="M64 16.025c0 0 0.332-15.828-11.582-15.828-11.926 0-11.495 16.049-11.495 16.049s-0.148 15.618 11.631 15.618c11.778-0.012 11.446-15.84 11.446-15.84zM52.505 26.462c-5.809 0-5.735-10.289-5.735-10.289s-0.209-10.572 5.674-10.572 5.723 10.437 5.723 10.437 0.148 10.425-5.662 10.425z"></path>
</svg>
