<svg xmlns="http://www.w3.org/2000/svg" viewBox="0 0 445.4 109.8"><defs><style>.a{fill:#a68754;}.b{fill:#dfc78e;}</style></defs><title>cmet-logo-colored</title><path class="a" d="M213.7,33.7a16.3,16.3,0,0,0,9.5-3.1V26.2a13.2,13.2,0,0,1-9.7,4.2,12.5,12.5,0,0,1-9.1-3.8,12.4,12.4,0,0,1-3.8-9.3A13,13,0,0,1,213.5,4.2a13.2,13.2,0,0,1,9.7,4.2V4.1A15.5,15.5,0,0,0,213.7,1a15.9,15.9,0,0,0-11.8,4.8A15.6,15.6,0,0,0,197,17.5,15.7,15.7,0,0,0,201.9,29,16.4,16.4,0,0,0,213.7,33.7Z"/><path class="a" d="M251.6,24.2h13.6l3.8,9h4L258.6,0,243.8,33.2h3.9Zm6.9-16,5.3,12.7H253Z"/><path class="a" d="M311,23.9a7.5,7.5,0,0,0-2.3-5.6,15.6,15.6,0,0,0-5.2-3.2l-2.1-1a10.6,10.6,0,0,1-3.3-1.8,3.8,3.8,0,0,1-1.6-3.1A4.7,4.7,0,0,1,298,5.7a5.5,5.5,0,0,1,3.7-1.4c2.3,0,4.1,1.2,5.4,3.5L309.9,6a9.4,9.4,0,0,0-14.3-2.7A7.2,7.2,0,0,0,293,9.1a7,7,0,0,0,2,5.1,13.2,13.2,0,0,0,4.8,2.9l1.9.9a19.4,19.4,0,0,1,4,2.2,5.2,5.2,0,0,1,1.8,4,5.3,5.3,0,0,1-1.9,4.4,6.5,6.5,0,0,1-4.6,1.8,5.8,5.8,0,0,1-4.1-1.7,6.8,6.8,0,0,1-2.1-4.2l-3.4,1a9.9,9.9,0,0,0,3.4,5.9,9,9,0,0,0,6.3,2.2,9.2,9.2,0,0,0,7-2.8A9.1,9.1,0,0,0,311,23.9Z"/><rect class="a" x="330.8" y="1.5" width="3.6" height="31.66"/><polygon class="a" points="361 9.4 382.7 35.3 382.7 2.2 379.6 2.2 379.6 26.7 357.9 0.8 357.9 33.8 361 33.8 361 9.4"/><path class="a" d="M419.6,33.7A16.4,16.4,0,0,0,431.4,29a15.7,15.7,0,0,0,4.8-11.6,15.3,15.3,0,0,0-4.8-11.6A16.3,16.3,0,0,0,419.6,1a15.9,15.9,0,0,0-11.8,4.8,15.4,15.4,0,0,0-4.9,11.6A15.4,15.4,0,0,0,407.8,29,16.2,16.2,0,0,0,419.6,33.7ZM410.3,8.1a12.2,12.2,0,0,1,9.3-3.9,12.9,12.9,0,0,1,9.3,3.9,12.6,12.6,0,0,1,3.8,9.2,13,13,0,0,1-3.8,9.3,13.3,13.3,0,0,1-18.6,0,13,13,0,0,1-3.8-9.3A12.2,12.2,0,0,1,410.3,8.1Z"/><polygon class="b" points="113.8 108.6 146.2 108.6 146.2 98.6 125.3 98.6 125.3 83.4 146 83.4 146 73.8 125.3 73.8 125.3 59.2 146.4 59.2 146.4 48.9 113.8 48.9 113.8 108.6"/><polygon class="b" points="153.7 59.3 166 59.3 166 108.6 177.5 108.6 177.5 59.3 189.8 59.3 189.8 48.9 153.7 48.9 153.7 59.3"/><path class="b" d="M231.3,77.7a15.2,15.2,0,0,0,4-10.9,17.3,17.3,0,0,0-16.7-17.9H196.5v59.7h11.3V83.1l17.9,25.5h14.6L220.6,83.4A19.4,19.4,0,0,0,231.3,77.7Zm-16.5-1.4h-7V58.2h6.1q9.6,0,9.6,8.7a10.4,10.4,0,0,1-2.3,6.8A8.6,8.6,0,0,1,214.8,76.3Z"/><path class="b" d="M269.6,47.6a30.7,30.7,0,0,0-31.1,31.2,30.1,30.1,0,0,0,9,21.9,29.1,29.1,0,0,0,21.9,9.1,30.6,30.6,0,0,0,22.3-9.1,29.8,29.8,0,0,0,9.2-22,31.2,31.2,0,0,0-31.3-31.1Zm14,45.4a19.2,19.2,0,0,1-14.1,5.8,18.1,18.1,0,0,1-14-5.8,19.8,19.8,0,0,1-5.6-14.2,20,20,0,0,1,5.5-14.5c3.6-3.8,8.4-5.7,14.2-5.7a18.9,18.9,0,0,1,14.2,5.7,20.4,20.4,0,0,1,5.5,14.5A19.5,19.5,0,0,1,283.6,93Z"/><path class="b" d="M326.5,48.9H305.8v59.7h11.5V85.2h9.4a17.1,17.1,0,0,0,13-5.2c3.3-3.4,4.9-7.8,4.9-13.2a17.3,17.3,0,0,0-18.1-17.9Zm-2.4,27.2h-7V57.7h6.4c6.4,0,9.6,3.1,9.6,9.2S330.1,76.1,324.1,76.1Z"/><path class="b" d="M378.9,47.6a30.7,30.7,0,0,0-31.1,31.2,30.1,30.1,0,0,0,9,21.9,29.1,29.1,0,0,0,21.9,9.1,30.6,30.6,0,0,0,22.3-9.1,29.8,29.8,0,0,0,9.2-22,31.2,31.2,0,0,0-31.3-31.1Zm14,45.4a19.2,19.2,0,0,1-14.1,5.8,18.1,18.1,0,0,1-14-5.8,19.8,19.8,0,0,1-5.6-14.2c0-5.9,1.8-10.7,5.5-14.5s8.3-5.7,14.2-5.7a18.9,18.9,0,0,1,14.2,5.7,20.4,20.4,0,0,1,5.5,14.5A19.5,19.5,0,0,1,392.9,93Z"/><polygon class="b" points="426.6 98.4 426.6 48.9 415.2 48.9 415.2 108.6 445.4 108.6 445.4 98.4 426.6 98.4"/><polygon class="b" points="102.6 109.6 91.7 32.7 51.3 84.9 9.4 33 0 109.6 0.4 109.4 0.2 109.7 36 92.2 33.6 89.8 18.1 92.9 18.7 69 51.3 101.7 82.9 69 83.7 92.7 68.9 89.8 66.4 92.2 102.4 109.5 102.6 109.6 102.6 109.6 102.6 109.6 102.6 109.6"/></svg>