<svg xmlns="http://www.w3.org/2000/svg" xmlns:xlink="http://www.w3.org/1999/xlink" viewBox="0 0 1221.64 320.48"><defs><style>.cls-1{fill:none;}.cls-2{fill:#fff;}.cls-3{fill:#f39;}.cls-4{clip-path:url(#clip-path);}.cls-5{fill:#ed408f;}.cls-6{fill:#53a5a5;}.cls-7{fill:#78ebed;}.cls-8{fill:#ebffff;}.cls-9{fill:#99c1be;}.cls-10{fill:#b6cecd;}.cls-11{stroke:#000;stroke-miterlimit:10;stroke-width:0;}.cls-12{fill:#591a68;}</style><clipPath id="clip-path"><path class="cls-1" d="M40.56,185.66h0S40.52,185.7,40.56,185.66Z"/></clipPath></defs><g id="Layer_2" data-name="Layer 2"><g id="Layer_1-2" data-name="Layer 1"><path class="cls-2" d="M214.8,221.48A45.24,45.24,0,0,0,193,198.42a45.08,45.08,0,0,0,10.24-31.71l-.64-8.84-8.83.7a45.2,45.2,0,0,0-28.69,13.59,45.1,45.1,0,0,0-27-19.53l-8.6-2.13-2.07,8.62a45.19,45.19,0,0,0,4.06,31.48,45.08,45.08,0,0,0-26.91,19.62l-4.68,7.52,7.55,4.63A45.78,45.78,0,0,0,130.88,229a43.85,43.85,0,0,0,7.79-.72A45.1,45.1,0,0,0,149,259.89l5.71,6.78,6.74-5.75a45.33,45.33,0,0,0,15.21-27.86,43.9,43.9,0,0,0,16.4,3.19A45.75,45.75,0,0,0,210,233l8.21-3.33Z"/><path class="cls-2" d="M355.73,66.81a45.3,45.3,0,0,0-22.88-22,45,45,0,0,0,8.71-32.16L340.5,3.86,331.71,5a45.25,45.25,0,0,0-28,14.94,45.07,45.07,0,0,0-27.88-18.2L267.14,0l-1.66,8.71A45.27,45.27,0,0,0,271.05,40a45.09,45.09,0,0,0-25.94,20.88l-4.31,7.74,7.76,4.27a45.93,45.93,0,0,0,21.61,5.49A43.54,43.54,0,0,0,280,77.21a45.08,45.08,0,0,0,11.85,31.12l6,6.5,6.46-6.07A45.32,45.32,0,0,0,318.19,80.2a43.76,43.76,0,0,0,14.4,2.45,45.89,45.89,0,0,0,18.88-4.1l8-3.73Z"/><path class="cls-2" d="M1206.76,171a57.89,57.89,0,0,0-20-6.13q0-.37-.06-.78c8.2-9,13.26-18.16,18.41-29.57,5.46-12.11,8.11-28.07,8.26-35.54,0-1.11.07-2.17.12-3.18.22-4.77.57-12-3.83-19.24-6.86-11.37-18.79-12.77-22.7-13.23a84.37,84.37,0,0,0-9.87-.64,90.57,90.57,0,0,0-14.6,1.39,33.55,33.55,0,0,0-12.94,4.38A27.73,27.73,0,0,0,1138,63.82l-1.41-.26-1.34-.08c-5.59-.37-11.69-.4-17.46-.4h-4.18c-9.74,0-17.28,3.42-22.43,10.17a25.42,25.42,0,0,0-3.61,6.53,68.4,68.4,0,0,0-19.48-10.21c-10.1-3.67-20.89-5.07-30.12-5.95-6.83-.65-14.82-.65-21.25-.65H1013c-9.72,0-17.26,3.42-22.41,10.15l-.33.46C980,66.31,967.19,62.64,951.91,62.64q-1.56,0-3.18.06h-.34c-10.68.5-19.42,3-26.95,7.78-6.82-7.15-15.8-8.13-19.68-8.19-.82,0-1.67,0-2.51,0-4.64,0-16.48.46-27,4.68A35.75,35.75,0,0,0,867.57,69c-7.23-5.17-15.63-5.9-21.7-5.94H845l-.83.06c-8.84.57-14.68.95-20.21,2.73a30.06,30.06,0,0,0-13.31,8.5c-3.56-2.68-16.34-11.11-36.69-11.7l-.8,0-.79,0c-16.23.65-26.85,4.3-39.2,13.51a59.35,59.35,0,0,0-11.32,11.37c-.74-1-1.46-2-2.16-2.84-11.39-14.29-28-21.54-49.49-21.54-1,0-2.08,0-3.16.05l-.34,0c-10.6.49-19.28,3-26.76,7.7-6.8-7.08-15.72-8.05-19.59-8.11-.82,0-1.66,0-2.49,0-4.63,0-16.42.46-26.95,4.67a33.52,33.52,0,0,0-4.55,2c-7.2-5.12-15.55-5.84-21.58-5.89H564l-.83,0c-8.8.58-14.62,1-20.13,2.73a30,30,0,0,0-14.77,10.25A59.8,59.8,0,0,0,501.6,63.68a53.15,53.15,0,0,0-22.87.07,62.47,62.47,0,0,0-22.29,9.77c-.32-.37-.65-.75-1-1.12C447.49,64,436.85,63,429.54,63h-.81l-.81,0c-8.92.57-14.81,1-20.34,2.69a30.11,30.11,0,0,0-14,9.11c-5.52-6-12.12-8.37-17.39-9.7-6.34-1.61-19.65-1.66-21.15-1.66a118.46,118.46,0,0,0-17.75,1.18l-1.06.17C324.72,66.7,313.34,71,308,89.47a147.91,147.91,0,0,0-3.54,15.18c-.5,2.62-.93,4.88-1.62,7.67l-.12.47-.1.48c-1.38,6.88-6.18,31.58-9.64,60.8l0,.31,0,.31c-.21,2.36-.41,4.66-.6,6.92-4.73-.51-10.59,2.81-17.67,18.29a45.08,45.08,0,0,0-27-19.53L239,178.25l-2.08,8.61A45.28,45.28,0,0,0,241,218.35,45,45,0,0,0,214.1,238l-4.68,7.53,7.55,4.63a45.83,45.83,0,0,0,23.41,6.57,43.81,43.81,0,0,0,7.79-.71,45,45,0,0,0,10.34,31.66l5.71,6.78,6.73-5.76a45.22,45.22,0,0,0,15.21-27.86,43.74,43.74,0,0,0,16.4,3.19,46.2,46.2,0,0,0,12.68-1.79c6.6.87,19.67,1.58,24.71,1.58a29.47,29.47,0,0,0,6-.51,33.91,33.91,0,0,0,11.22-4A31.76,31.76,0,0,0,369,263l1.2.18a57.74,57.74,0,0,0,9.41.72,84.57,84.57,0,0,0,15.74-1.54l.31-.06a44.38,44.38,0,0,0,4.46-1.12,28.79,28.79,0,0,0,13.33,3.45h3.28c18.17,0,84.79-.89,102.36-2.21,3.77-.28,9-.68,14.32-2.9a29.2,29.2,0,0,0,15.53,4.68c.82,0,1.65,0,2.48,0,4.62,0,16.41-.46,26.93-4.66a35.63,35.63,0,0,0,4.55-2c7.2,5.12,15.55,5.85,21.59,5.89h.83l.83,0c8.8-.57,14.62-1,20.13-2.73a29.9,29.9,0,0,0,15.58-11.34,40.93,40.93,0,0,0,20.46,5.43c1.16,0,2.34-.05,3.52-.14A29.66,29.66,0,0,0,681,263.85c5.5,1.52,14.09,2.21,19.75,2.21,7.21,0,12.74-1,17.38-3.12a27.08,27.08,0,0,0,13.14-12.4c10.58,9.41,24.16,14.35,39.81,14.39h.52l.52,0c14.8-.64,26.87-4.05,36.46-10.34,7,8.8,17.08,9.92,21.25,10,.81,0,1.64,0,2.48,0,4.64,0,16.48-.46,27-4.68a33.61,33.61,0,0,0,4.64-2.07c7.23,5.17,15.63,5.9,21.71,5.94h.82l.83,0c8.85-.58,14.69-1,20.22-2.74a30,30,0,0,0,15.67-11.46A41,41,0,0,0,943.89,255q1.79,0,3.6-.15a29.76,29.76,0,0,0,15.3,9.34c5.52,1.53,14.16,2.22,19.84,2.22,7.23,0,12.77-1,17.43-3.12.68-.32,1.33-.65,2-1,6.22,2,12.6,2.13,17,2.22.63,0,1.36,0,2.17,0a65,65,0,0,0,15.62-1.6,30,30,0,0,0,11.53-5.49c.66.43,1.33.84,2,1.25a40,40,0,0,0,20.06,5.05,42.23,42.23,0,0,0,14.32-2.36,40.73,40.73,0,0,0,8.23-4.08c8.37,6.91,19.82,7.17,26.61,7.32l2.14,0a65.18,65.18,0,0,0,15.6-1.58,30.22,30.22,0,0,0,11.56-5.5c.66.42,1.34.83,2,1.24a40.05,40.05,0,0,0,20.07,5,42.48,42.48,0,0,0,14.32-2.35c7.16-2.65,17.82-8.35,27.7-27.22,5.64-10.79,7.4-23.13,8.3-32.64C1221.93,195.26,1223.37,180.2,1206.76,171Z"/><path class="cls-3" d="M267.56,243.49a19.54,19.54,0,0,0,3-10.19A35.67,35.67,0,0,1,265.24,282,36.44,36.44,0,0,1,257,256a34.34,34.34,0,0,1,.67-4.49A20.26,20.26,0,0,0,267.56,243.49Z"/><path class="cls-3" d="M258.88,232.93a19.53,19.53,0,0,0,10.62-.29,35.64,35.64,0,0,1-47.93,10,36.43,36.43,0,0,1,22.11-15.88,35.79,35.79,0,0,1,4.48-.75A20.27,20.27,0,0,0,258.88,232.93Z"/><path class="cls-3" d="M266.24,221.4a19.52,19.52,0,0,0,3.56,10,35.64,35.64,0,0,1-24.3-42.5A36.42,36.42,0,0,1,267.44,205a35.37,35.37,0,0,1,2.1,4A20.2,20.2,0,0,0,266.24,221.4Z"/><path class="cls-3" d="M279.48,224.85a19.49,19.49,0,0,0-8.43,6.48A35.64,35.64,0,0,1,304,195.09a36.45,36.45,0,0,1-8.56,25.84,34.93,34.93,0,0,1-3.18,3.24A20.25,20.25,0,0,0,279.48,224.85Z"/><path class="cls-3" d="M280.29,238.5a19.54,19.54,0,0,0-8.76-6,35.66,35.66,0,0,1,44.64,20.11,35.54,35.54,0,0,1-31.3-2.18A20.19,20.19,0,0,0,280.29,238.5Z"/><path class="cls-2" d="M301.45,26.18h0Z"/><path class="cls-3" d="M158.06,215.75a19.49,19.49,0,0,0,3-10.19,35.65,35.65,0,0,1-5.33,48.66,36.42,36.42,0,0,1-8.28-25.93,34.48,34.48,0,0,1,.68-4.5A20.17,20.17,0,0,0,158.06,215.75Z"/><path class="cls-3" d="M149.38,205.18A19.57,19.57,0,0,0,160,204.9a35.66,35.66,0,0,1-47.94,10A36.46,36.46,0,0,1,134.19,199a35.49,35.49,0,0,1,4.48-.75A20.19,20.19,0,0,0,149.38,205.18Z"/><path class="cls-3" d="M156.75,193.66a19.55,19.55,0,0,0,3.55,10A35.66,35.66,0,0,1,136,161.17a36.47,36.47,0,0,1,21.93,16.12,34.67,34.67,0,0,1,2.1,4A20.18,20.18,0,0,0,156.75,193.66Z"/><path class="cls-3" d="M170,197.11a19.53,19.53,0,0,0-8.43,6.47,35.66,35.66,0,0,1,32.92-36.24,35.46,35.46,0,0,1-11.74,29.09A20.18,20.18,0,0,0,170,197.11Z"/><path class="cls-3" d="M170.79,210.76a19.51,19.51,0,0,0-8.76-6,35.65,35.65,0,0,1,44.64,20.11,36.44,36.44,0,0,1-27.22-.15,33.56,33.56,0,0,1-4.07-2A20.24,20.24,0,0,0,170.79,210.76Z"/><path class="cls-3" d="M298.78,63.8a19.58,19.58,0,0,0,2.52-10.32,35.65,35.65,0,0,1-3,48.87,36.5,36.5,0,0,1-9.51-25.52,35.82,35.82,0,0,1,.46-4.52A20.23,20.23,0,0,0,298.78,63.8Z"/><path class="cls-3" d="M289.6,53.66a19.48,19.48,0,0,0,10.6-.79,35.66,35.66,0,0,1-47.4,12.26,36.4,36.4,0,0,1,21.32-16.92,34.59,34.59,0,0,1,4.45-1A20.13,20.13,0,0,0,289.6,53.66Z"/><path class="cls-3" d="M296.41,41.8a19.49,19.49,0,0,0,4,9.84,36.43,36.43,0,0,1-21.06-15,36.46,36.46,0,0,1-5.24-26.33A36.42,36.42,0,0,1,296.81,25.4a33.28,33.28,0,0,1,2.29,3.93A20.2,20.2,0,0,0,296.41,41.8Z"/><path class="cls-3" d="M309.79,44.61a19.56,19.56,0,0,0-8.11,6.87,36.39,36.39,0,0,1,7.72-24.65A36.5,36.5,0,0,1,332.82,13.7a36.43,36.43,0,0,1-7.3,26.23,34.69,34.69,0,0,1-3,3.39A20.19,20.19,0,0,0,309.79,44.61Z"/><path class="cls-3" d="M311.26,58.21a19.56,19.56,0,0,0-9.05-5.59,35.66,35.66,0,0,1,45.56,17.94,36.41,36.41,0,0,1-27.2,1.16,34.53,34.53,0,0,1-4.16-1.83A20.29,20.29,0,0,0,311.26,58.21Z"/><g class="cls-4"><rect class="cls-5" x="40.51" y="185.66" width="0.05" height="0.04"/></g><path class="cls-6" d="M118,177.31l13,1.14c-7.28,3.08-25.5,16.76-26.23,19C107.51,187.18,117.88,177,118,177.31Z"/><path class="cls-7" d="M119.71,163.71A145.49,145.49,0,0,1,144,154c12-3.56,26.17-5.71,39.36-1.9,0,0,2.69,1.86,10.14-5.19,0,0,16-15.28,11.94-22.85-.06.85-13.17-20.12-42.14-13.71A55.86,55.86,0,0,0,145.51,119c-8.72,6.51-19.38,15.93-23.36,18.46-.52.34-19.66,11.62-47.7,8.33-14.15-1.67-28.27-9.3-39.1-16.25a112.22,112.22,0,0,1-28-22.84c7.38-6.58,23-16.33,48.43-30.89C72.47,66.24,89.24,58.42,103,53.61,116.2,49,141.87,38.3,171.42,36c19.85-1.57,41.17.24,60,7.29l19.68,12.27c-3.57-4.45-16-14.29-16-14.29,9.1-4,30-12,52.08-15.48C299,23.88,311.94,22,324.93,21.57c0,0-29.45,29.39-42.89,63.19,7.59,15.78,15.6,36.19,14,46.15a103.91,103.91,0,0,0-14.68-5.21A102.41,102.41,0,0,0,269,123c.09.26,24,10.1,24.26,10.24,22.19,10,44.93,26.59,65.1,44.58-1.45-.6-51.16-20.94-86.38-18.26-8.21.62-17.69,4.66-17.69,4.66,11.22-.66,30.75-1.11,36.87,1.82-6.41,13.83-13.43,22.61-19.68,30.27-4.71,5.74-11.47,11.5-17.83,16.81-37.52,31.29-64.57,42.1-78.67,47.43-2.85,1.08-5.16,1.94-6.95,2.7-.32.13-7.55,2.66-7.55,2.66l3-.35A94.24,94.24,0,0,1,151,308.34a105.31,105.31,0,0,0,1.38-16c.06-2.07.64-19.46-.38-20.18-.77-.56-2.27-1.83-2.27-1.83a27.57,27.57,0,0,1-1-2.62,146,146,0,0,0-17.13-13.44c-20.49-14.05-52-35.31-76.79-41.89,3.62-1.46,46.36,8.93,78,18.7,18.15,5.64,29.42,12.13,32.79,14.78,1.2-.46-9.8,6.32-10.45,6.73,14.25-3.18,55.74-29.33,43.28-51.74-4.82-8.66-8.28-12.84-21.2-23.36.64.17,11.27,3,17,2.77-6.51-2.51-7.59-2.47-15.24-4.81-7.65-2.18-24-4.43-44.47-2.43m8.06-72a13.48,13.48,0,0,0,11.41-11.29c1.52-10-1.65-18.41-11.67-7.49a143.39,143.39,0,0,1-11.47,11.56C130.33,94.25,142.07,101.12,142.5,101.07Zm111.88-1.93a5.19,5.19,0,0,0-.35-1.68,19.14,19.14,0,0,0-3.77-6.24s2.2,5.74,1.76,8.21c0,0-.41,3.51-.81,7.75-.45,4.81-.57,10.55-1.38,13.1a14,14,0,0,1-2.19,4.08s4.35-2.85,4.55-4.94,2-5.43,2-9A110.52,110.52,0,0,1,254.38,99.14ZM242.21,117.7s3.34-10.86,2.78-14.56c0,0-.46-9.17-5.15-16.57-.23-.35,2.71,12.05,1.52,18a49.07,49.07,0,0,0-1.52,13.52,29.08,29.08,0,0,1-2.93,10S241,125.7,242.21,117.7Zm-7.28-3.5s3.2-12.58-.13-22.86a72.39,72.39,0,0,0-2.53-6.86,48.18,48.18,0,0,0-3.09-5.62c-.29-.47-3.9-5.62-3.9-5.62s6.14,13.45,7.32,20.09c0,0-1.06,21.9-.76,24.46,0,0,.47,4.1-5,12.29,0,0,3.52-1.81,7-8.48A36.63,36.63,0,0,0,234.93,114.2Z"/><path class="cls-6" d="M160.93,93.32c33.59-16.65,45.41-6.92,67.11,1.85,2.84-6-1.86-20-6.49-26.42a43.41,43.41,0,0,1,9.71,9.33c2.67,3.53,6.72,14.31,7,16.83.76-.75,0-10.78-1.84-13.69,4.49,1.53,11.68,16.21,11.32,16.55.85-3-1.59-12.75-2.17-13.12,2.09.69,10.19,8,11,14.56-.3.18,18.94-4.41,25-14.76,0,0,20.18,36.11,17.64,51.35,0,0-24-16.23-45.33-13.74-.46.65-95.89-12.36-127.37-3.13-11.89,3.49-37.58,3.46-38.71,2.92,6.6.29,38.21-8.11,46.49-14.68-3.19-2.11-3.69-2.45-7.06-7a31.31,31.31,0,0,1-4.06-22c1.16-6.48,33.6-6.52,34.3-5.44C157.45,72.77,163.93,83.72,160.93,93.32Z"/><path class="cls-6" d="M297,163.05l-38.08,0L195.11,245l-40.55,10.89-6.34,11.55,2,7.49,1.92,4.8-3.79,32.77s12.59-14.21,12.59-15.23,8-31.54,8-31.54l10-6.54L204,249s52.57-31.22,53.58-32.49S297,163.05,297,163.05Z"/><path class="cls-6" d="M261.24,61.61S276.7,73,282.8,87.1c0,0,31.56-58.81,43.74-65.85S286.94,37.05,261.24,61.61Z"/><path class="cls-8" d="M6.33,106.14a.5.5,0,0,0-.26-.06Z"/><path class="cls-8" d="M230.12,101.92c-24.19-14.74-47.77-16.53-62.44-5.2-34.86,26-55.77,23.53-98.35,23.17-18.78-.68-60.08-13.11-63.26-13.81,1.54.73,3.87,9.93,17.44,20.25,5.6,4.25,14.44,7.5,23.52,12.34,1.8,1,5.71.66,7.63,1.66s2.7,2.51,4.83,3.58c11.47,5.78,24.16,12.81,39.85,18.52,3.11,1.81,27.16,6.63,59,14,0,0,21.08,1.61,33.61,16.66a41.74,41.74,0,0,1,5.69,12.77S196,216,196.25,217.2c0,0-7.72,26.81-41.73,35.44,0,0-13.46,17.26,42.39-8.38s64.22-80.09,64.22-80.09a90.33,90.33,0,0,0,1.32-17.71C261.47,128.1,250.63,114.41,230.12,101.92Z"/><path class="cls-8" d="M6.31,102.19a.49.49,0,0,0-.24-.06Z"/><path class="cls-9" d="M176.88,181.45s45,11.71,84.3-17.41c2.37,5.43-7.93,39.51-26,54.25-6.32,5.16-12.56,11.43-32.18,23.23-16.92,10.19-32.17,16.85-49.69,16.66,0,0-2.8-2.93,0-5.43,1.31-1.15,3.79-1.27,8.38-2.66,14.47-4.38,33.89-25.13,36-30.65s5.33-15-4.86-26.87C185.3,183.81,176.88,181.45,176.88,181.45Z"/><path class="cls-9" d="M253.86,122.06a103.6,103.6,0,0,0-7.72-9.56c-2.07-2.17-8.8-6.56-9.52-6.84l-10.21-6.35s1.09,3.53.65,10.25c-.21,3.31,1.22,8.33-.38,12.37a119.55,119.55,0,0,1-5.29,11.78c3.81.18,11.78-5.19,13.77-16.89,1.3,3.4-2.42,14.14-4.8,15.91.67.37,10.47-3.32,11.94-9.47.63-2.62,1.2-5.35,1.93-9,0,2.32.07,5.14,0,6.86-.2,3.67-3.81,8.56-3.81,8.56a23.88,23.88,0,0,0,8.5-3.76C250.28,125.05,253.86,122.06,253.86,122.06Z"/><path class="cls-2" d="M15.46,103.78c12.94,3.62,17.7,4,36.87,5.91,0,0,2.41-39,66.89-57C119.22,52.66,72.57,62.4,15.46,103.78Z"/><path class="cls-2" d="M77.21,218.29c.88.24,44.86,15,70,34.92l10.35-7.79a459.06,459.06,0,0,0-80.37-27.13"/><path d="M.61,107.48s59.14-43,90.12-53.17c0,0,80.34-36.18,138.92-15.16,0,0,24.11-11.09,47-15.23,23.61-4.29,42.09-5.65,54-5.44,0,0-20.67,28-25.89,34.94s-16.19,30.85-16.19,30.85,18.29,23.8,19.71,52c1.67-.95,41.94,24.09,56.85,46.19,0,0-58.12-19-64.73-15.73,0,0-8.12,27.16-47.21,58.12s-77.42,37.83-77.42,37.83l-.93-2.45c14.1-5.33,41.15-16.14,78.67-47.43,6.36-5.31,13.13-11.07,17.83-16.81,6.25-7.66,13.27-16.44,19.68-30.27-6.12-2.94-25.65-2.48-36.87-1.82,0,0,9.49-4,17.7-4.66,35.21-2.68,84.92,17.66,86.37,18.26C338,159.55,315.3,143,293.11,133c-.27-.14-24.17-10-24.26-10.24a102.41,102.41,0,0,1,12.44,2.67A104.67,104.67,0,0,1,296,130.6c1.55-10-6.46-30.37-14.05-46.15,13.44-33.8,42.89-63.19,42.89-63.19-13,.45-25.89,2.31-37.75,4.18C265,28.92,244.08,36.93,235,40.92c0,0,12.43,9.84,16,14.29L231.29,42.94c-18.81-7-40.13-8.86-60-7.29-29.54,2.34-55.22,13-68.4,17.65C89.13,58.11,72.36,65.93,55.62,75.51c-25.43,14.56-41,24.31-48.43,30.89"/><path d="M121.59,168.87c9.87,2.39,19.62,4.66,27.91,5.53a230.63,230.63,0,0,1,29.17,5.46c13.86,9.85,15.44,9.87,20,19,11.61,23-28.57,50.27-44,53.43.65-.41,11.65-7.19,10.45-6.73-3.37-2.65-14.64-9.14-32.79-14.78-31.59-9.77-74.33-20.16-77.95-18.7l-.57,1.28c-2.37-1-4.73-2-7-2.94,0,0,38.08-3.81,117.78,31,0,0,21.84-5.33,29.7-23.11,0,0,7.61-18-8.38-29.44s-35.53-10.92-35.53-10.92l-13.45,2.29s-24.75,11.91-35.29,23.86c0,0-1-14.74,20-35.21"/><path d="M131,178.45l-13-1.14c-.1-.27-10.47,9.87-13.18,20.18C105.53,195.21,123.75,181.53,131,178.45Z"/><path d="M253.54,97.15a5.19,5.19,0,0,1,.35,1.68,110.52,110.52,0,0,0-.16,11.24c0,3.61-1.82,6.94-2,9s-4.55,4.94-4.55,4.94a14,14,0,0,0,2.19-4.08c.81-2.55.93-8.29,1.39-13.1.39-4.24.8-7.75.8-7.75.44-2.47-1.76-8.21-1.76-8.21A19.14,19.14,0,0,1,253.54,97.15Z"/><path d="M244.5,102.83c.56,3.7-2.78,14.56-2.78,14.56-1.17,8-5.3,10.4-5.3,10.4a29.08,29.08,0,0,0,2.93-10,49.52,49.52,0,0,1,1.52-13.52c1.19-5.94-1.75-18.34-1.52-18C244,93.66,244.5,102.83,244.5,102.83Z"/><path d="M234.31,91c3.33,10.28.13,22.86.13,22.86a36.63,36.63,0,0,1-1.09,7.4c-3.52,6.67-7,8.48-7,8.48,5.51-8.19,5-12.29,5-12.29-.3-2.56.76-24.46.76-24.46-1.18-6.64-7.32-20.09-7.32-20.09s3.61,5.15,3.9,5.62a48.18,48.18,0,0,1,3.09,5.62A72.39,72.39,0,0,1,234.31,91Z"/><path d="M174.45,260.27l.93,2.45s-4.07,30.46-28.68,56.6c0,0,4.9-31.12,2.53-42.13,0,0-5.74-5.24-5.84-9.65,1.36-1.92-48.2-36.12-89.66-54.18l.57-1.28c24.76,6.58,56.3,27.84,76.79,41.89a146,146,0,0,1,17.13,13.44s.8,2.29,1,2.62c0,0,1.5,1.27,2.27,1.83,1,.72.44,18.11.38,20.18a105.31,105.31,0,0,1-1.38,16A94.24,94.24,0,0,0,163,265.28l-3,.35s7.24-2.53,7.56-2.66C169.29,262.2,171.6,261.35,174.45,260.27Z"/><path class="cls-2" d="M271.9,128.19s24.85,16.11,27.51,26.58c.06,1.43,34.27,7.63,47.12,15.74C346.53,170.51,303,135.27,271.9,128.19Z"/><path class="cls-2" d="M238.77,41.43A165.77,165.77,0,0,1,255.6,55.77c2.66-2.24,41.37-29,56.35-31.66C312,24.11,267.33,31,238.77,41.43Z"/><path d="M149.69,310.22l.44-2.26A107,107,0,0,0,151.52,292l0-.8c.46-16.24,0-18.77-.27-19.1-.76-.52-2.21-1.76-2.27-1.81a18,18,0,0,1-1.11-2.69,149.28,149.28,0,0,0-17-13.36C113,242,79.74,219.24,54.2,212.44l-1.11-.29,1.07-.43a3.73,3.73,0,0,1,1.26-.15c8.35,0,48.79,10.14,76.94,18.86,18,5.59,29.19,12,32.74,14.69l.13,0,.24.29c.19.37.24.49-8.4,5.84,11.75-3.89,33.86-17.89,40.66-33.05,2.82-6.28,2.75-12.14-.19-17.43-4.78-8.59-8.14-12.69-21.13-23.26l.48-.59c13.09,10.65,16.48,14.79,21.32,23.48,3.06,5.51,3.14,11.6.21,18.12-7.43,16.57-32.92,31.78-43.78,34.2l-2.21.5,1.93-1.2c3.39-2.08,8.64-5.36,10.1-6.39-3.69-2.76-14.66-9-32.33-14.43-28.8-8.92-65.61-18-75.42-18.8,25.32,7.53,57.22,29.38,74.59,41.29a147.11,147.11,0,0,1,17.18,13.49l.1.15a22.62,22.62,0,0,0,1,2.51h0s1.44,1.22,2.18,1.74c.36.26,1.1.79.56,19.71l0,.8A128.88,128.88,0,0,1,151.22,306a95.27,95.27,0,0,0,11.37-40.26l-6,.7,3.25-1.13c2.9-1,7.3-2.56,7.53-2.66,1.47-.63,3.34-1.34,5.51-2.15,13.38-5.06,41.22-15.57,80-47.93,6.75-5.62,13.19-11.14,17.78-16.76,5.77-7.06,12.94-15.84,19.47-29.83-5.77-2.45-22.45-2.46-36.34-1.63l-2.19.13,2-.86c.09,0,9.64-4.07,17.82-4.7,18.5-1.4,41.08,3.65,56.73,8.13,13,3.73,23.56,7.7,27.81,9.37-22-19.4-43.89-34.28-63.4-43.09l-4.86-2c-19.48-8.09-19.51-8.17-19.6-8.45l-.15-.49h.52A100.78,100.78,0,0,1,281,125a114.23,114.23,0,0,1,14.28,5c1.39-11.67-9.35-35.56-14.08-45.4l-.07-.15.06-.16c12.18-30.66,37.83-58,42.31-62.64-13,.53-25.77,2.41-36.76,4.14-24,3.78-45.94,12.83-51.43,15.21,2.38,1.9,12.38,10,15.56,13.94l1.38,1.74L230.71,43.28C208.93,35.11,186.19,34.83,171,36c-25.57,2-48.62,10.45-62.4,15.48-2.18.8-4.16,1.52-5.92,2.14C88.6,58.58,71.83,66.46,55.44,75.84,28.43,91.3,14,100.52,7.06,106.68l-.5-.57C13.5,99.91,28,90.66,55.06,75.18,71.49,65.77,88.3,57.87,102.4,52.94c1.76-.62,3.73-1.34,5.91-2.13,13.81-5.05,36.93-13.5,62.6-15.53,15.3-1.21,38.16-.93,60.13,7.32l17.41,10.83c-4.74-4.79-14-12.12-14.1-12.21l-.5-.39.59-.26c4.32-1.89,27.15-11.56,52.19-15.51,11.28-1.77,24.44-3.71,37.8-4.19l1,0-.68.69c-.29.29-29.48,29.64-42.75,62.92,4.87,10.15,15.81,34.59,14,46.21l-.08.53-.47-.25a105.94,105.94,0,0,0-14.61-5.17c-3.74-1-7.27-1.78-9.6-2.21,4.12,1.77,12.28,5.15,16.8,7l4.9,2c20,9,42.59,24.49,65.2,44.65l1.68,1.5-2.08-.86a304.51,304.51,0,0,0-29.77-10.16c-15.6-4.47-38.06-9.49-56.46-8.1a62.23,62.23,0,0,0-15.38,3.78c8.79-.44,28.37-1.05,34.7,2l.34.16-.16.34c-6.62,14.29-13.89,23.19-19.74,30.34-4.63,5.68-11.1,11.22-17.88,16.87-38.89,32.43-66.81,43-80.22,48.05-2.16.81-4,1.52-5.48,2.14-.18.08-2.35.85-4.33,1.54h0v.42a95.55,95.55,0,0,1-12.53,42.94Z"/><path d="M105.15,197.61l-.73-.21C107,187.49,117,177,118,176.93h.28v0l14.33,1.25-1.41.6C123.61,182,105.82,195.54,105.15,197.61Zm12.9-19.91c-.94.75-9.17,9.06-12.31,18,4.15-4.19,17-13.62,23.83-17Z"/><path d="M225.16,130.78l.83-1.23c5.35-7.93,5-12,5-12-.29-2.56.72-23.63.76-24.53-1.16-6.43-7.23-19.77-7.29-19.9l.65-.38c.15.21,3.63,5.16,3.92,5.64l.41.67a41.79,41.79,0,0,1,2.71,5,70.65,70.65,0,0,1,2.54,6.89c3.32,10.26.18,23,.15,23.07a35.59,35.59,0,0,1-1.11,7.43c-3.56,6.75-7.08,8.62-7.23,8.69Zm1.52-54.47c1.91,4.46,5,12.08,5.81,16.64,0,.31-1.05,22-.76,24.49,0,.16.37,3.72-3.94,10.74a25.46,25.46,0,0,0,5.22-7.06h0a38.8,38.8,0,0,0,1.06-7.26c0-.19,3.13-12.66-.13-22.72a70.21,70.21,0,0,0-2.51-6.82,40.79,40.79,0,0,0-2.66-4.89l-.41-.68C228.25,78.56,227.52,77.51,226.68,76.31Z"/><path d="M235.53,128.77l.56-1.14a29.46,29.46,0,0,0,2.88-9.87,49.93,49.93,0,0,1,1.46-13.32c0-.13.06-.22.07-.26.93-4.65-.71-13.33-1.32-16.6-.3-1.55-.3-1.55,0-1.68l.29-.11.18.27c4.7,7.39,5.2,16.65,5.2,16.75.57,3.71-2.64,14.25-2.78,14.7-1.17,8-5.29,10.51-5.47,10.62Zm4.55-40.47c.71,3.78,2,11.6,1.16,16a1.82,1.82,0,0,1-.07.3,49.09,49.09,0,0,0-1.44,13.14,28.35,28.35,0,0,1-2.23,8.6c1.26-1.37,3.13-4.13,3.85-9,.05-.17,3.31-10.87,2.76-14.46A39.38,39.38,0,0,0,240.08,88.3Z"/><path d="M245.22,125.78l1.64-2a13.89,13.89,0,0,0,2.12-4,46.63,46.63,0,0,0,1-8.52c.1-1.51.21-3,.34-4.49.39-4.2.81-7.73.82-7.77.42-2.36-1.72-8-1.74-8l-.64-1.64L250,90.63A19.91,19.91,0,0,1,253.9,97a5.51,5.51,0,0,1,.37,1.81,111.66,111.66,0,0,0-.17,11.22,20.36,20.36,0,0,1-1.27,6.23,14.94,14.94,0,0,0-.74,2.86c-.22,2.22-4.27,4.93-4.73,5.23Zm5.6-33c.62,1.94,1.38,4.8,1.09,6.41,0,0-.42,3.54-.81,7.73-.13,1.44-.24,3-.34,4.47-.25,3.54-.48,6.88-1.06,8.7a15.94,15.94,0,0,1-1,2.36c1.23-1,2.55-2.36,2.65-3.37a15.86,15.86,0,0,1,.78-3,19.62,19.62,0,0,0,1.23-6,112.45,112.45,0,0,1,.17-11.26h0a4.8,4.8,0,0,0-.33-1.51A21.67,21.67,0,0,0,250.82,92.77Z"/><path d="M146.13,320.48l.19-1.21c.05-.31,4.83-31,2.56-41.88-.76-.73-5.78-5.57-5.87-9.84v-.12l0,0c-1.27-3.24-54.58-40-96.49-56.63l-1.45-.58,1.55-.16c.39,0,39.06-3.41,117.86,31,1.76-.47,21.92-6.16,29.32-22.86.07-.17,7.29-17.87-8.26-29-15.71-11.23-35.13-10.86-35.3-10.85l-13.35,2.27c-1.22.6-25,12.25-35.11,23.75l-.71.8,0-1.07c0-.1.48-10.76,8.85-22.45a56.8,56.8,0,0,1,4.45-5.46c.19-.22,4.87-5.51,8.1-7.76l.44.63c-3.16,2.19-7.93,7.59-8,7.64a55.17,55.17,0,0,0-4.4,5.39A47.08,47.08,0,0,0,102,203c10.87-11.58,34.4-23,34.64-23.1l.1,0,13.46-2.28c.23,0,19.91-.38,35.82,11s8.58,29.72,8.5,29.9c-7.85,17.74-29.74,23.27-30,23.32l-.12,0-.12-.05c-69.46-30.32-107.64-31.24-115.88-31,23.64,9.62,48.91,24.57,62.05,32.74,17.73,11,32.67,21.69,33.29,23.78a.62.62,0,0,1,0,.38c.15,4.17,5.65,9.23,5.71,9.28l.09.09,0,.12c2.11,9.84-1.46,35.11-2.35,41.05C170.77,292.61,175,263,175,262.67l0-.28.27-.05c.38-.07,38.69-7.2,77.25-37.74,20.14-16,31.87-30.86,38.17-40.55,6.82-10.51,8.9-17.33,8.92-17.39l.05-.16.15-.08c6.23-3.1,55.74,12.71,63.95,15.37C348.44,160,310.29,136.66,308,136.66h0l-.53.3,0-.64c-1.4-27.78-19.45-51.59-19.63-51.82l-.14-.19.09-.21c.11-.24,11-24,16.23-30.91,4.75-6.3,22.43-30.24,25.45-34.33-8.49-.09-26.14.52-53.16,5.43-22.59,4.1-46.69,15.09-46.93,15.2l-.14.07-.15-.06C171.36,18.79,91.3,54.29,90.5,54.66,61,64.32,6.79,103.2.7,107.6L.26,107c6.09-4.41,60.42-43.36,90-53,.77-.35,81-35.92,139-15.22,2-.91,25.19-11.24,47-15.19,27.9-5.06,45.84-5.56,54.05-5.43H331l-.44.59c-.2.28-20.72,28.07-25.9,34.94-4.89,6.5-15,28.22-16,30.57,1.69,2.28,18.17,25.16,19.63,51.74,5.43,1.1,43.16,26.12,56.81,46.33l.62.92-1.05-.35c-19.88-6.51-58.63-18.07-64.3-15.82-.37,1.12-2.66,7.71-8.94,17.38S273.27,209.16,253,225.19c-37,29.33-73.82,37.16-77.32,37.85-.49,3.1-5.55,31.92-28.75,56.55Z"/><polygon points="0.45 107.79 0 107.17 0.26 106.99 0.7 107.61 0.45 107.79"/><path d="M215.39,37.33a17.71,17.71,0,0,1,6.37.05,18.47,18.47,0,0,1,3,.86c.48.18.94.37,1.41.57a3.87,3.87,0,0,0,1.4.47.38.38,0,0,0,.32-.56,5.32,5.32,0,0,0-2.7-1.65,16.55,16.55,0,0,0-3.33-.9,17.39,17.39,0,0,0-6.74.24c-.6.15-.33,1,.26.92Z"/><path class="cls-8" d="M183.58,182.92c-46.07-3.32-56.84-10.69-78.79-16.77L63.6,147.3l24.69,4.63,90.38,18.58Z"/><path class="cls-9" d="M69.27,148.12c-.2-.05-1.08,2.55-.7,2.74,3.42,1.72,13.63,6.27,17.93,7.74a88.62,88.62,0,0,0,12.24,3.32s92.26,16.14,93-21.59C183.27,162.73,136.61,167.08,69.27,148.12Z"/><path class="cls-2" d="M176.61,101.11a31.83,31.83,0,0,1-8.24,17.54L155,128.94l-24.72,10.19-24.78,3.69s-23,0-23.33-.06-21.51-1.46-22.07-1.68-7.37-1.43-7-1.38,11.64,7.69,11.64,7.69l28,5.73,28,5.49,34.31,2,18-2.74L186,150.2s5.43-10.19,5.35-10.68-2.54-18.18-3.11-18.54-6.47-15.77-7.62-16.26S176.46,100.52,176.61,101.11Z"/><path class="cls-10" d="M53.82,139.82c1.08.36,11.86,1.81,11.86,1.81l16.6,9L64.41,147Z"/><path d="M149.19,160.28c-11.05,0-27.43-1-49.39-4.89l-35.44-8.32-.66.61c-.64-.7-1-1.11-1-1.11l-1.1-1.35,38.42,9c44.79,7.93,66.14,3.8,66.35,3.76,11.15-1.36,18.63-5,22.27-10.94,4.29-7,1.6-14.65,1.57-14.73-4.7-20.37-10.95-27.25-13.29-29.2.24,15-27,28.93-28.22,29.53-16.82,9.66-42,11.42-60.09,11.15-17.25-.23-33.43-2.36-36-3.23l0,.07c-.82-.25-1.51-.43-2.17-.6a25.6,25.6,0,0,1-3.34-1l.43-1.1a26.63,26.63,0,0,0,3.21,1c.67.17,1.38.35,2.22.61l.51.16c6.44,1.49,64.77,9.12,94.69-8.06.32-.17,29.31-15,27.52-29.62l-.14-1.08,1,.48c.36.17,8.83,4.54,14.85,30.6.1.27,2.88,8.25-1.71,15.69-3.83,6.22-11.6,10.08-23.08,11.48C166.49,159.18,160.79,160.28,149.19,160.28Z"/><path d="M183.21,109.83c4,7.1,7.28,14.8,8.4,23h0l.13,1.31-1-.72a46.07,46.07,0,0,0-5.94-3.23c-2-1-4.1-1.9-6.18-2.78s-4.17-1.72-6.28-2.53c-2-1-4.5-.92-6.11-3h0l.46-1.1a.69.69,0,0,1,.27.24l0,0,.05.08.09.13.16.24.3.5.58,1c.37.67.74,1.34,1.07,2,.7,1.36,1.3,2.77,1.95,4.15l3.74,8.34,3.63,8.41,1.72,4.25.78,2.19a9.34,9.34,0,0,1,.32,1.19,3.14,3.14,0,0,1,0,.39c-.09.08.27.49-.64.94-.67,0-.51-.11-.7-.14l-.29-.16c-5.22-3.37-10.19-6.79-15.25-10.24-2.5-1.75-5-3.47-7.47-5.31-1.22-.93-2.47-1.82-3.63-2.82-.6-.49-1.18-1-1.74-1.54l-.86-.83a1.72,1.72,0,0,1-.39-.51,1.38,1.38,0,0,1-.11-.39.62.62,0,0,1,0-.28c0-.22-.15-.15.1-.85l0,0,1-1.3.1,1.62a64,64,0,0,0,2.77,13.38c1.29,4.41,2.74,8.78,4.18,13.17h0l.4,1.2-1.2-.48a94.19,94.19,0,0,1-15.34-8,93.1,93.1,0,0,1-13.91-10.15h0l.92-.34a37.88,37.88,0,0,0-.16,8.85c.18,3,.63,6,.93,9v0l.15,1.35-1-.76c-1.8-1.31-3.83-2.22-5.74-3.37s-3.84-2.22-5.73-3.39-3.77-2.37-5.61-3.62c-.93-.62-1.83-1.28-2.72-2l-1.29-1.07c-.4-.38-.94-.61-.92-1.52v0l.91-.22a41.64,41.64,0,0,0-1.61,5.2,29.7,29.7,0,0,0-.62,5.41v0l0,.93-.85-.41-9.92-4.82-5-2.37a16.09,16.09,0,0,1-4.59-3.1h0l.8-.27c-.24,1.1-.58,2.09-.75,3.15a16.68,16.68,0,0,0-.14,3.25v0l.08,1.07-.92-.44-20.23-9.68.82-.36-1.44,4.6-.22.72-.65-.39L54,141.26l.62-1,8.91,5.44-.87.32,1.44-4.59.2-.65.62.29,20.24,9.68-.84.63v0A9.51,9.51,0,0,1,84,147.7a6.79,6.79,0,0,1,1.28-3.46l.27-.34.54.08h0A15.88,15.88,0,0,1,91.24,146L96,148.81l9.57,5.47-.86.53v0A23.25,23.25,0,0,1,107,143.7l.92-.22h0c.89-.22,1.21.25,1.67.55l1.32,1,2.58,2q2.56,2.06,5.24,4t5.4,3.8a43.4,43.4,0,0,0,5.62,3.48l-.88.6h0q-.85-4.47-1.29-9a26.77,26.77,0,0,1,.54-9.25l.2-.73.72.39h0c5,2.78,9.6,6.2,14.39,9.3a166.63,166.63,0,0,0,14.65,8.71l-.8.72h0c-1.43-4.39-2.88-8.77-4.18-13.21a64,64,0,0,1-2.82-13.67l1.07.32,0,0a3.21,3.21,0,0,0,.17-.58.86.86,0,0,1,.15-.05c.09,0,.19,0,.27,0a1.33,1.33,0,0,1,.43.28l.85.68,1.79,1.37,3.56,2.82,7.13,5.69c4.78,3.71,9.54,7.66,14.65,10.74l.22.11s.32,0-.17,0c-.72.39-.36.54-.46.45l0-.18a9.12,9.12,0,0,0-.28-1l-.77-2.11-1.73-4.2c-1.19-2.8-2.45-5.57-3.73-8.33l-3.88-8.26c-.64-1.37-1.34-2.73-2-4.12l-.91-2.09-.43-1.06-.21-.52-.1-.26,0-.12,0,0v0a.46.46,0,0,0,.23.18l.46-1.09h0c2.61-.45,4.37,1.33,6.52,2.08,2.07,1,4.14,1.93,6.18,3s4.06,2.08,6,3.2,3.9,2.37,5.94,3.41l-.9.59h0c-1.08-8-4.28-15.55-8.25-22.58Z"/><path class="cls-11" d="M167.21,107.17s4.64-9.38,10.85-8.61c0,0,4.74-.68,7.95,7.67,0,0-4.19-5-8.3-4.31C177.71,101.92,173.85,101.17,167.21,107.17Z"/><path d="M148,161.81A186,186,0,0,1,115.71,159c-14-2.64-48.95-10.09-52.9-10.94l.5-2.31c3.94.84,38.9,8.29,52.84,10.92,19.9,3.76,49.55,4.07,60.3-1.46,11.61-6,16.67-12,12.06-28.55-3.74-11.26-9.51-23.5-12.27-23.55l0-2.37c5.71.1,12.54,19.33,14.49,25.23,5,17.93-1.06,25.07-13.24,31.34C171.23,160.55,160,161.81,148,161.81Z"/><path d="M94.8,144.25a281.74,281.74,0,0,1-48.25-4.46l.46-2.33c.57.12,56.89,11.08,91.05-1.91.19-.07,17.52-6.4,27.34-15.42.08-.08,10.6-10.39,9.58-19.82l2.36-.26c1.14,10.59-9.85,21.35-10.32,21.81-10.19,9.36-27.41,15.64-28.14,15.91C125.92,142.69,109.86,144.25,94.8,144.25Z"/><path d="M55.5,140.33c18.18,15.93,64.41,30.06,78.29,32.64,0,0,51.91,12.24,76,9.95,0,0-26.16,9.06-77.06-3.19-4.7-.11-43.13-14-70.4-30.71A91.61,91.61,0,0,1,49.5,139.9Z"/><path class="cls-10" d="M152.65,136.94c-.14-.24,5.92,20.39,6.37,20.88,0,0,10.58-.85,15.93-3.29C175,154.53,161.87,152.66,152.65,136.94Z"/><path class="cls-10" d="M175,112.93c-.33-.16,2.73-5.07,2.5-8.21,0,0,9.55,15.89,10.69,23.58C188.14,128.3,181.54,116,175,112.93Z"/><path class="cls-10" d="M170.74,126.35,181.53,150a13.64,13.64,0,0,0,7.63-9.64Z"/><path class="cls-10" d="M159.25,128.88c-.5-.26,6.82-5,6.82-5l12.25,27.32S164.71,131.79,159.25,128.88Z"/><path class="cls-10" d="M132.75,140.86l9.78-3.29,12.28,17.81S134.68,143.43,132.75,140.86Z"/><path class="cls-10" d="M129.68,143.34c-.26-.52,1.07,14.48,1.07,14.48s16.1.61,18.26,0C149,157.82,135.59,155.21,129.68,143.34Z"/><path class="cls-10" d="M111.51,144.4l10.73-1.3s1,8.21,4.48,12.29c.16.19.32.37.49.54C131,159.77,114.49,147.33,111.51,144.4Z"/><path class="cls-10" d="M107.61,146.48s-1,6.46-.8,7.32c0,0,13.69,2.91,15.43,2.86C122.24,156.66,111.36,153.19,107.61,146.48Z"/><path class="cls-10" d="M90.43,144.65l11.38.48s-.57,5.78,1.93,7.71Z"/><path class="cls-10" d="M86.34,146.48V150l9.78,1.6Z"/><path class="cls-10" d="M73,143.91l9.9.74s-.69,3.26,0,4.37S73,143.91,73,143.91Z"/><path d="M0,107.3l5.73-3.6c.4-.39,5.58,12.63,16.69,21,6.65,5,13.7,8.93,24.61,12.83l-.44,2.27c-5.86-1.16-15.14-2.64-25.95-10C1.7,116.78,0,107.3,0,107.3Z"/><path class="cls-2" d="M157.69,82.08c2.27,11.22-3.38,21.82-12.62,23.69S128.7,99.62,126.43,88.4,127.62,67,136.86,65.15,155.42,70.86,157.69,82.08Z"/><path d="M142.42,106.8c-7.91,0-14.45-7-16.74-18.25-2.54-12.6,1.89-22.3,11-24.14a16.28,16.28,0,0,1,13.66,3.71,23.74,23.74,0,0,1,8.07,13.81c2.34,11.61-3.58,22.64-13.22,24.59A14.22,14.22,0,0,1,142.42,106.8Zm-2.73-41.17a13.54,13.54,0,0,0-2.68.27c-9.53,1.92-11.8,12.61-9.84,22.35s8.26,18.66,17.75,16.78c8.81-1.79,14.2-12,12-22.8a22.3,22.3,0,0,0-7.54-12.93A15.43,15.43,0,0,0,139.69,65.63Z"/><path class="cls-12" d="M154.19,83.28c1.58,7.78-2,15.06-7.91,16.26s-10.63-4.41-12.2-12.19.56-14.77,6.51-16S152.62,75.5,154.19,83.28Z"/><path d="M144.69,99.89c-5,0-9.24-4.79-10.8-12.51-1.72-8.53,1-15,6.66-16.19a8.36,8.36,0,0,1,1.72-.17c5.45,0,10.67,5.1,12.11,12.22,1.59,7.87-2,15.27-8.06,16.49A8.26,8.26,0,0,1,144.69,99.89Zm-2.42-28.5a8.4,8.4,0,0,0-1.65.17c-5.48,1.11-8,7.44-6.35,15.75s6.51,13.15,12,12c5.83-1.18,9.32-8.38,7.77-16C152.61,76.38,147.54,71.39,142.27,71.39Z"/><ellipse cx="146.87" cy="85.05" rx="6.08" ry="8.33" transform="translate(-13.94 30.78) rotate(-11.43)"/><path d="M147.61,93.47a5.81,5.81,0,0,1-3.9-1.67,10.81,10.81,0,0,1-2.37-11.74A5.16,5.16,0,0,1,150,78.31a10.15,10.15,0,0,1,3,5.51c.93,4.59-1.06,8.87-4.43,9.56A4.91,4.91,0,0,1,147.61,93.47ZM146.12,77a4.21,4.21,0,0,0-.87.09,5.21,5.21,0,0,0-3.62,3.15,10.5,10.5,0,0,0,2.3,11.36,5.2,5.2,0,0,0,4.55,1.5c3.2-.65,5.08-4.77,4.18-9.18a9.83,9.83,0,0,0-2.86-5.33A5.52,5.52,0,0,0,146.12,77Z"/><ellipse class="cls-2" cx="139.79" cy="80.74" rx="3.79" ry="3.96" transform="translate(-13.23 29.3) rotate(-11.43)"/><ellipse class="cls-2" cx="150.51" cy="91.5" rx="1.97" ry="2.06" transform="translate(-15.15 31.63) rotate(-11.43)"/><path class="cls-7" d="M123,80.67S133.66,68,158.42,77.81c0,0-4.34-24.12-22.16-20.63C135.16,57,122.47,61.46,123,80.67Z"/><path d="M122.35,82.65l-.06-2C122,69.2,126.24,63,129.9,59.76c2.62-2.3,5.29-3.32,6.3-3.33a15.59,15.59,0,0,1,12.16,2.33c8.34,5.7,10.7,18.38,10.8,18.92L159.4,79l-1.25-.5C134.25,69,123.72,81,123.61,81.15Zm13.79-24.73a13.41,13.41,0,0,0-6.31,4c-2.74,2.84-5.93,8.06-6.05,17,3.49-3,14-9.58,33.6-2.29-.83-3.38-3.57-12.32-9.87-16.62a14.18,14.18,0,0,0-11.11-2.07l-.13,0Z"/><path d="M162.29,67.09c.21-.4.29,5.34-4.6,10.69l-3.12-1.61S157.89,75.55,162.29,67.09Z"/><path d="M148.59,74.65s4.71,0,6.93-10.73c0,0,1.46,2.67-3.12,11.85"/><path d="M141.27,73.61s5.83-.74,5.8-12.6c0-.6,3.84,6.47-2.57,14.54"/><path d="M122.18,82.76s7.48-14.29,36.28-6.45l.87,2.72s-26.29-6.21-34,7Z"/><path class="cls-3" d="M713.46,132c-1.63-12.62-4.43-23.82-11.74-33-4.28-5.36-12.85-13.49-33.9-12.82-11.8.55-17.2,4.18-22.35,10.4-5.31,5.92-7.78,14.25-7.89,23.79-.2,10.29,2.09,22.83,3,25.18,1.44,3.66,2.09,5.94,7.67,6a38.58,38.58,0,0,0,17-2.33c4.07-1.52,4.19-5.95,3.72-10.86a134.42,134.42,0,0,1-.82-17.65c0-5.3,1.49-10,4.27-11.67,2-1.29,3.76-1,5.22,1.13,2.17,3.1,5.1,14.19,4.57,26.82-.32,7.78-.45,15.08-1.94,21.74-.73,3.25-3.74,2.08-6.49,1.52a28.83,28.83,0,0,0-23.21,6c-9.05,8.32-11,15.52-11.92,26.95-.43,16.32,5,27.07,8.23,30.69,5.86,6.85,12.36,8.92,20.16,7.31a32.31,32.31,0,0,0,11.13-4.09c2.21-1.41,2.52-1.1,2.85,1.71.26,2.17.47,4.35.68,6.53.44,4.44,2.47,5.53,5.43,6.34,3.58,1,17.05,2.35,21.44.34,2.9-1.32,3.16-4.2,3.79-7.87.46-4.39.89-13.65.88-16.73,0-9.67,0-35.14.79-49.37C714.69,158.06,714.56,140.58,713.46,132Zm-41,65.16a8.4,8.4,0,0,0,3.9-2.39,15.34,15.34,0,0,1-15.7,14,15.62,15.62,0,0,1,4.82-10.67,15.39,15.39,0,0,1,1.5-1.24A8.63,8.63,0,0,0,672.44,197.18Zm.27-5.87a8.28,8.28,0,0,0,3.48,3A15.32,15.32,0,0,1,658,183.68,15.64,15.64,0,0,1,669.63,185a14.59,14.59,0,0,1,1.65,1A8.68,8.68,0,0,0,672.71,191.31Zm5.67-1.56a8.34,8.34,0,0,0-1.75,4.22,15.32,15.32,0,0,1,4.46-20.57,15.65,15.65,0,0,1,2.37,11.46,14.91,14.91,0,0,1-.48,1.89A8.64,8.64,0,0,0,678.38,189.75Zm3.23,4.9a8.36,8.36,0,0,0-4.55-.35A15.32,15.32,0,0,1,698,192.18a15.65,15.65,0,0,1-10.17,5.8,14.57,14.57,0,0,1-2,.12A8.66,8.66,0,0,0,681.61,194.65Zm-3.66,4.6a8.35,8.35,0,0,0-1.07-4.44,15.33,15.33,0,0,1,8.48,19.26,15.68,15.68,0,0,1-8.66-7.88,14.22,14.22,0,0,1-.71-1.82A8.68,8.68,0,0,0,678,199.25Z"/><path class="cls-3" d="M628.8,175.87c0,5.69-.17,15.91-.29,20-.23,9.74-1.9,32.91-4.18,37.7-2.57,5.58-4.58,5.79-19.72,6.78-11.69-.08-10.51-4.13-10.34-10.38.29-7,.41-14.48.56-21.24a1,1,0,0,0-1.06-1.08c-3.43,0-6.82,0-9.09-.1-2.78-.17-6.41,0-10.07.12a1.14,1.14,0,0,0-1.11,1.15c0,7.16.21,15.64.29,22.6.06,4.32.3,5.1-3.79,6.62-5.29,2.17-13.65,3.34-20.65,3.07-3.85,0-4.59-2-5.29-5.84-1.86-10.25-1.91-20.68-2.48-31.07-1-17.69-.63-35.41-1.11-53.11,0-5.69.17-15.92.29-20,.23-9.74,1.89-32.91,4.18-37.7,2.58-5.57,4.58-5.79,19.72-6.77C576.35,86.7,575.17,90.75,575,97c-.43,10.39-.5,21.92-.81,30.45-.15,4.31-.3,33-.74,47.87a1.11,1.11,0,0,0,1.07,1.15c3.52.12,6.89.5,11.84.54.72,0,4.09.21,7.87.51a1.07,1.07,0,0,0,1.14-1.06c.12-9.64.27-20.07.51-26.71.14-8.63,0-18.42-.12-30.09.06-7.45-.2-16.66-.29-24.12-.05-4.32-.3-5.1,3.8-6.62,5.29-2.17,13.65-3.34,20.65-3.07,3.85,0,4.59,2,5.29,5.84,1.86,10.25,1.91,20.68,2.48,31.07C628.67,140.44,628.31,158.16,628.8,175.87Z"/><path class="cls-3" d="M526.78,223.6c-1.86-15.4-1.76-14.27-12.13-13.65-10.68.63-51.71,2.36-76.22,2.77,0-2.08,0-4.11,0-6-.09-11.67-.26-21.46-.12-30.09.5-14.11.66-45.29.82-49.79.32-8.55.39-20.08.82-30.46.19-6.25,1.4-10.3-10.55-10.38-15.47,1-17.52,1.2-20.15,6.78-2.35,4.78-4,27.95-4.28,37.7-.12,4.11-.3,14.34-.29,20,.49,17.7.13,35.42,1.12,53.11.58,10.3.64,20.65,2.49,30.81l.06,2.32c0,2.64,2.37,4.79,5.34,4.83,11.89.14,86.12-.82,103.63-2.13C527.19,238.68,528.55,238.11,526.78,223.6Z"/><path class="cls-3" d="M530.74,132.81c-1.16-9.76-3.74-21.16-9.7-29.76-5.84-8.45-12.46-14.23-24.45-16.9a30,30,0,0,0-12.54,0c-11.94,2.83-18.61,8.45-24.46,16.9-5.94,8.6-8.54,20-9.68,29.76-.4,3.32-1.55,15.7,0,26.27,1.41,9.73,3.31,21.13,9.25,29.72s11.51,14,23.53,16.6a36.51,36.51,0,0,0,15.26,0c12.11-2.92,17.68-8.14,23.52-16.6s7.84-20,9.26-29.72C532.27,148.51,531.13,136.13,530.74,132.81Zm-32,39c-.65,2.87-1.58,5.79-2.9,7.5-2.73,3.54-8.64,3-11,0-1.33-1.71-2.25-4.63-2.9-7.5-3.63-21.66-2.47-35.92.15-52.93.61-2.51,1.31-4.94,2.75-6.6,3.48-4,8.24-3.38,11,0a17,17,0,0,1,2.75,6.6C501.18,135.86,502.34,150.11,498.71,171.78Z"/><path class="cls-3" d="M803.48,228.22c-4.77,6.41-12.7,12.84-32.31,13.69-11.54,0-21.45-3.79-28.81-13.09-2.52-3.19-4.3-7.74-5.62-14.93a69.55,69.55,0,0,1,.13-18.31c1.25-5.58,2.23-5.9,8.52-6.88,4.66-.67,10.56-.07,15.2.65,5.32.81,5.44,2.93,5.65,10.1.16,4.72-.29,8.93.76,13.57.94,5.13,4.72,7.2,7.31,7.45,3.77.14,5.67-1.68,6.81-5.07,1.51-5.21,1.84-11.17-2.28-18.66-2.29-4.72-6.8-9.1-10.85-12.35a129.42,129.42,0,0,1-19.23-19.15c-8-9.47-13.11-17.64-15.42-30.07-1.84-9.92,0-23.46,4.35-30A38.28,38.28,0,0,1,747,94.62c8.84-6.59,15-8.5,26.34-9,12.76.37,21,5.18,23.55,7.11,6.59,5,10.57,10.42,13,20a62.28,62.28,0,0,1,.6,21.18c-1.3,7.91-.87,9.27-7.38,10.93-4.93,1.31-17.16.44-21.18-1.73-2.79-1.17-2.75-3.23-2.21-7.25a67.09,67.09,0,0,0-.76-18.68c-.37-2.25-1.28-5.21-2.93-6.84-2.26-2.22-5.41-1.61-7.06,1-4.4,7.09-4.12,14.57-1.42,22a33.67,33.67,0,0,0,8,13c3.63,4.15,10.32,10.76,13.44,13.51a74.76,74.76,0,0,1,11.67,12.37c5.51,7.14,9.72,14.89,11.08,23.94C813.6,208.62,810.54,218.13,803.48,228.22Z"/><path class="cls-3" d="M910.22,175.87c0,5.72-.16,16-.29,20.14-.23,9.81-1.9,33.11-4.2,37.93-2.59,5.61-4.61,5.82-19.83,6.81-11.76-.08-10.58-4.15-10.41-10.43.29-7,.42-14.56.57-21.37a1.07,1.07,0,0,0-1.07-1.09c-3.45,0-6.86,0-9.14-.1-2.8-.17-6.45,0-10.13.13a1.15,1.15,0,0,0-1.12,1.16c0,7.2.21,15.72.3,22.73.05,4.34.3,5.13-3.82,6.65-5.32,2.18-13.73,3.36-20.77,3.09-3.87,0-4.62-2-5.32-5.88-1.87-10.3-1.92-20.79-2.5-31.24-1-17.79-.62-35.62-1.1-53.42,0-5.73.16-16,.29-20.15.23-9.79,1.89-33.1,4.2-37.91,2.59-5.61,4.6-5.83,19.83-6.82,11.76.08,10.57,4.15,10.4,10.44-.43,10.44-.5,22-.81,30.62-.15,4.34-.3,33.23-.75,48.15a1.12,1.12,0,0,0,1.08,1.16c3.54.12,6.93.5,11.91.54.72,0,4.11.21,7.91.51a1.08,1.08,0,0,0,1.15-1.07c.12-9.69.28-20.18.51-26.86.14-8.68,0-18.53-.12-30.26.06-7.5-.19-16.76-.29-24.27-.05-4.34-.3-5.12,3.83-6.65,5.32-2.18,13.72-3.36,20.77-3.09,3.86,0,4.61,2,5.32,5.88,1.86,10.3,1.92,20.79,2.49,31.24C910.09,140.23,909.73,158.06,910.22,175.87Z"/><path class="cls-3" d="M996,168c-.78,14.31-.82,39.93-.79,49.65,0,3.1-.42,12.41-.89,16.83-.63,3.69-.89,6.59-3.8,7.92-4.42,2-18,.64-21.57-.35-3-.81-5-1.91-5.46-6.37-.22-2.19-.43-4.39-.68-6.57-.34-2.82-.65-3.14-2.87-1.72a32.57,32.57,0,0,1-11.2,4.11c-7.85,1.63-14.39-.46-20.28-7.35-3.23-3.65-8.71-14.45-8.27-30.87,1-11.5,2.88-18.73,12-27.1a29,29,0,0,1,23.34-6c2.77.57,5.79,1.75,6.53-1.53,1.49-6.69,1.62-14,2-21.86.53-12.71-2.42-23.86-4.6-27-1.47-2.09-3.21-2.44-5.24-1.14-2.8,1.72-4.34,6.41-4.3,11.74a134.36,134.36,0,0,0,.82,17.76c.48,4.93.35,9.39-3.74,10.92a38.7,38.7,0,0,1-17.12,2.34c-5.61,0-6.27-2.32-7.71-6-.92-2.37-3.23-15-3-25.33.11-9.6,2.6-18,7.93-23.93,5.19-6.26,10.62-9.9,22.48-10.46,21.18-.67,29.8,7.5,34.1,12.9,7.36,9.21,10.18,20.47,11.81,33.17C996.48,140.38,996.61,158,996,168Zm-34.06,23.52c-.58-4.95-3-8.07-8.14-6.95-4.42.95-7.67,3.94-7.63,9.78a23.78,23.78,0,0,0,.19,3.38c.68,4.39,2.76,6.41,6.7,6.62,5.36.29,8.31-1.32,8.88-7.4A28.75,28.75,0,0,0,961.91,191.51Z"/><path class="cls-3" d="M1097.84,199.37c-.77,8.13-2.11,17.13-5.79,24.18-4.14,7.9-8.62,13.83-15.28,16.29-2.92,1.08-10.13,1.72-14.84-1-8.26-4.81-12.52-12.38-16-22.67-3.81-11.28-4.25-21.64-5.14-33.59-.24-3.2.14-5.28-1.89-5.36-1.6-.15-1.93,1-2.42,5.69a128.78,128.78,0,0,0-.76,16.83c.08,7.17.07,18.89.22,27,.24,12.42-1.18,13-4.77,13.89s-8.87.94-11.63.88c-8.95-.2-12-1.14-12.92-2.61-1.07-1.81-1.27-7.16-1.27-10.1,0-12.05.31-22,.19-32.33-.08-6.19.19-12.38,0-18.57-.46-13.82.05-27.61.07-41.42,0-12.56.46-17.54,1.07-30,.1-2,1-11.68,1.24-14.45.44-5,.44-6.05,5.28-6,6.07,0,15.6-.11,22.57.56,8.25.79,17,1.94,24.45,4.67s10.18,4.32,16.55,9.26a41.67,41.67,0,0,1,14,19.11c2.58,6.69,4.2,20.27,1.16,28.53-3.55,9.65-7.52,13.18-17.23,19.26-6,3.78-11.35,3.66-10.71,8.68,1,8.23,1.83,16.91,3.54,25.13.19.91.81,4.77,2.11,6.94,1.86,3.12,3.8-3.38,4.41-6.44.51-2.52.89-6.11,1.23-8.1,1-5.87.91-6.88,7-6.16,7.28.87,11.68,3,12.71,3.55C1098.13,192.7,1098.42,193.29,1097.84,199.37Zm-35.09-69.6c-2-4.25-8.5-8.29-10.53-9.29-5-2.44-8.91-3.87-11.63-4.23-4.13-.55-4.13.56-4.38,2.76a152,152,0,0,0,0,23.61c.25,2.81,0,4.54,3.65,4.54,7.09,0,11.85.35,18.37-3.12A10.55,10.55,0,0,0,1062.75,129.77Z"/><path class="cls-3" d="M1198.39,199.48c-.77,8.14-2.1,17.13-5.79,24.18-4.13,7.91-8.62,13.83-15.27,16.29-2.93,1.09-10.14,1.72-14.84-1-8.27-4.8-12.52-12.38-16-22.66-3.82-11.29-4.26-21.64-5.14-33.59-.24-3.21.14-5.29-1.9-5.37-1.59-.15-1.93,1-2.41,5.69a127.13,127.13,0,0,0-.76,16.83c.08,7.17.06,18.9.22,27,.24,12.43-1.19,13-4.78,13.9s-8.87.93-11.62.87c-8.95-.19-12.06-1.14-12.93-2.6-1.07-1.82-1.26-7.17-1.26-10.1,0-12.06.3-22,.18-32.33-.07-6.19.2-12.39,0-18.57-.45-13.82.06-27.62.07-41.42,0-12.56.47-17.54,1.08-30,.1-2,1-11.68,1.24-14.45.43-5,.43-6.06,5.28-6,5.35,0,13.38-.08,20,.35,2.58.48,3.52.6,3.59,4.53.13,7.38-1.15,38.18-.86,43.76v4.78c-.13,1.95,3.13-1.05,4.47-2.21A49.47,49.47,0,0,0,1156,117.76c3.49-7.78,3.66-18,3.91-20.42.84-8.17-1.34-9.4,6.11-10.57,7.25-1.13,10.9-1.48,18.22-.62,7.82.92,6.25,3.09,6.08,12.35-.09,4.6-2.11,17.38-6.23,26.5-5.84,12.94-10.57,20.79-21.2,30.16.32,4.17,1.5,19.44,1.69,21,1,8.23,1.84,16.91,3.55,25.13.18.91.79,4.77,2.1,6.94,1.86,3.12,3.8-3.38,4.41-6.44.51-2.52.89-6.11,1.23-8.11,1-5.86.91-6.87,7-6.15,7.28.86,11.68,3,12.71,3.55C1198.69,192.81,1199,193.39,1198.39,199.48Z"/><path class="cls-3" d="M396.05,236.14c-.61,2.75-2.66,3.06-5.41,3.63-2.4.5-10.46,1.67-16.77.64-5-.81-6.68-.41-7-5.53-.16-5.46-.2-10.92-.44-16.38-.24-5.62-.35-6.44-5.87-6.59a32,32,0,0,0-9.8,1.14c-2.21.71-2.73,3.47-2.9,4.45a99.46,99.46,0,0,0-1.22,15.12c-.12,6.22.81,6.88-5.15,8.07-1.51.3-17-.5-23.24-1.32-3.94-.52-4.93-1.68-5.08-5.65-.2-5.45,0-27.44,2.65-56.94,3-25.76,7.31-48.84,9.35-58.95,2-8.19,2.23-12.73,4.91-21.92,2.16-7.41,4-7.41,10.72-8.54,11.19-1.72,27.3-.58,29.73,0,4.68,1.19,7.29,2.45,9.33,9.25A421,421,0,0,1,389,143c2.64,15,7,68.33,7.6,77.5C396.92,225.32,397.08,231.42,396.05,236.14Zm-35.61-48.46c2.82-.48,3.51-1,3.44-4.43,0-.89-.09-1.76-.17-2.64-1-10.21-1.85-20.44-3.09-30.62-1.16-9.45-1.28-13.28-3.3-23.55-.8-3.37-2.54-4.94-4.06,5.85-1.62,13.12-3,21.42-4.38,33.52-.85,7.59-1.32,11.65-1.64,19.27,0,4.09,1,4.64,6,4,2.42-.32,4.79-1,7.2-1.36Z"/></g></g></svg>