<svg xmlns="http://www.w3.org/2000/svg" width="75" height="75" viewBox="0 0 20 20">
  <defs>
    <clipPath id="a" clipPathUnits="userSpaceOnUse">
      <path d="M0 150a150 150 0 11300 0 150 150 0 11-300 0"/>
    </clipPath>
    <clipPath id="b" clipPathUnits="userSpaceOnUse">
      <path d="M150 300a150 150 0 110-300 150 150 0 110 300z"/>
    </clipPath>
  </defs>
  <g clip-path="url(#a)" transform="matrix(.06615 0 0 -.06615 0 20)">
    <path fill="red" d="M105 300h270V0H105z"/>
  </g>
  <g clip-path="url(#b)" transform="matrix(.06615 0 0 -.06615 0 20)">
    <path fill="#060" d="M-75 300h180V0H-75z"/>
    <path fill="#ff0" fill-rule="evenodd" d="M164 103c-23 1-127 66-128 76l6 10c10-15 117-78 127-76l-5-10"/>
    <path fill="#ff0" fill-rule="evenodd" d="M164 103h-2c-9 1-34 13-65 31-35 21-65 41-61 46l1 1c-3-8 57-43 61-45 35-22 65-34 67-31l-1-2M41 190c-2-5 27-23 62-45 35-21 65-34 68-32l1 2-3-1c-10 3-35 14-65 33a292 292 0 00-62 45l-1-2z"/>
    <path fill="none" stroke="#000" stroke-linecap="round" stroke-linejoin="round" stroke-width=".4" d="M164 103h-2c-9 1-34 13-65 31-35 21-65 41-61 46l1 1h0c-3-8 57-43 61-45 35-22 65-34 67-31l-1-2zM41 190c-2-5 27-23 62-45 35-21 65-34 68-32l1 2-3-1c-10 3-35 14-65 33a292 292 0 00-62 45h0l-1-2z"/>
    <path fill="#ff0" fill-rule="evenodd" d="M105 173c23 0 51 3 67 10l-4 5c-9-5-37-9-63-9-31 0-52 3-63 10l-3-6c20-8 40-10 66-10"/>
    <path fill="#ff0" fill-rule="evenodd" d="M170 188c-2-1-11-4-26-7a273 273 0 00-77 0c-15 2-23 6-26 7l1 1a271 271 0 01102-6c15 2 23 6 25 7l1-2m3-6c-1 0-11-4-27-7a274 274 0 00-80 0c-17 2-25 6-28 7l1 2c9-4 17-6 27-8a290 290 0 0180 1c16 3 24 6 26 7z"/>
    <path fill="none" stroke="#000" stroke-linecap="round" stroke-linejoin="round" stroke-width=".4" d="M170 188c-2-1-11-4-26-7a272 272 0 00-77 0c-15 2-23 6-26 7l1 1a271 271 0 01102-6c15 2 23 6 25 7zm3-6c-1 0-11-4-27-7a274 274 0 00-80 0c-17 2-25 6-28 7l1 2c9-4 17-6 27-8a290 290 0 0180 1c16 3 24 6 26 7l1-2z"/>
    <path fill="#ff0" fill-rule="evenodd" d="M31 146c14-8 45-12 74-12 27 0 61 4 74 11v8c-4-7-41-13-74-12-33 0-64 5-74 12v-7"/>
    <path fill="#ff0" fill-rule="evenodd" d="M180 153v-2c-2-2-14-5-29-8a305 305 0 00-121 8v2c7-4 25-7 31-8a287 287 0 01119 8m0-6v-2c-2-2-14-6-29-8a305 305 0 00-121 8v2c7-4 25-8 31-9a286 286 0 01119 9z"/>
    <path fill="none" stroke="#000" stroke-linecap="round" stroke-linejoin="round" stroke-width=".4" d="M180 153v-2c-2-2-14-5-29-8a305 305 0 00-121 8v2c7-4 25-7 31-8a286 286 0 01119 8zm0-6v-2c-2-2-14-6-29-8a305 305 0 00-121 8v2c7-4 25-8 31-9a287 287 0 01119 9h0z"/>
    <path fill="#ff0" fill-rule="evenodd" d="M105 105c-32 0-60 9-66 10l5-7c10-4 37-10 61-10 25 1 46 3 61 10l4 7c-10-5-45-10-65-10"/>
    <path fill="#ff0" fill-rule="evenodd" d="M171 116l-1-3c-4-1-14-4-29-6-10-1-16-3-36-3-37 1-60 8-66 10l-1 1c21-5 43-9 67-9 18 0 26 1 36 3 17 2 26 5 28 6l2 1m-4-6l-1-3a171 171 0 00-61-9c-29 0-52 5-63 10l-1 2h1l1-1a202 202 0 01124 0v1z"/>
    <path fill="none" stroke="#000" stroke-linecap="round" stroke-linejoin="round" stroke-width=".4" d="M171 116s0 0 0 0l-1-3c-4-1-14-4-29-6-10-1-16-3-36-3-37 1-60 8-66 10l-1 1c21-5 43-9 67-9 18 0 26 1 36 3 17 2 26 5 28 6 0 0 0 0 0 0l2 1zm-4-6l-1-3a171 171 0 00-61-9c-29 0-52 5-63 10l-1 2h1l1-1a201 201 0 01124 0z"/>
    <path fill="#ff0" fill-rule="evenodd" d="M105 224c41 0 74-33 74-74a74 74 0 00-148 0c0 41 33 74 74 74m67-72c0-21-11-40-20-49a70 70 0 00-47-19c-22-1-42 13-47 19a71 71 0 00-20 48 67 67 0 0069 66c17-1 36-9 50-25 9-11 13-23 15-40"/>
    <path fill="none" stroke="#000" stroke-linecap="round" stroke-linejoin="round" stroke-width=".4" d="M105 216c36 0 66-29 66-66s-30-66-66-66-66 29-66 66 30 66 66 66zm0 2c37 0 68-31 68-68s-31-68-68-68-68 31-68 68 31 68 68 68zm0 5a73 73 0 000-145c-40-1-73 32-73 72s33 73 73 73zm0 1a74 74 0 000-148 74 74 0 000 148z"/>
    <path fill="#ff0" fill-rule="evenodd" d="M107 225h-6V74h2v1h4v-1h2v151z"/>
    <path fill="none" stroke="#000" stroke-linecap="round" stroke-linejoin="round" stroke-width=".4" d="M103 75h4m-4 149h4M101 225h2V74h-2v151zm6 0h2V74h-2z"/>
    <path fill="#ff0" fill-rule="evenodd" d="M30 153c10 9 44 14 75 14 30 0 66-6 74-14v-6c-6 6-35 13-74 14-40 0-69-8-75-14v6"/>
    <path fill="none" stroke="#000" stroke-linecap="round" stroke-linejoin="round" stroke-width=".4" d="M179 153v-6m-149 6v-6"/>
    <path fill="#ff0" fill-rule="evenodd" d="M105 168c18 0 35-2 48-4 14-3 24-7 27-11v-2c-4 5-17 9-27 11a256 256 0 01-97 0c-10-2-25-7-26-11v2c1 3 11 8 26 10 13 3 30 5 49 5m0-7c18 0 35-1 48-4 14-3 24-6 27-10v-2c-4 5-17 8-27 10a256 256 0 01-97 0c-10-2-24-6-26-10v2c1 3 11 7 26 10 13 3 30 4 49 4"/>
    <path fill="none" stroke="#000" stroke-linecap="round" stroke-linejoin="round" stroke-width=".4" d="M105 168c18 0 35-2 48-4 14-3 24-7 27-11v-2c-4 5-17 9-27 11a256 256 0 01-97 0c-10-2-25-7-26-11v2c1 3 11 8 26 10 13 3 30 5 49 5zm0-7c18 0 35-1 48-4 14-3 24-6 27-10v-2c-4 5-17 8-27 10a256 256 0 01-97 0c-10-2-24-6-26-10v2c1 3 11 7 26 10 13 3 30 4 49 4z"/>
    <path fill="#ff0" fill-rule="evenodd" d="M105 200c27 0 51-4 62-9l4-7c-9 5-35 10-66 10-26-1-53-3-66-11l4 9c11 5 38 8 62 8"/>
    <path fill="none" stroke="#000" stroke-linecap="round" stroke-linejoin="round" stroke-width=".4" d="M168 190l3-5"/>
    <path fill="#ff0" fill-rule="evenodd" d="M105 201c15 0 30-1 42-3l21-7 2-3c-3 3-14 7-24 8a265 265 0 01-83 0c-11-2-18-4-21-6l2 2 19 6c11 2 26 3 42 3m0-6c16 0 31-1 43-3l24-7 1-3c-4 3-13 6-25 8s-27 3-43 3c-18 0-32-1-44-3s-21-6-23-7l1 2c4 2 11 5 22 7 12 2 26 2 44 3"/>
    <path fill="none" stroke="#000" stroke-linecap="round" stroke-linejoin="round" stroke-width=".4" d="M105 201c15 0 30-1 42-3l21-7 2-3c-3 3-14 7-24 8a265 265 0 01-83 0c-11-2-18-4-21-6l2 2 19 6c11 2 26 3 42 3zm0-6c16 0 31-1 43-3l24-7 1-3c-4 3-13 6-25 8s-27 3-43 3c-18 0-32-1-44-3s-21-6-23-7l1 2c4 2 11 5 22 7 12 2 26 2 44 3z"/>
    <path fill="#ff0" fill-rule="evenodd" d="M142 119c-14 3-27 3-37 3-46-1-61-10-63-12l-3 5c11 9 37 14 66 13 16 0 29-1 40-3l-3-6"/>
    <path fill="none" stroke="#000" stroke-linecap="round" stroke-linejoin="round" stroke-width=".4" d="M40 115l2-4"/>
    <path fill="#ff0" fill-rule="evenodd" d="M105 129c14 0 27-1 41-3l-1-2a210 210 0 01-91-3c-6-1-15-5-15-7l-1 1c0 3 8 6 15 8 17 5 35 6 52 6m0-6c12-1 25-1 37-3l-1-2c-11 2-23 3-36 3-17 0-34-2-49-6-5-1-13-4-14-7l-1 2c1 1 5 4 14 7 17 5 33 6 50 6"/>
    <path fill="none" stroke="#000" stroke-linecap="round" stroke-linejoin="round" stroke-width=".4" d="M105 129c14 0 27-1 41-3l-1-2a210 210 0 01-91-3c-6-1-15-5-15-7l-1 1c0 3 8 6 15 8 17 5 35 6 52 6zm0-6c12-1 25-1 37-3l-1-2c-11 2-23 3-36 3-17 0-34-2-49-6-5-1-13-4-14-7l-1 2c1 1 5 4 14 7 17 5 33 6 50 6z"/>
    <path fill="#ff0" fill-rule="evenodd" d="M43 192c22 0 128-65 128-77l-6-10c-3 14-110 77-128 76l6 11"/>
    <path fill="none" stroke="#000" stroke-linecap="round" stroke-linejoin="round" stroke-width=".4" d="M43 191l-6-9m134-68l-6-8"/>
    <path fill="#ff0" fill-rule="evenodd" d="M172 115c2 5-26 27-62 48-37 21-63 33-68 29l-1-2 3 1c9 0 32-11 65-30 15-8 62-39 62-47v-1l1 2M36 181c5 3 36-11 68-30 33-20 64-42 61-46l-1-2v2c-2 4-24 22-60 44-36 21-65 34-68 30v2z"/>
    <path fill="none" stroke="#000" stroke-linecap="round" stroke-linejoin="round" stroke-width=".4" d="M172 115c2 5-26 27-62 48-37 21-63 33-68 29l-1-2s0 0 0 0l3 1c9 0 32-11 65-30 15-8 62-39 62-47v-1zM36 181c5 3 36-11 68-30 33-20 64-42 61-46l-1-2h0v2c-2 5-24 22-60 44-36 21-65 34-68 30v2h0z"/>
    <path fill="#fff" fill-rule="evenodd" d="M60 142c0-12 5-23 14-32a44 44 0 0175 32v59H60v-59"/>
    <path fill="none" stroke="#000" stroke-width=".5" d="M60 142c0-12 5-23 14-32a44 44 0 0175 32v59H60z"/>
    <path fill="red" fill-rule="evenodd" d="M130 182v-41-3c-1-6-3-11-7-15-5-4-11-7-18-7s-13 3-18 8c-5 4-8 11-8 18v40h51m-68-40c0-12 5-23 13-30a43 43 0 0173 30v57H62v-57"/>
    <path fill="none" stroke="#000" stroke-width=".4" d="M130 182v-41-3c-1-6-3-11-7-15-5-4-11-7-18-7s-13 3-18 8c-5 4-8 11-8 18v40h51zm-68-40h0c0-12 5-23 13-30a43 43 0 0173 30v57H62v-57"/>
    <path fill="#039" d="M99 148l2-4 4-2 4 2 2 4v8H99v-8M99 129l2-4c1-2 3-2 4-2 2 0 3 0 4 2l2 4v8H99v-8M84 148l2-4 4-2 3 2c2 1 2 2 2 4v8H84v-8M115 148l2-4 4-2 4 2 1 4v8h-11v-8M99 168l2-5 4-1 4 1 2 5v8H99v-8"/>
    <path fill="#ff0" fill-rule="evenodd" d="M76 194v-3h-3v3h3M68 184c0 4 3 5 3 5s3-1 3-5h-6"/>
    <path fill="#ff0" fill-rule="evenodd" d="M65 189v-5h3c0 4 3 5 3 5s3-1 3-5h3l-1 5H65"/>
    <path fill="none" stroke="#000" stroke-width=".4" d="M65 189v-5h3c0 4 3 5 3 5s3-1 3-5h3l-1 5z"/>
    <path fill="#ff0" fill-rule="evenodd" d="M64 184h14l-1-1H64v1"/>
    <path fill="none" stroke="#000" stroke-width=".4" d="M64 184h14l-1-1H64v1s0 0 0 0z"/>
    <path fill="#ff0" fill-rule="evenodd" stroke="#000" stroke-width=".4" d="M69 184c0 3 2 4 2 4l1-4h-3"/>
    <path fill="#ff0" fill-rule="evenodd" d="M65 191h12v-1H65l-1 1h1"/>
    <path fill="none" stroke="#000" stroke-width=".4" d="M65 191h12s0 0 0 0v-1H65l-1 1h1z"/>
    <path fill="#ff0" fill-rule="evenodd" d="M65 190h12v-1H65l-1 1h1"/>
    <path fill="none" stroke="#000" stroke-width=".4" d="M65 190h12s0 0 0 0v-1H65l-1 1h1z"/>
    <path fill="#ff0" fill-rule="evenodd" d="M69 198h1v-1 1h1v-1h1v1h1v-1l-1-1h-3v2"/>
    <path fill="none" stroke="#000" stroke-width=".4" d="M69 198h1v-1h0v1h1v-1h1v1h1v-1l-1-1h-3v2z"/>
    <path fill="#ff0" fill-rule="evenodd" d="M72 196v-5h-3v5z"/>
    <path fill="none" stroke="#000" stroke-width=".4" d="M72 196v-5h-3v5h3"/>
    <path fill="#ff0" fill-rule="evenodd" d="M73 196h1v-1 1h1v-1h1v1h1v-2h-4v2"/>
    <path fill="none" stroke="#000" stroke-width=".4" d="M76 194v-3h-3v3h3zM73 196h1v-1h0v1h1v-1h1v1h1v-2h-4s0 0 0 0z"/>
    <path fill="#ff0" fill-rule="evenodd" d="M65 196h1v-1 1h1v-1h1v1h1v-2h-4v2"/>
    <path fill="none" stroke="#000" stroke-width=".4" d="M65 196h1v-1h0v1h1v-1h1v1h1v-2h-4s0 0 0 0v2z"/>
    <path fill="#ff0" fill-rule="evenodd" d="M68 194v-3h-3v3h3"/>
    <path fill="none" stroke="#000" stroke-width=".4" d="M68 194v-3h-3v3h3z"/>
    <path fill-rule="evenodd" d="M70 195h1v-2h-1v2M74 193h1v-1h-1v1M66 193h1v-1h-1v1"/>
    <path fill="#ff0" fill-rule="evenodd" d="M110 194l1-3h-4l1 3h2M102 184c0 4 3 5 3 5s3-1 3-5h-6"/>
    <path fill="#ff0" fill-rule="evenodd" d="M99 189v-5h3c0 4 3 5 3 5s3-1 3-5h3v5H99"/>
    <path fill="none" stroke="#000" stroke-width=".4" d="M99 189v-5h3c0 4 3 5 3 5s3-1 3-5h3v5z"/>
    <path fill="#ff0" fill-rule="evenodd" d="M99 184h13l-1-1H99l-1 1h1"/>
    <path fill="none" stroke="#000" stroke-width=".4" d="M99 184h13l-1-1H99l-1 1h1z"/>
    <path fill="#ff0" fill-rule="evenodd" stroke="#000" stroke-width=".4" d="M103 184c0 3 2 4 2 4s2-1 2-4h-4"/>
    <path fill="#ff0" fill-rule="evenodd" d="M99 191h13l-1-1H99l-1 1h1"/>
    <path fill="none" stroke="#000" stroke-width=".4" d="M99 191h13l-1-1H99l-1 1h1z"/>
    <path fill="#ff0" fill-rule="evenodd" d="M99 190h12v-1H99v1"/>
    <path fill="none" stroke="#000" stroke-width=".4" d="M99 190h12s0 0 0 0v-1H99v1s0 0 0 0z"/>
    <path fill="#ff0" fill-rule="evenodd" d="M103 198h1v-1h1v1-1h1v1h1v-1-1h-4v2"/>
    <path fill="none" stroke="#000" stroke-width=".4" d="M103 198h1v-1h1v1h0v-1h1v1h1v-1-1h-4v2z"/>
    <path fill="#ff0" fill-rule="evenodd" d="M106 196l1-5h-4l1 5z"/>
    <path fill="none" stroke="#000" stroke-width=".4" d="M106 196l1-5h-4l1 5h2"/>
    <path fill="#ff0" fill-rule="evenodd" d="M107 196h1v-1h1v1-1h1v1h1v-2h-4v2"/>
    <path fill="none" stroke="#000" stroke-width=".4" d="M110 194l1-3h-4l1 3h2zM107 196h1v-1h1v1h0v-1h1v1h1v-2s0 0 0 0h-4s0 0 0 0z"/>
    <path fill="#ff0" fill-rule="evenodd" d="M99 196h1v-1h1v1-1h1v1h1v-2h-4v2"/>
    <path fill="none" stroke="#000" stroke-width=".4" d="M99 196h1v-1h1v1h0v-1h1v1h1v-2s0 0 0 0h-4s0 0 0 0v2z"/>
    <path fill="#ff0" fill-rule="evenodd" d="M102 194l1-3h-4l1 3h2"/>
    <path fill="none" stroke="#000" stroke-width=".4" d="M102 194l1-3h-4l1 3h2z"/>
    <path fill-rule="evenodd" d="M105 195v-2 2M109 193v-1 1M101 193v-1 1"/>
    <path fill="#ff0" fill-rule="evenodd" d="M144 194v-3h-3v3h3M136 184c0 4 3 5 3 5s3-1 3-5h-6"/>
    <path fill="#ff0" fill-rule="evenodd" d="M133 189v-5h3c0 4 3 5 3 5s3-1 3-5h3v5h-12"/>
    <path fill="none" stroke="#000" stroke-width=".4" d="M133 189v-5h3c0 4 3 5 3 5s3-1 3-5h3v5z"/>
    <path fill="#ff0" fill-rule="evenodd" d="M133 184h13l-1-1h-12l-1 1h1"/>
    <path fill="none" stroke="#000" stroke-width=".4" d="M133 184h13l-1-1h-12l-1 1h1z"/>
    <path fill="#ff0" fill-rule="evenodd" stroke="#000" stroke-width=".4" d="M137 184c0 3 2 4 2 4s2-1 2-4h-4"/>
    <path fill="#ff0" fill-rule="evenodd" d="M133 191h12v-1h-12l-1 1h1"/>
    <path fill="none" stroke="#000" stroke-width=".4" d="M133 191h12s0 0 0 0v-1h-12l-1 1h1z"/>
    <path fill="#ff0" fill-rule="evenodd" d="M133 190h12v-1h-12v1"/>
    <path fill="none" stroke="#000" stroke-width=".4" d="M133 190h12s0 0 0 0v-1h-12v1s0 0 0 0z"/>
    <path fill="#ff0" fill-rule="evenodd" d="M137 198h1v-1 1h1v-1h1v1h1v-1-1h-4v2"/>
    <path fill="none" stroke="#000" stroke-width=".4" d="M137 198h1v-1h0v1h1v-1h1v1h1v-1-1h-4v2z"/>
    <path fill="#ff0" fill-rule="evenodd" d="M140 196l1-5h-4l1 5z"/>
    <path fill="none" stroke="#000" stroke-width=".4" d="M140 196l1-5h-4l1 5h2"/>
    <path fill="#ff0" fill-rule="evenodd" d="M141 196h1v-1 1h1v-1h1v1h1v-2h-4v2"/>
    <path fill="none" stroke="#000" stroke-width=".4" d="M144 194v-3h-3v3h3zM141 196h1v-1h0v1h1v-1h1v1h1v-2s0 0 0 0h-4s0 0 0 0z"/>
    <path fill="#ff0" fill-rule="evenodd" d="M133 196h1v-1 1h1v-1h1v1h1v-2h-4v2"/>
    <path fill="none" stroke="#000" stroke-width=".4" d="M133 196h1v-1h0v1h1v-1h1v1h1v-2s0 0 0 0h-4s0 0 0 0v2z"/>
    <path fill="#ff0" fill-rule="evenodd" d="M136 194v-3h-3v3h3"/>
    <path fill="none" stroke="#000" stroke-width=".4" d="M136 194v-3h-3v3h3z"/>
    <path fill-rule="evenodd" d="M139 195v-2 2M143 193v-1 1M135 193v-1 1"/>
    <path fill="#ff0" fill-rule="evenodd" d="M76 159v-3h-3v3zM68 149c0 5 3 6 3 6s3-1 3-6h-6"/>
    <path fill="#ff0" fill-rule="evenodd" d="M65 155v-5h3c0 4 3 4 3 4s3-1 3-4h3l-1 5H65"/>
    <path fill="none" stroke="#000" stroke-width=".4" d="M65 154v-4h3c0 4 3 4 3 4s3-1 3-4h3l-1 5z"/>
    <path fill="#ff0" fill-rule="evenodd" d="M64 150h13l1-1H64v1"/>
    <path fill="none" stroke="#000" stroke-width=".4" d="M64 150h13l1-1H64s0 0 0 0v1z"/>
    <path fill="#ff0" fill-rule="evenodd" stroke="#000" stroke-width=".4" d="M69 150c0 2 2 3 2 3l1-3h-3"/>
    <path fill="#ff0" fill-rule="evenodd" d="M65 156h12v-1H65l-1 1h1"/>
    <path fill="none" stroke="#000" stroke-width=".4" d="M65 156h12s0 0 0 0v-1H65l-1 1h1z"/>
    <path fill="#ff0" fill-rule="evenodd" d="M65 155h12v-1H65l-1 1h1"/>
    <path fill="none" stroke="#000" stroke-width=".4" d="M65 155h12s0 0 0 0v-1H65l-1 1h1z"/>
    <path fill="#ff0" fill-rule="evenodd" d="M69 163h4v-1l-1-1h-3v2"/>
    <path fill="none" stroke="#000" stroke-width=".4" d="M69 163h4v-1l-1-1h-3v2z"/>
    <path fill="#ff0" fill-rule="evenodd" d="M72 161v-5l-3 1v4h3"/>
    <path fill="none" stroke="#000" stroke-width=".4" d="M72 161v-5l-3 1v4h3"/>
    <path fill="#ff0" fill-rule="evenodd" d="M73 161h1v-1 1h1v-1h1v1h1v-2h-4v2"/>
    <path fill="none" stroke="#000" stroke-width=".4" d="M76 159v-3h-3v3zM73 161h1v-1h0v1h1v-1h1v1h1v-2h-4s0 0 0 0z"/>
    <path fill="#ff0" fill-rule="evenodd" d="M65 161h1v-1 1h1v-1h1v1h1v-2h-4v2"/>
    <path fill="none" stroke="#000" stroke-width=".4" d="M65 161h1v-1h0v1h1v-1h1v1h1v-2h-4s0 0 0 0z"/>
    <path fill="#ff0" fill-rule="evenodd" d="M68 159v-3h-3v3z"/>
    <path fill="none" stroke="#000" stroke-width=".4" d="M68 159v-3h-3v3h3z"/>
    <path fill-rule="evenodd" d="M70 160h1v-1h-1v1M74 158h1v-1h-1v1M66 158h1v-1h-1v1"/>
    <path fill="#ff0" fill-rule="evenodd" d="M137 118l-2-2-2 3 2 1zM124 118c3 2 6 1 6 1s2-3-1-6l-5 5"/>
    <path fill="#ff0" fill-rule="evenodd" d="M126 123l-4-3 3-2c2 3 5 1 5 1s1-3-1-6l2-2 3 4-8 8"/>
    <path fill="none" stroke="#000" stroke-width=".4" d="M126 123l-4-3 3-2c2 3 5 1 5 1s1-3-1-6l2-2 3 4-8 8z"/>
    <path fill="#ff0" fill-rule="evenodd" d="M122 120l9-9v-1h-1l-9 9v1h1"/>
    <path fill="none" stroke="#000" stroke-width=".4" d="M122 120l9-9v-1h-1l-9 9v1h1z"/>
    <path fill="#ff0" fill-rule="evenodd" d="M125 117c2 2 4 1 4 1s1-2-1-4l-3 3"/>
    <path fill="none" stroke="#000" stroke-width=".4" d="M125 117c2 2 4 1 4 1s1-2-1-4l-3 3"/>
    <path fill="#ff0" fill-rule="evenodd" d="M127 125l9-9v-1h-1l-9 9v1h1"/>
    <path fill="none" stroke="#000" stroke-width=".4" d="M127 125l9-9v-1h-1l-9 9v1h1z"/>
    <path fill="#ff0" fill-rule="evenodd" d="M127 124l8-8v-1h-1l-8 8v1h1"/>
    <path fill="none" stroke="#000" stroke-width=".4" d="M127 124l8-8v-1h-1l-8 8v1h1z"/>
    <path fill="#ff0" fill-rule="evenodd" d="M135 127l1-1h-1l1-1v1l1-1-1-1h2l-1-1h-1l-2 2v1l1 1"/>
    <path fill="none" stroke="#000" stroke-width=".4" d="M135 127l1-1h-1l1-1v1l1-1-1-1h2l-1-1h-1l-2 2v1l1 1z"/>
    <path fill="#ff0" fill-rule="evenodd" d="M136 123l-3-4-3 3 4 3 2-2"/>
    <path fill="none" stroke="#000" stroke-width=".4" d="M136 123l-3-4-3 3 4 3 2-2"/>
    <path fill="#ff0" fill-rule="evenodd" d="M136 122h1l-1-1h1l1-1h-1 1l1-1-1-1h-1l-2 3 1 1"/>
    <path fill="none" stroke="#000" stroke-width=".4" d="M137 118l-2-2-2 3 2 1 2-2zM136 122h1l-1-1h1l1-1h-1 1l1-1-1-1h-1l-2 3s0 0 0 0z"/>
    <path fill="#ff0" fill-rule="evenodd" d="M130 128l1-1v-1l1 1v-2l1 1v-1l-1-1-3 2v1l1 1"/>
    <path fill="none" stroke="#000" stroke-width=".4" d="M130 128l1-1h0v-1l1 1v-1h0v-1l1 1v-1l-1-1s0 0 0 0l-3 2v1z"/>
    <path fill="#ff0" fill-rule="evenodd" d="M132 124l-2-2-2 2 1 2z"/>
    <path fill="none" stroke="#000" stroke-width=".4" d="M132 124l-2-2-2 2 1 2z"/>
    <path fill-rule="evenodd" d="M134 123l-1-1 1 1M135 119h1l-1-1v1M130 125v-1h-1l1 1"/>
    <path fill="#ff0" fill-rule="evenodd" d="M144 159v-3h-3v3zM136 149c0 5 3 6 3 6s3-1 3-6h-6"/>
    <path fill="#ff0" fill-rule="evenodd" d="M133 155v-5h3c0 4 3 4 3 4s3-1 3-4h3v5h-12"/>
    <path fill="none" stroke="#000" stroke-width=".4" d="M133 154v-4h3c0 4 3 4 3 4s3-1 3-4h3v5l-12-1h0z"/>
    <path fill="#ff0" fill-rule="evenodd" d="M133 150h12l1-1h-14l1 1"/>
    <path fill="none" stroke="#000" stroke-width=".4" d="M133 150h12l1-1h-14l1 1z"/>
    <path fill="#ff0" fill-rule="evenodd" stroke="#000" stroke-width=".4" d="M137 150c0 2 2 3 2 3s2-1 2-3h-4"/>
    <path fill="#ff0" fill-rule="evenodd" d="M133 156h12v-1h-12l-1 1h1"/>
    <path fill="none" stroke="#000" stroke-width=".4" d="M133 156h12s0 0 0 0v-1h-12l-1 1h1z"/>
    <path fill="#ff0" fill-rule="evenodd" d="M133 155h12v-1h-12v1"/>
    <path fill="none" stroke="#000" stroke-width=".4" d="M133 155h12s0 0 0 0v-1h-12v1s0 0 0 0z"/>
    <path fill="#ff0" fill-rule="evenodd" d="M137 163h4v-1-1h-4v2"/>
    <path fill="none" stroke="#000" stroke-width=".4" d="M137 163h4v-1-1h-4v2z"/>
    <path fill="#ff0" fill-rule="evenodd" d="M140 161v-5l-3 1v4z"/>
    <path fill="none" stroke="#000" stroke-width=".4" d="M140 161v-5l-3 1v4h3"/>
    <path fill="#ff0" fill-rule="evenodd" d="M141 161h1v-1 1h1v-1h1v1h1v-2h-4v2"/>
    <path fill="none" stroke="#000" stroke-width=".4" d="M144 159v-3h-3v3zM141 161h1v-1h0v1h1v-1h1v1h1v-2h-4s0 0 0 0z"/>
    <path fill="#ff0" fill-rule="evenodd" d="M133 161h1v-1 1h1v-1h1v1h1v-2h-4v2"/>
    <path fill="none" stroke="#000" stroke-width=".4" d="M133 161h1v-1h0v1h1v-1h1v1h1v-2s0 0 0 0h-4s0 0 0 0z"/>
    <path fill="#ff0" fill-rule="evenodd" d="M136 159v-3h-3v3z"/>
    <path fill="none" stroke="#000" stroke-width=".4" d="M136 159v-3h-3v3z"/>
    <path fill-rule="evenodd" d="M139 160v-1 1M143 158c0 1 0 1 0 0v-1 1M135 158c0 1 0 1 0 0v-1 1"/>
    <path fill="#ff0" fill-rule="evenodd" d="M80 126l2-2-2-2-2 2zM81 113c-3 3-1 6-1 6s3 2 6-1l-5-5"/>
    <path fill="#ff0" fill-rule="evenodd" d="M76 115l3-4 2 3c-3 2-1 5-1 5s3 1 5-1l3 2-4 3-8-8"/>
    <path fill="none" stroke="#000" stroke-width=".4" d="M76 115l3-4 2 3c-3 2-1 5-1 5s3 1 5-1l3 2-4 3-8-8z"/>
    <path fill="#ff0" fill-rule="evenodd" d="M79 111l9 9v-1l-9-9v1"/>
    <path fill="none" stroke="#000" stroke-width=".4" d="M79 111l9 9s0 0 0 0v-1l-9-9s0 0 0 0v1z"/>
    <path fill="#ff0" fill-rule="evenodd" d="M82 114c-2 2-1 4-1 4s2 1 3-1l-2-3"/>
    <path fill="none" stroke="#000" stroke-width=".4" d="M82 114c-2 2-1 4-1 4s2 1 3-1l-2-3"/>
    <path fill="#ff0" fill-rule="evenodd" d="M74 116l9 9v-1l-8-9h-1v1"/>
    <path fill="none" stroke="#000" stroke-width=".4" d="M74 116l9 9s0 0 0 0v-1l-8-9h-1v1z"/>
    <path fill="#ff0" fill-rule="evenodd" d="M75 116l8 8h1v-1l-8-8h-1v1"/>
    <path fill="none" stroke="#000" stroke-width=".4" d="M75 116l8 8h1v-1l-8-8h-1v1z"/>
    <path fill="#ff0" fill-rule="evenodd" d="M72 124l1 1v-1l1 1h-1l1 1v-1l1 1h-1l1 1 1-1v-1l-2-2h-1l-1 1"/>
    <path fill="none" stroke="#000" stroke-width=".4" d="M72 124h1l1 1h-1l1 1v-1l1 1h-1l1 1 1-1v-1l-2-2h-1l-1 1z"/>
    <path fill="#ff0" fill-rule="evenodd" d="M76 125l4-3-3-3-3 4z"/>
    <path fill="none" stroke="#000" stroke-width=".4" d="M76 125l4-3-3-3-3 4 2 2"/>
    <path fill="#ff0" fill-rule="evenodd" d="M77 125v1l1-1v2l1-1v2l1-1v-1l-2-2-1 1"/>
    <path fill="none" stroke="#000" stroke-width=".4" d="M80 126l2-2-2-2-2 2z"/>
    <path fill="none" stroke="#000" stroke-width=".4" d="M77 125v1l1-1v1h0v1l1-1v1h0v1l1-1v-1l-2-2s0 0 0 0l-1 1z"/>
    <path fill="#ff0" fill-rule="evenodd" d="M71 119l1 1h1-1l1 1h1l-1 1h1l1-1-2-3h-1l-1 1"/>
    <path fill="none" stroke="#000" stroke-width=".4" d="M71 119l1 1h1-1l1 1h1l-1 1h1l1-1s0 0 0 0l-2-3h-1z"/>
    <path fill="#ff0" fill-rule="evenodd" d="M75 120l2-1-3-2-1 1z"/>
    <path fill="none" stroke="#000" stroke-width=".4" d="M75 120l2-1-3-2-1 1z"/>
    <path fill-rule="evenodd" d="M76 123c-1 0 0 0 0 0l1-1-1 1M80 124v1l1-1h-1M74 119h1v-1l-1 1"/>
    <path fill="#fff" d="M108 129a1 1 0 110-2 1 1 0 010 2M102 129a1 1 0 110-2 1 1 0 010 2M105 132l-1-1a1 1 0 012 0l-1 1M108 135l-1-1 1-1a1 1 0 010 2M124 148a1 1 0 110-2 1 1 0 010 2M118 148l-1-1 1-1a1 1 0 010 2M121 151a1 1 0 010-2l1 1-1 1M124 154l-1-1a1 1 0 111 1M118 154a1 1 0 110-2 1 1 0 010 2M108 148l-1-1 1-1 1 1-1 1M102 148a1 1 0 110-2 1 1 0 010 2M105 151a1 1 0 110-2 1 1 0 010 2M108 154a1 1 0 110-2 1 1 0 010 2M102 154a1 1 0 010-2 1 1 0 010 2M93 148a1 1 0 010-2 1 1 0 010 2M87 148l-2-1a1 1 0 013 0l-1 1M90 151l-2-1 2-1a1 1 0 010 2M93 154l-1-1 1-1a1 1 0 010 2M102 135a1 1 0 110-2 1 1 0 010 2"/>
    <path fill="#ff0" d="M87 154a1 1 0 010-2 1 1 0 010 2"/>
    <path fill="#fff" d="M102 174a1 1 0 110-2 1 1 0 010 2M108 174a1 1 0 010-2l1 1-1 1M105 171a1 1 0 110-2 1 1 0 010 2M108 168a1 1 0 110-3 1 1 0 010 3M102 168a1 1 0 110-3 1 1 0 010 3M87 154l-2-1a1 1 0 013 0l-1 1"/>
  </g>
</svg>
