<svg xmlns="http://www.w3.org/2000/svg" width="75" height="75" viewBox="6.25 6.25 62.5 62.5" fill-rule="evenodd">
    <g fill="#F26722">
        <path d="M37.5 68.38c-8.25 0-16-3.25-21.88-9-5.74-5.88-9-13.63-9-21.88s3.25-16 9-21.88c5.88-5.74 13.63-9 21.88-9s16 3.25 21.88 9c5.87 5.88 9 13.63 9 21.88s-3.25 16-9 21.88a31.15 31.15 0 0 1-21.88 9zm0-59c-7.5 0-14.63 2.87-19.88 8.24S9.38 30 9.38 37.5s2.88 14.63 8.26 19.88S30 65.61 37.5 65.61s14.63-2.87 19.88-8.25S65.61 45 65.61 37.5s-2.87-14.63-8.25-19.88S45 9.38 37.5 9.38zm0 0"/>
        <path d="M15 18.5c0 .13 0 .13.13.13 0 .12 0 .12.12.25V19h.13v-.13h.12v-.25c-.13 0-.13 0-.13-.12-.12 0 0 0 0-.13 0 0-.12-.12-.24-.12s-.13.13-.13.25c-.13 0 0 0 0 0zM39.13 8.12c0-.12 0-.12 0 0 0-.12 0-.12 0 0 0-.12 0-.12 0 0-.5-.12-1-.12-1.63-.12C29 8 21.37 11.63 16 17.38v.12h.13v.13c.12-.13.12 0 .25 0h.12c.13.12 0 .12.13.12 0 .13.25.5.25.5H17l.13.13v.12s.12 0 .12.13v.12h.13v.13s.12 0 .12.12v.38h.13v.12s.12 0 .12.13v.12h.13v.13H18v.25h.13s.12.25 0 .37c0 .13-.13.13-.25.38H18c0 .12 0 .12-.13.12v.38H18a.27.27 0 0 0 .25.25v.12h.13v.13h.25v.25h.12v.12h.13s0 .13.12.13v.12c.13 0 .13.13.25.13v.12h.63l.25.25h.25v.13h.25s0 .12.12.12.25.13.38.13h.62v.12c.25 0 .13 0 .25.13v.12h.13v.13h.25V24h.37v.13c.13 0 .25 0 .38.12h.12v-.13h.63V24c.12 0 .12.13.12.13h.5c0 .12.13.12.13.25h.12l.25.25v.12h.25c.13.13 0 .13.25.25 0 .13.13.13.25.25v.13c.13 0 .13.12.25.12h.13v.13h.12v.12c.13 0 .13.13.25.13V26c.13 0 .25.13.38.13.25 0 .37.12.62.12.13 0 .25 0 .25-.13H28v.25h.13v.13l.12.13V27h.13v.13h.12v.12l.13.13v.12h.12v.25c0 .13 0 .13.13.13 0 .12 0 .12-.13.12v.13c0 .25 0 .12.13.25l.12.12h.13c0-.13.12-.13.12-.25h.25c0 .13.13.25.13.25h.25v.13c.12 0 .12 0 .25.12V29v-.25c.25.13.12.13.12.25 0 0 .13 0 .13.13.12 0 .12-.13.37-.13v.13c.13.12.25 0 .38 0 0 .12.12.25.12.25h.25c0 .12 0 .12.13.25h.25c.12-.13 0-.13.25-.13 0-.13 0-.13-.13-.25h-.13v-.13h.25s.13 0 .13-.12v-.13c.13 0 .13 0 .25-.12.13 0 .13 0 .13.13s.12.12.12.25h.13v.12h.37v.13h-.13c0 .12 0 .12-.12.12v.25c0 .13.13.13.25.25h.25v.63h.13c0 .12 0 .25-.26.25 0 0 0 .12.13.12v.38c0 .12-.13.37-.13.37s-.12 0-.12.13c0 .25.13.25.38.25 0 .12-.13.12-.26.24v.26H33l-.13.12c-.12.13.13.13-.12.25 0 .13 0 .13.13.13v.12h-.26v.13c0 .24-.24.12-.37.24h-.13v.13H32v.5l-.13.13h-.12c0 .12-.13.24-.13.37h.13v.13h-.13c0 .12-.12.12-.25.12 0 .25.13.13.13.25h-.13v.13c0 .12 0 .12.13.24h.13v.13h-.13c.13 0 .25.13.38.25H32s0-.13.13-.13V36H32v.13h.13c-.13 0-.63.37-.76.5 0 .12-.12.24-.12.37 0 0 .13 0 .13.13 0 0-.13.12 0 .12 0 .13.12.13.12.25h-.13v.13c.13.12.25.12.38.24V38h.13s.12 0 .12.13v.12s.13 0 .13.13v.12c.12.13.24.13.24.25v.13c.13.12.26.24.38.24v.13h.13v.13s.12 0 .12.12v.13h.13v.24s.12 0 .12.13v1.13s-.13 0 0 0c0 0 .13 0 .13.12v.13l.12.12v.38c.13 0 .13 0 .13.12v.38h.12c0 .24.13.37 0 .62h-.13v.13h.13v.24h.13v.38H34v.13h.13l.12.12h.13l.24.25v.13c.13 0 .13.12.26.12v.13h.24v.12h.13v.13h.13V45h.24v.13H36l.13.12h.12v.13c.13 0 .13.12.25.12v.13h.13V46c.12.38 0 .75-.13 1.13 0 .12.13.24 0 .37h-.13v.13c0 .24-.12.5-.12.87h-.13v.25h.13c-.13.13-.13.38-.25.5v1.5c0 .13 0 .25-.13.38h-.12v.37h-.13v.63c-.12.24.26.37.13.62v.38h-.13v.24c0 .13 0 .38.13.5v.88c-.13 0-.13.13-.25.13V55s.13 0 .13.13h-.13v.12s-.13 0-.13.13v.5c0 .12-.12.24-.12.37v.13c-.13.12.13.12.13.24s0 .26-.13.38h-.13v.13H35c0 .12 0 .24-.13.24h-.12v.38h-.38v.13h.13s-.13.12 0 .24c0 0 .13 0 .13.13.12.13-.13.25-.13.38v.5c0 .12 0 .24-.13.37h-.12v.38c0 .12-.13.24-.13.5v.37h.13c0-.13.13-.13.13-.25h.12c.13.13 0 .13.13.13 0 .12 0 .12-.13.12v.13c0 .12-.13.37 0 .5v.12s0-.13 0 0c0 0-.13.13-.13.25h.13c0 .25 0 .25.13.38-.13 0-.13.12-.38.12 0 .13 0 .13.13.13v.12h-.26c0 .13 0 .13.13.13h-.13V63H34v.13h.13v.62c-.13 0-.13 0-.13.13v-.13h-.13v.13h-.12l.13-.13v-.13c-.13 0-.13.13-.26.13v-.13h-.12c-.13 0-.25 0-.38.13 0 0 0 .13.13.13-.13.12-.25.12-.25.37h.13v-.13h.24V64c0 .13 0 .13-.12.13v.12h.25v-.13h.25v.13h.13v.13H34c-.13.12-.13 0-.13.25H34v.12c-.13 0-.13 0-.13-.13v.75h-.12c0 .13 0 .38-.13.5h.13v-.12s.13 0 .13-.13c-.13.13-.13.13-.13.25h-.13V66c-.12.13-.12.13-.12.25a13.35 13.35 0 0 0 3.13.38s.12 0 .12-.13h.13c0-.25 0-.13-.26-.25 0-.13 0-.13.13-.25.13 0 .13.13.13.25.24 0 .24-.13.37-.13v-.37h-.13c0-.13 0-.13.13-.13 0-.12 0-.12.13-.12.12-.13.24-.13.24-.38.13 0 .26 0 .38-.12h.13v-.13c.12 0 .12-.12.24-.12 0-.13 0-.13.13-.13-.13 0-.13-.12-.25-.12h-.13.13c0-.25.13-.25 0-.38h-.5V64c-.13-.13-.13-.13-.25-.13 0-.12 0-.12-.13-.12 0-.13 0-.13-.12-.25 0-.13 0-.25.13-.25h.12v-.13c.13 0 .25-.12.38-.24H38v-.13h.5v-.13h-.13c0-.12 0-.12.13-.12h.13v-.63c0-.12.12-.24.12-.37l.13-.13h.24v-.12c-.12 0-.12-.13-.24 0h-.13s.13 0 .13-.13c.24 0 .24 0 .37.13v.13c.25 0 .13 0 .25-.13v-.38h-.25V61c-.25 0-.38-.13-.5-.25 0-.13 0-.25.13-.38h-.26l.13-.12v-.38s.13 0 .13-.12H39v.13h.13V60h.74v-.13c.13 0 .13-.12.26-.12 0-.13 0-.25.12-.38V59h.13v-.25c-.13 0-.13-.13-.26-.13 0-.24 0-.12.13-.24h.13a.27.27 0 0 0 .24.24c0-.12 0-.12-.12-.12H42v-.13h.63v-.12h.12v-.13h.13V58s.12 0 .12-.13v-.12s.13 0 .13-.13v-.24h.12c.13-.13.13-.26.13-.38-.13 0-.13-.13-.26-.13 0-.12 0-.12-.12-.12 0-.13-.13-.25.13-.25 0-.25-.13-.13-.26-.25v-.13h-.12l-.13-.12v-.13c-.12-.12 0-.12-.12-.24v-.26h.13c.12-.12.12-.37.12-.62h.13c-.13 0 0 .13 0 .25 0 .25 0 .38.12.5 0 .13.13.13.25.13h.13l.24.24h.26V56h.24v-.13c.26-.12.38.26.63.13v-.13c.13 0 .25 0 .38-.12 0-.13 0-.13.12-.13v-.37h.25v-.13l.13-.12v-.13c0-.12 0-.12.12-.12 0-.13 0-.25-.13-.25 0-.13 0-.13.13-.13 0-.12 0-.12.13-.12v-.13H46c0-.12.13-.12.13-.24h.12v-.13h.13c0-.13.12-.25.12-.38.13 0 .13 0 .25.13.13 0 .13 0 .13-.13 0 .13 0 .26-.13.38h-.13v.13h-.12v.24h.13c0-.12 0-.12.12-.12v-.13h.13v-.74c0-.13 0-.26.12-.26h.13v-.12l.12-.13v-.12c.13 0 .13-.13.25-.13h.13v-.24h.12v-.26s-.13-.12 0-.12v-.25h-.13v-.13h-.12V51s-.13 0-.13-.13v-.12h.13c.13-.13 0-.13 0-.25h.25c.13-.13.13-.13.38-.25l.12-.13h.13V50h.37s.13 0 .13-.13v-.12h.24s.13.13.13 0l.13-.13h.5c0-.12-.13-.12-.13-.24H50s.13.12.25 0v-.13h.5v-.13h.13c0 .13 0 .13.12.13h.38l.12-.13V49c.25 0 .25 0 .38-.25 0 0-.13 0-.13-.13v-.37l.13-.13c0-.12 0-.24.12-.24h.13c.12-.13.24-.13.24-.38.26 0 0 0 .13-.13.13 0 .13-.12.25-.12v-.13s.13 0 .13-.12v-.63c0-.12.24-.24.37-.24 0-.13 0-.13-.13-.13v-.25c0-.13 0-.13.13-.25 0 0 .13 0 .13-.13v-1.24c0-.13 0-.26.12-.38h-.13v-.13s.13 0 .13-.12v-.25c0-.13 0-.13.13-.13v-.37c.24 0 .24.13.37.25 0-.13.13-.13.13-.25h.12v-.13s.13 0 .13-.12 0-.25.12-.25v-.13s.13 0 .13-.12.12-.25.12-.38l.13-.12H55l.13-.13h.24c.13-.12.26-.12.26-.24V41h.12v-.25c0-.13.13-.13.13-.25v-1h-.13V39l-.13-.13v-.12h-.12v-.5s-.38-.25-.38-.13v.13-.13L55 38c-.25 0-.25 0-.38.13V38h-.12l-.13-.25h-.12c0-.25-.13-.13-.25-.25l-.25-.25h-.13s0-.13-.12-.13h-.13V37h-.5v-.13H52v-.12h-.38v.13h-.12v-.26c-.13 0-.13 0-.13-.12H51l-.25.25h-.13c-.24 0-.24-.13-.12-.25v-.13h-.13c0-.12 0-.12.13-.12 0-.13 0-.13-.25-.25v-.13s0-.12-.13-.12c-.24 0-.12 0-.37.13 0-.13 0-.13.13-.13v-.13h-.13l-.13-.12v-.13h-.24s0-.12-.13-.12h-.13v-.13L49 35h-.5c-.13.13-.13.13-.38.13v.12c0 .13 0 .13.13.13v.12H48v.13l-.13.12v.13h-.12v-.13h-.38v.13h-.24v-.13l-.26-.25v-.25h-.12c-.13 0-.13.13-.25.13v.5c.13-.13 0-.38 0-.5-.25 0-.25 0-.38.12h-.87v.13c-.13 0-.13.12-.25.24-.25 0-.88-.12-1 0h-.13c.13 0 .38-.12.5 0h.5c.13 0 .13-.12.26-.12v-.13h.74c.13 0 .26-.12.5-.12l.13-.25s.13 0 .13-.13v-.5h.12l.25-.24c0 .12 0 .12-.13.12 0 .13.13.13.13.25h.25s-.13 0-.13-.13v-.12c.13 0 .13 0 .13.13 0-.13.13-.26.13-.38-.13 0-.26 0-.26.13v.12H47c0-.13.13-.13.25-.25 0-.13 0-.13-.13-.13.13 0 .26 0 .38-.12v-.25h-.38v-.38H47v-.12c0-.13 0-.13.13-.25v-.5H47l-.13-.25c-.12 0-.12-.13-.24-.13V32h-.13v-.38c-.13-.12-.25-.12-.38-.25H46c-.25-.12-.25.13-.38-.12v.13-.13c-.24 0-.24-.13-.37-.13v.13h-.13v.13h-.87v.25-.38h-.13v-.13h-.24c-.13 0-.13 0-.13-.12h-.13v-.13c-.12.13-.12.25-.12.38v-.13l-.13.13V31h.13c0-.13.13-.13.13-.25v-.25h-.26v-.13s0-.12-.12-.12h-.13v-.13H43V30h-.25v-.13h-.25V30h-.63c-.12 0-.24.13-.37.13 0-.13.13-.13.13-.25h.74v-.25c0-.13 0-.13.13-.13 0-.13 0-.13-.13-.25h-.24v.13c-.13 0-.13-.13-.26-.13h-.24v-.13c0-.12-.13-.12-.13-.25h.25v-.12h-.88c0 .13 0 0 .13.13-.13 0-.25-.13-.25 0h-.25V29h-.88v-.13c-.24 0-.5-.12-.74-.12-.13 0-.26 0-.38.13-.13-.13-.13 0-.13-.13h.13v-.13h-.13v-.12l-.12-.13s0-.12-.13-.12c-.12-.13-.37 0-.5-.13s-.12-.12-.12-.25h-.13s-.12 0-.12.13v.13h.25l.13.12v.13c-.38 0-.5.12-.88.12v.25c0 .25 0 .13.13.25 0 .13 0 0 .12.13v.37c-.25 0-.25.13-.38.13v.12h-.12v-.13h-.13c0-.12-.12-.12-.12-.25h-.13v-.25c0-.25.13-.25.38-.25 0-.12 0-.12-.13-.25v-.12l-.12-.13h-.13c0-.12.13-.12.26-.25h.12V28h.25v-.13c-.13 0-.13 0-.13-.12h-.24v.13h-.13V28c0 .13 0 0-.13.13h-.5l-.12.12c-.13.13-.38.13-.63.13 0 .12-.12.12-.12.25 0 0 0-.13-.13-.13h-.12c-.13 0-.13.13-.25.13v.5H34v.25h-.13c-.12.12-.12.25-.24.37v.13c0 .12 0 .25-.13.25h-.13c-.12 0-.12-.13-.12-.25-.13-.13-.25-.13-.38-.25v-.13c-.12 0-.12-.13-.24-.13v-.25c-.26 0-.5-.12-.63-.12v.13h-.38v.12h-.12l-.13.13h-.12c-.25 0-.13-.13-.38-.13v.13c-.25 0-.25 0-.25-.13V29c-.12 0-.12-.13-.25-.13v-.12l-.12-.13c0-.12 0-.12-.13-.25V28H30v-.13c0-.12.13-.12.13-.12v-.25c0-.13 0-.25.12-.38h.13v-1h.12v-.37c-.13-.13-.25-.13-.5-.13v-.12c0-.13 0 0-.13-.13v-.12c-.25 0-.37 0-.62-.13l-.13-.12v.13h-.5v.12h-.75v-.13h-.25l.13-.12v-.13h.13c0-.12 0-.12.12-.25v-.12s0-.13-.13-.13v-.12H28c0-.13 0-.25.13-.38 0-.12 0-.12-.13-.25 0-.12.13-.12.25-.25v-.12.25h.13v.13h.12v-.25c.13-.25.25-.38.25-.63.13 0-.13 0 0-.25 0-.13 0-.13.13-.25H29V22c0-.13 0-.25.13-.38H29v-.12h-.75l-.13.13h-.25v.12h-.5c0 .13-.12.38-.12.5v.13s-.13 0-.13.12v.38H27c-.13 0-.25.25-.25.25h-.13s0-.13-.12-.13h-.25c-.25 0-.25.13-.38.25-.12-.13-.12 0-.37 0v.13H25c0-.13-.13-.13-.13-.25h-.5c0-.38-.25-.38-.25-.75H24c0-.13-.13-.13-.13-.25V22h-.12v-.13h-.13v-.12h-.12v-.25s-.13 0-.13-.13v-.12l-.12.13v-.63c0-.13.13-.25.13-.38V20h-.13v-1h.13c.12 0 .12-.13.12-.25h.13c0-.13.12-.13.12-.38h-.13v-.25h-.12v-.37c0-.13 0-.25.13-.25h-.13v-.13h.13c0-.12.12-.25.12-.37.25 0 .13 0 .25-.13h.13v-.12h.12v-.13h.13v-.12h.25l.12-.13v-.25h.13v-.25h.37v-.12h.25v-.13l.13.13h.25c.12 0 0 .13.12.13h.25c.13 0 .13-.13.38-.13v.13c.12 0 .12 0 .12.12.25 0 .25 0 .38-.13V16H27v.25s.25.13.38.13v-.13h.12c0-.13 0-.13-.13-.13 0-.12 0-.12.13-.25.13 0 .13.13.38.13v.13h.25v.12h.12v-.13H28c0-.12.13-.12.25-.12 0-.13 0-.13-.13-.13H28l-.13-.12v-.13h-.25v-.12h-.12.5v-.13h.38v.13h.25v-.13h.12v.26h.13v-.13H29v-.13s0 .13.13.13.12 0 .12-.13h.25v.13c0 .13.13.13.25.25h.13c0 .13 0 .13.12.25h.13s0 .13.12.13h.13c.12 0 .25-.13.37-.25.5 0 .25.24.38.5v.12h.12v.5c0 .13-.13.38 0 .38 0-.13.13-.13.13-.13h.12c0 .13-.13.25-.25.38 0 .25 0 .25.13.37l.12.13v.12h.13v.25s.12 0 .12.13 0 .12.13.25H32s0 .12.13.12h.12v-.13s-.13 0 0-.12v-.13h.13v-.87h-.13v-.38h-.13v-.12H32V17s-.13 0-.13-.13v-1.12c-.12-.13-.12 0-.12-.13v-.12h.13v-.25H32c0-.13.13-.25.13-.38v-.12c.12 0 .12 0 .24-.13v-.12c.26 0 .26 0 .38-.25h.13c.12 0 .12-.13.24-.13V14h.13c0-.13.13-.13.13-.25h.12c.13 0 .25-.13.38-.13H34c.13 0 0-.12.13-.12 0-.13.12-.13.12-.25.13 0 .13 0 .25-.13l-.13-.24h.26v-.13h.12c0-.13-.13-.13-.25-.25h.25v.13h.13l.24-.13H35v-.13h-.25v-.12c.13 0 .25 0 .38-.13v-.24c-.13 0-.38-.13-.38-.13v-.13l-.13-.12H35a.27.27 0 0 0-.25-.25h.13v-.13c.12.26.12.13.12.13-.13 0-.13 0-.13-.13H35v-.24h.13c0-.13.12-.26.12-.38v-.25h.25v-.13h.25V10v.13c-.13 0-.13.12-.25.12v.13h.13c-.13 0-.13.12-.26.12 0 0 .13.13.13.25h-.13V11h.13v-.13h.13v.26c.12 0 .24-.13.37-.13v-.38h-.13c0-.12.13-.12.13-.24-.25-.13-.13-.26-.13-.38.13 0 .26.13.26.13h.24s.26-.26.26-.38h.12c0-.13.13-.25.13-.38v-.24h-.13V9h.13v-.13c.12 0 .12-.12.24-.12v-.13s.13 0 .13-.12h.13l.12-.13h.25v-.12h.38v.13h.12c0-.13-.13-.13-.13-.13v-.13h.26v.13h.24v-.13h.13c.38.63.25.63.13.63 0-.13 0-.13-.13-.13V8.5H39c0-.13 0-.13-.13-.25.13-.13.13-.13.26-.13zm0 0"/>
    </g>
</svg>