<?xml version="1.0" encoding="utf-8"?>
<!-- Generator: Adobe Illustrator 25.2.1, SVG Export Plug-In . SVG Version: 6.00 Build 0)  -->
<svg width="140px" height="27px" version="1.1" id="Ebene_1"
	xmlns="http://www.w3.org/2000/svg"
	xmlns:xlink="http://www.w3.org/1999/xlink" x="0px" y="0px" viewBox="0 0 496.1 93" xml:space="preserve">
	<style type="text/css">
	.st0{fill:#FFC311;}
	.st1{fill:#FFFFFF;}
	</style>
	<g id="Ebene_2_1_">
		<g id="Ebene_1-2">
			<path class="st0" d="M77.2,0c0,0.3,0,13.4,0,13.7H3C3,13.5,3,4.2,3,0H77.2z"/>
			<path class="st0" d="M23.5,40.4l-0.2,0.8c0.1,0.1,0.3,0.1,0.4,0.1c0.9,0.1,1.8,0.4,2.7,0.8c1.4,0.8,3,1.4,4.6,1.8
			c-0.8,0.6-1.8,0.8-2.8,0.7c-0.8-0.1-1.6-0.3-2.4-0.5c-1.5-0.5-3.1-0.5-4.6,0c-0.2,0.1-0.5,0.1-0.7,0c-0.7-0.3-1.4-0.6-2.1-1
			C18,43,17.6,43,17.3,43.1c-0.9,0.2-1.8,0.6-2.5,1.2c-1.1,0.8-2.2,1.8-3.1,2.9c-0.9,1.1-1.9,2.1-2.8,3.2c-0.9,1-1.9,1.9-3,2.7
			l-4.1,3c-0.4-0.2-0.5-0.7-0.3-1.1c0,0,0,0,0,0c0.1-0.2,0.3-0.5,0.4-0.7C2,54,2.1,53.8,2.2,53.5c0.1-0.4-0.1-0.6-0.5-0.5
			c-0.2,0.1-0.4,0.1-0.6,0.2c0-0.3,0-0.5,0.1-0.8c0.5-1.5,1.2-2.9,2-4.2c1.4-2.4,2.9-4.7,4.4-7C8.2,40.1,9,39,9.6,37.9
			c0.4-0.7,0.4-0.7-0.1-1.2c-0.9-0.9-1.7-1.8-2.6-2.6c-1.3-1.2-2.7-2.4-4.1-3.6c-0.8-0.7-1.5-1.4-2.2-2.1c-0.2-0.2-0.4-0.3-0.6-0.5
			v-0.8l0.3-0.5c0.1-0.3,0.3-0.5,0.5-0.7c0.3-0.3,0.6-0.7,0.7-1.2c0.1-0.5,0.4-0.9,0.9-0.9c0.1,0,0.2-0.1,0.3-0.1
			c-0.1-0.6-0.1-1.1,0.1-1.7c0.5-0.1,1-0.5,1.2-1c0.3-0.5,0.4-0.5,1.3-0.7c0-0.2,0.1-0.5,0.2-0.7c0-0.2,0-0.4,0-0.6
			c0-0.2,0.1-0.4,0.4-0.5c0,0,0.1,0,0.1,0c0.6-0.1,1.2,0,1.7,0.3C8,19,8.2,19.2,8.5,19.4c1.6,1.3,3.3,2.7,4.9,4l4.5,3.7l0.6,0.4
			c0.3-0.2,0.5-0.3,0.8-0.5c1.3-0.9,2.5-2,3.6-3.2c1.2-1.4,2.6-2.6,4-3.8c0.4-0.3,0.9-0.6,1.4-1c0.1,0.3,0.2,0.5,0.2,0.6
			c0.2,0.8,0.4,0.9,1.3,0.6c-0.1,0.2-0.1,0.3-0.2,0.5c-0.7,1.1-1.5,2.2-2.2,3.4s-1.3,2.1-1.9,3.1c-0.5,1.1-0.9,2.2-0.9,3.4
			c-0.1,0.7,0.2,1.5,0.9,1.9c0.4,0.3,0.8,0.5,1.2,0.8c0.4,0.2,0.8,0.4,1.3,0.5c1,0.3,2,0.9,2.8,1.7c0.5,0.5,1.1,0.9,1.6,1.4
			c0.8,0.7,1.9,1.1,3,1.1c0.1,0,0.3,0,0.4,0.1l-0.1,1.1c-0.3,0.1-0.7,0.2-1.1,0.1C33.7,39.1,33,39,32.3,39c-0.4,0-0.8,0-1.2,0
			c-0.4,0.1-0.5,0.3-0.3,0.7c0.1,0.1,0.2,0.2,0.2,0.3c0.1,0.1,0.2,0.2,0.3,0.4s0.3,0.4,0.1,0.7c-0.2,0.1-0.4,0.2-0.6,0.1
			c-0.4-0.1-0.8-0.2-1.1-0.3c-0.2,0-0.3-0.1-0.5-0.2l-0.9,1.2c0,0-0.1,0-0.2,0c-0.2-0.2-0.1-0.5,0-0.7s0.2-0.7,0.4-1
			c0.1-0.4,0.2-0.8,0-1.2c-0.1-0.4-0.1-0.5,0.3-0.7c0.2-0.1,0.3-0.1,0.5-0.2s0.4-0.2,0.6-0.3c-0.2-0.8-0.8-1.2-1.5-1
			c-0.7,0.2-1.3,0.4-1.9,0.6c-0.4,0.2-0.9,0.3-1.3,0.2c-0.3,0.5-0.5,1-0.8,1.4s-0.6,0.8-1,1.2c0-0.1,0-0.4-0.1-0.4
			c-0.4-0.2-0.5-0.5-0.7-0.9c0-0.1-0.1-0.1-0.3-0.2c-0.6,1-1.6,1.4-2.7,2.1l0.4,0.1c-1.3,0.2-1.5,0.4-1.4,1.4c0.3,0,0.5,0,0.8,0
			c0.5,0,1-0.3,1.2-0.9c0.1-0.3,0.3-0.6,0.5-0.8c0.4-0.2,0.9-0.4,1.4-0.5c-0.2,0.6-0.9,0.4-1.1,0.9l0.6,0.2L23.5,40.4z M23.2,36.2
			c-0.2,0.3-0.3,0.7-0.7,0.7c-0.1,0-0.2,0.2-0.2,0.4c0,0.3,0,0.6,0,0.9c0.5,0.2,0.8,0.1,1.1-0.2C23.7,37.4,23.6,36.7,23.2,36.2z
			 M24.6,35c0,0.2,0,0.4,0,0.6c-0.1,0.2-0.2,0.4-0.4,0.6L25,37c0.3-0.4-0.2-0.7-0.3-1.1l0.6-0.7c0.7,0.5,0.7,0.5,1,0.2
			C26,34.9,25.2,34.7,24.6,35z M16.1,29.4c-0.4,0-0.6,0.2-0.6,0.5c0,0.2,0.1,0.5,0.4,0.5c0.2,0,0.3,0,0.5-0.1
			c0.1-0.1,0.1-0.3,0.1-0.5C16.3,29.8,16.2,29.6,16.1,29.4L16.1,29.4z"/>
			<path class="st1" d="M10.7,56.9c0.7-0.9,1.1-1,2-0.5c0.1,0.1,0.3,0.2,0.5,0.3c0.2,0.1,0.5,0.1,0.7,0.1c0.4-0.1,0.9-0.1,1.4,0
			c0.1,0.6,0.1,1.2,0.2,1.7c0.7,4.6,2.6,8.9,5.5,12.5c3.1,3.7,7.3,6.3,12,7.3c3.1,0.8,6.3,1,9.5,0.8c2.3-0.1,4.6-0.6,6.8-1.3
			c5.9-1.9,10.8-6.3,13.3-12c1.4-2.9,2.2-6,2.5-9.1c0.1-1.5,0.2-3,0.2-4.5c0-5.5,0-17.2,0-17.5H40.2L40.2,21h36.9c0,0,0,21.5,0,31.9
			c0,4.1-0.4,8.2-1.4,12.2c-1.3,5.8-4,11.1-7.8,15.7c-4.3,5.1-10,8.9-16.5,10.7c-4.6,1.3-9.4,1.8-14.2,1.5c-4.4-0.2-8.8-1.2-12.9-3
			c-7.1-3.1-12.9-8.6-16.4-15.5c-1.5-2.8-2.6-5.7-3.3-8.8c-0.2-0.8-0.3-1.6-0.2-2.4c0-0.2,0-0.5,0.4-0.4c0.1-0.3,0-0.7,0.3-0.9
			c0.3,0,0.4,0.3,0.6,0.6c0.3,0.6,0.6,0.8,1,0.7s0.6-0.5,0.6-1.1c0-0.1,0-0.1,0-0.2c-0.1-1.1,0.3-2.2,1.1-3c0.5-0.5,0.9-1,1.3-1.5
			C10.1,57,10.3,56.8,10.7,56.9z"/>
			<path class="st1" d="M128.3,75.2H92.9l-7,16.4H72.4l31.9-70.9h13l32,70.9h-13.8L128.3,75.2z M124,64.9l-13.4-31l-13.3,31H124z"/>
			<path class="st1" d="M165.6,87.9c-5.6-3-10.3-7.5-13.6-13c-3.3-5.7-5-12.2-4.9-18.7c-0.1-6.6,1.6-13.1,5-18.7
			c3.3-5.5,8-10,13.6-13c5.9-3.2,12.6-4.8,19.3-4.7c5.4-0.1,10.9,0.9,15.9,3c4.7,1.9,8.8,5,12.1,8.8l-8.5,8
			c-4.8-5.4-11.7-8.4-18.9-8.3c-4.6-0.1-9.1,1-13.1,3.2c-3.8,2.1-6.9,5.1-9,8.9c-2.2,3.9-3.3,8.4-3.2,12.9
			c-0.1,4.5,1.1,8.9,3.3,12.9c2.1,3.7,5.2,6.8,9,8.9c4,2.2,8.5,3.3,13.1,3.2c7.2,0.1,14.2-3,18.9-8.4l8.5,8.1
			c-3.3,3.9-7.5,6.9-12.2,8.8c-5.1,2.1-10.5,3.1-15.9,3C178.2,92.7,171.5,91.1,165.6,87.9z"/>
			<path class="st1" d="M245.1,62l-11.2,11.5v18.1h-13.2V20.7h13.2v36.3l35-36.3h14.8l-29.7,31.7l31.6,39.2h-15.4L245.1,62z"/>
			<path class="st0" d="M302.5,88.3c-12-6.2-19.4-18.6-19.2-32.1c-0.2-13.5,7.2-25.9,19.2-32.1c12.7-6.3,27.7-6.3,40.4,0
			c12,6.2,19.4,18.6,19.2,32.1c0.2,13.5-7.2,25.9-19.2,32.1C330.2,94.6,315.2,94.6,302.5,88.3z M332.5,73.9c2.9-1.7,5.3-4.2,6.9-7.1
			c1.7-3.3,2.6-6.9,2.5-10.6c0.1-3.7-0.8-7.3-2.5-10.6c-1.6-3-4-5.4-6.9-7.1c-6-3.4-13.4-3.4-19.4,0c-2.9,1.7-5.3,4.2-6.9,7.1
			c-1.7,3.3-2.6,6.9-2.5,10.6c-0.1,3.7,0.8,7.3,2.5,10.6c1.6,3,4,5.4,6.9,7.1C319,77.3,326.4,77.3,332.5,73.9L332.5,73.9z"/>
			<path class="st0" d="M432.8,20.7v70.9h-16.5L385,53.8v37.8h-19.6V20.7h16.5l31.3,37.8V20.7H432.8z"/>
			<path class="st0" d="M496.1,76.1v15.5h-56.9V20.7h55.6v15.5H459v12h31.5v15H459v13L496.1,76.1z"/>
		</g>
	</g>
</svg>
