<svg xmlns="http://www.w3.org/2000/svg" width="75" height="75" viewBox="0 0 75 75">
    <g fill="none" fill-rule="evenodd">
        <path fill="#016AA7" d="M1.17643939,28.6051705 C6.13666667,8.55460227 26.4097727,-3.66793561 46.4540909,1.29361742 C66.5037121,6.25289773 78.7268182,26.5229735 73.7669697,46.570322 C68.8056061,66.6171023 48.5359091,78.8449432 28.4876136,73.8824432 C8.4417803,68.9231629 -3.78776515,48.6519508 1.17643939,28.6051705"/>
        <path fill="#FCCC08" d="M74.2926326,31.0417424 L44.1539962,31.0417424 L44.1539962,0.801780303 C39.5850568,-0.0325 35.0361932,0.00462121212 30.6896023,0.808598485 L30.6896023,31.0417424 L0.660056818,31.0417424 C-0.157367424,35.6104924 -0.102443182,40.1580303 0.717064394,44.5008333 L30.6896023,44.5008333 L30.6896023,74.355947 C35.2575947,75.2031061 39.8064583,75.1771591 44.1539962,74.3851136 L44.1539962,44.5008333 L74.2164962,44.5008333 C75.079375,39.9370076 75.0676326,35.3898485 74.2926326,31.0417424"/>
    </g>
</svg>