<?xml version="1.0" encoding="utf-8"?>
<!-- Generator: Adobe Illustrator 21.0.2, SVG Export Plug-In . SVG Version: 6.00 Build 0)  -->
<svg version="1.1" xmlns="http://www.w3.org/2000/svg" xmlns:xlink="http://www.w3.org/1999/xlink" x="0px" y="0px"
	 viewBox="0 0 605.5 141.9" style="enable-background:new 0 0 605.5 141.9;" xml:space="preserve">
<style type="text/css">
	.st0{fill:#FFFFFF;}
	.st1{fill:#FFD000;}
</style>
<g id="Layer_2">
	<g>
		<path class="st0" d="M372.1,69.9l-5.5,17.8h11.1L372.1,69.9z M359.6,110.4h-15L369.3,38h6.7l24.9,72.3h-16l-3.1-9.8h-19.3
			L359.6,110.4z"/>
		<g>
			<path class="st0" d="M423.4,77.2c2.3,0,4.2-0.3,5.8-1c1.5-0.6,2.8-1.5,3.7-2.6c0.9-1.1,1.6-2.4,2-3.9c0.4-1.5,0.6-3.1,0.6-4.7
				c0-1.6-0.2-3.2-0.6-4.7c-0.4-1.5-1.1-2.8-2-3.9c-1-1.1-2.2-1.9-3.7-2.6c-1.5-0.6-3.4-1-5.8-1h-1.7v24.2H423.4z M453.7,110.4
				h-16.6l-9.9-20.3c-0.7,0.1-1.5,0.1-2.3,0.2c-0.8,0-1.5,0.1-2.3,0.1h-0.9v20.1h-15.2V38.5H418c5.2,0,9.8,0.5,13.9,1.5
				c4.1,1,7.5,2.5,10.3,4.6c2.8,2.1,4.9,4.9,6.4,8.3c1.5,3.4,2.2,7.5,2.2,12.2c0,4.7-0.8,8.7-2.4,12c-1.6,3.3-3.9,6-6.9,8.2
				L453.7,110.4z"/>
		</g>
		<polygon class="st0" points="453.2,38.5 469.4,38.5 482,76.2 494.3,38.5 509.4,38.5 484.9,110.9 478.1,110.9 		"/>
		<path class="st0" d="M531,69.9l-5.5,17.8h11.1L531,69.9z M518.6,110.4h-15L528.3,38h6.7l24.9,72.3h-16l-3.1-9.8h-19.3L518.6,110.4
			z"/>
		<polygon class="st0" points="553.3,38.5 553.3,53.1 569.4,53.1 569.4,110.4 585,110.4 585,53.1 601,53.1 601,38.5 		"/>
		<g>
			<path class="st1" d="M335.5,61.5c0,0,5-15-1.4-20.1c-5.1-4-15.1-2.5-15.1-2.5s10.7-7.9,18.5-1.4
				C345.4,45.1,335.5,61.5,335.5,61.5 M327.1,30.5c-5,1.1-11,3.7-15.2,6.9c-5.5,4.2-10.4,8.7-14,14.2c-0.8-6.5-1.3-11.5-3.2-17.4
				c-1.8-5.5-4.9-9.3-10.4-10.4c-5.2-1-12,3.1-14.7,7.2c-8.5,13-6.7,23.2-5.7,38.5c0.9,13.8,5.6,32.4,14.3,43.9
				c3.1,4.1,4.6,6.8,8.3,3.6c23.2-22,29.8-28,36.9-34.4c9.4-9.2,20-20.8,21.2-34.7C345.5,36.7,337.5,28.2,327.1,30.5"/>
			<path class="st0" d="M11.8,109c-3.3-1.1-5.9-2.1-7.8-3.1l3.3-7.1c1.6,0.8,3.8,1.7,6.8,2.7c2.9,1,6,1.4,9.3,1.4
				c4.1,0,7.2-0.9,9.3-2.7c2.1-1.8,3.1-4.3,3.1-7.5c0-1.6-0.4-3.2-1.1-4.6c-0.7-1.4-1.7-2.8-2.9-4.1c-1.2-1.3-2.6-2.6-4.1-3.8
				c-1.6-1.3-3.2-2.5-4.8-3.7c-2-1.5-4-3-5.9-4.6c-2-1.6-3.7-3.2-5.3-5C10.1,65,8.9,63,7.9,60.9c-1-2.1-1.4-4.5-1.4-7.1
				C6.5,51,7,48.5,8,46.4c1-2.1,2.4-3.9,4.1-5.3c1.7-1.4,3.8-2.5,6.1-3.2c2.4-0.7,4.9-1,7.6-1c3.8,0,7,0.3,9.6,1s4.4,1.3,5.4,1.8
				l-2.6,7.5c-1.9-0.7-4-1.3-6.1-1.8c-2.2-0.4-4.3-0.7-6.4-0.7c-3.4,0-6.1,0.8-8,2.3c-1.9,1.5-2.9,3.8-2.9,6.7
				c0,1.6,0.4,3.2,1.1,4.6c0.7,1.4,1.7,2.7,2.9,4c1.2,1.3,2.6,2.5,4.2,3.7c1.6,1.2,3.2,2.5,4.9,3.7c1.9,1.4,3.8,2.9,5.8,4.5
				c1.9,1.6,3.7,3.3,5.2,5.1c1.5,1.8,2.8,3.8,3.7,6c1,2.2,1.4,4.6,1.4,7.3c0,5.5-1.8,9.9-5.4,13.2c-3.6,3.2-8.8,4.9-15.7,4.9
				C18.9,110.6,15.1,110,11.8,109"/>
			<path class="st0" d="M60.4,104.3c-3.5-4.4-5.2-11.3-5.2-20.7V37.7h8.3v45.5c0,6.8,1,11.8,3.1,15c2.1,3.2,5.4,4.8,10.1,4.8
				c4.6,0,8-1.6,10.1-4.8c2.1-3.2,3.2-8.2,3.2-15V37.7h8v45.9c0,9.4-1.8,16.2-5.3,20.7c-3.5,4.4-8.9,6.7-16.1,6.7
				C69.2,110.9,63.9,108.7,60.4,104.3"/>
			<path class="st0" d="M141.3,100.5c2.1-1.5,3.8-3.5,5.3-6.1c1.4-2.6,2.5-5.6,3.2-9.2c0.7-3.5,1.1-7.3,1.1-11.3
				c0-4-0.4-7.8-1.1-11.3c-0.7-3.5-1.8-6.6-3.2-9.2c-1.4-2.6-3.2-4.7-5.3-6.2c-2.1-1.5-4.5-2.3-7.2-2.3c-2.7,0-5.1,0.8-7.2,2.3
				c-2.1,1.5-3.8,3.5-5.3,6.1c-1.4,2.6-2.5,5.6-3.2,9.2c-0.7,3.5-1.1,7.3-1.1,11.3c0,4,0.4,7.8,1.1,11.4c0.7,3.5,1.8,6.6,3.2,9.2
				c1.4,2.6,3.2,4.6,5.3,6.1c2.1,1.5,4.5,2.3,7.2,2.3C136.8,102.8,139.2,102,141.3,100.5 M123.6,108.1c-3.1-1.8-5.7-4.3-7.9-7.5
				c-2.2-3.2-3.9-7.1-5-11.7c-1.2-4.5-1.7-9.6-1.7-15.1c0-5.5,0.6-10.6,1.7-15.1c1.2-4.5,2.8-8.4,5-11.7c2.2-3.2,4.8-5.7,7.9-7.5
				c3.1-1.8,6.6-2.7,10.5-2.7c3.9,0,7.4,0.9,10.5,2.7c3.1,1.8,5.8,4.3,8,7.5c2.2,3.2,3.9,7.1,5.1,11.6c1.2,4.5,1.7,9.5,1.7,15
				c0,5.5-0.6,10.6-1.7,15.1c-1.2,4.5-2.8,8.4-5.1,11.7c-2.2,3.2-4.9,5.8-8,7.6c-3.1,1.8-6.6,2.7-10.5,2.7
				C130.2,110.8,126.7,109.9,123.6,108.1"/>
		</g>
		<polygon class="st0" points="173.7,36.9 176.8,36.9 198.2,91.3 219.6,36.9 222.6,36.9 226.8,109.8 218.6,109.8 216,64.1 
			198.9,108.5 196.9,108.5 179.9,64.5 177.3,109.8 169.5,109.8 		"/>
		<rect x="239.7" y="37.7" class="st0" width="8.3" height="72.2"/>
	</g>
</g>
<g id="Layer_1">
</g>
</svg>
