<?xml version="1.0" encoding="UTF-8"?>
<svg width="97px" height="34px" viewBox="0 0 97 34" version="1.1" xmlns="http://www.w3.org/2000/svg" xmlns:xlink="http://www.w3.org/1999/xlink">
    <!-- Generator: sketchtool 55.2 (78181) - https://sketchapp.com -->
    <title>D38150DB-E6C6-45F9-8DFA-76F4D0F638E1@2x</title>
    <desc>Created with sketchtool.</desc>
    <g id="NA---JALLA-CASINO---UI-Kit" stroke="none" stroke-width="1" fill="none" fill-rule="evenodd">
        <g id="00---Cover-Copy" transform="translate(-186.000000, -226.000000)" fill-rule="nonzero">
            <g id="Group-2" transform="translate(96.000000, 221.000000)">
                <g id="Jalla-Horizontal-Reversed-Copy" transform="translate(90.461538, 5.076923)">
                    <path d="M2.73431288,33.7681936 C2.57827528,33.7316563 2.4301185,33.6672403 2.29697494,33.5780467 C1.77977528,33.2224719 1.7474503,32.5892826 1.94900605,32.0968021 C2.35401901,31.108038 3.04615385,30.2181504 3.43025065,29.2160761 C3.69835782,28.5144339 3.49870354,27.8051858 3.28003457,27.080726 C2.55367329,24.6753673 1.17320657,22.4221262 0.598962835,19.9654278 C-0.439239412,15.5273984 0.44494382,10.9562662 3.85237684,7.51840968 C6.37752809,4.97804667 10.2432152,3.31996543 14.0138289,2.15626621 C19.8532411,0.355574762 26.3980985,-0.211063094 32.781331,0.467761452 C37.1547105,0.933621435 41.3854797,2.14485739 44.5970614,4.8088159 C50.0942092,9.37234226 51.0829732,16.6283492 48.1261884,22.0190147 C46.9282627,24.2038029 44.8575627,25.9968885 42.4503025,27.3735523 C35.0212619,31.6233362 24.9092481,32.9296456 15.8449438,30.2713915 C14.8942092,29.993777 14.0024201,29.7884183 12.9927398,29.8701815 C11.8309421,29.9671564 10.8079516,30.4406223 9.82299049,30.9159896 C8.56802074,31.4864304 7.35108038,32.0987035 6.10561798,32.6900605 C5.27847882,33.0836646 4.52169404,33.6655143 3.52912705,33.806223 C3.2641964,33.8445234 2.99437654,33.8316134 2.73431288,33.7681936 Z" id="Combined-Shape" fill="#662D91"></path>
                    <path d="M12.454624,18.0069144 C12.4987993,19.3013931 12.0778762,20.5688843 11.2681072,21.5797753 C10.5259262,22.5367566 9.42899745,23.153779 8.22575627,23.2910977 C7.02744071,23.4593547 5.82110646,23.0428653 4.98184961,22.1711322 C4.09766638,21.2698358 3.62800346,20.0357822 3.53673293,18.4518583 C3.42264477,17.0238548 4.75367329,16.2936906 5.76905791,16.4572169 C6.48971478,16.5085566 7.08487468,17.1151253 7.14001729,18.0449438 C7.1951599,18.9747623 7.50129646,19.6859118 8.00518583,19.6402766 C8.5642178,19.6649957 8.77908384,18.7941227 8.85133967,17.8224719 C8.8927284,17.4029609 8.90416619,16.9810335 8.88556612,16.5598963 L8.83042351,15.1185825 L8.75626621,13.386344 L8.66499568,11.5095938 C8.66499568,9.07951599 12.2644771,8.84753673 12.2777874,11.2757131 C12.3956785,14.1906655 12.4527226,16.4363008 12.454624,18.0069144 Z M14.9968885,22.1977528 C13.9700951,21.6906943 13.3571881,20.8109479 13.1581677,19.5585134 C12.9672608,18.2524326 13.1656802,16.9190542 13.7286085,15.7251513 C14.2990493,14.4340536 15.1147796,13.4566984 16.1586863,12.8330164 C17.385059,12.080446 18.9353014,12.1019154 20.140363,12.888159 C21.5284356,13.7799481 22.2852204,15.0539326 22.4221262,16.7253241 C22.4753673,17.4726016 22.5133967,18.7675022 22.5152982,20.6309421 C22.523198,21.1819598 22.2807122,21.7068137 21.856005,22.0579641 C21.4312977,22.4091146 20.8702258,22.548647 20.3305099,22.4373379 C19.7954718,22.3399166 19.3572103,21.9564378 19.1896283,21.4390666 C17.66465,22.5609334 16.2594641,22.8176318 14.9968885,22.1977528 Z M17.8947277,18.0734659 C18.311626,17.6362116 18.6351106,17.1186362 18.8454624,16.5522904 C18.6457216,16.18612 18.3191255,15.9055043 17.9270527,15.7631806 C17.5467589,15.7840968 17.2063959,16.2233362 16.8641314,17.0942092 C16.5218669,17.9650821 16.453414,18.6096802 16.6169404,19.0146932 C17.012446,18.9063094 17.4440795,18.5906655 17.8947277,18.0734659 Z M26.9210026,20.0414866 C26.9780467,22.4506482 23.4470182,22.680726 23.3196197,20.294382 C23.2815903,19.6935177 23.2454624,17.9593777 23.2055315,15.0577355 C23.1656007,12.1560933 23.1484875,10.3458946 23.146586,9.65185825 C23.146586,7.22178047 26.7479689,7.00501296 26.7593777,9.39896283 C26.8259291,13.3597234 26.8829732,16.9230769 26.9210026,20.0414866 Z M31.3343129,19.7980985 C31.391357,22.2072602 27.8603284,22.4373379 27.73293,20.0509939 C27.6949006,19.4501296 27.6587727,17.7159896 27.6188418,14.8143475 C27.578911,11.9127053 27.5617978,10.1025065 27.5598963,9.40847018 C27.5598963,6.97839239 31.1612792,6.76162489 31.1631806,9.15557476 C31.2392394,13.1201383 31.2962835,16.6758859 31.3343129,19.7980985 Z M33.8765774,21.1557476 C32.8497839,20.6486891 32.2362432,19.7689427 32.0359551,18.5165082 C31.8442883,17.2110463 32.0427484,15.8780557 32.6063959,14.6850475 C33.1768366,13.3920484 33.9906655,12.4165946 35.0345722,11.7929127 C36.2608358,11.0407001 37.8105366,11.061422 39.0162489,11.8461538 C40.4043215,12.737943 41.1630078,14.0119274 41.2980121,15.6852204 C41.3531547,16.4305964 41.3892826,17.7273984 41.3911841,19.5908384 C41.4101795,20.1539445 41.1559087,20.6915255 40.7085566,21.0340536 C40.2849029,21.3837371 39.7224411,21.5159156 39.1873812,21.3915298 C38.6518681,21.2964117 38.2128404,20.9129942 38.0464996,20.3951599 C36.5424373,21.5208297 35.1372515,21.781331 33.8765774,21.1557476 Z M36.7725151,17.0314607 C37.1889515,16.593848 37.5123734,16.0763729 37.7232498,15.5102852 C37.5222187,15.144433 37.195184,14.8640211 36.8029386,14.7211755 C36.4226448,14.7420916 36.0822818,15.1794296 35.7419188,16.052204 C35.4015557,16.9249784 35.3292999,17.5543647 35.4909248,17.9650821 C35.8902334,17.8738116 36.318064,17.5505618 36.7725151,17.0314607 Z M45.486949,11.8366465 C45.4698358,12.8615385 45.4527226,13.6297321 45.4527226,14.1412273 C45.4527226,16.4990493 41.8532411,16.73293 41.8513397,14.285739 C41.8513397,13.7742437 41.8684529,13.0060501 41.8855661,11.9811582 C41.9026793,10.9562662 41.9197926,10.1709594 41.9178911,9.65946413 C41.9178911,7.28452895 45.519274,7.04874676 45.5306828,9.49783924 C45.5211755,10.0264477 45.5040622,10.7946413 45.486949,11.8366465 Z M42.108038,19.9350043 C41.7277442,19.0603284 42.0167675,18.2598099 42.8686258,17.7197926 C43.8193604,17.1740709 44.7700951,17.3775281 45.211236,18.1000864 C45.4488479,18.5094283 45.4886848,19.0042439 45.3196197,19.4463267 C45.2010004,19.9198616 44.8957757,20.3252273 44.4734659,20.5700951 C43.4789974,21.1576491 42.5929127,20.9503889 42.108038,19.9350043 Z" id="Combined-Shape" fill="#FFFFFF"></path>
                    <path d="M56.547796,13.0440795 C56.0896758,13.3888997 55.7721498,13.8881587 55.6541054,14.4492653 C55.4829103,15.0639358 55.4737393,15.7124544 55.6274849,16.33172 C55.7834054,16.9535004 56.0667243,17.381331 56.5078652,17.5980985 C56.9185825,17.8174013 57.2728897,17.7381734 57.5707865,17.3604149 C58.8029386,15.8392394 60.9458946,17.539153 59.7422645,19.0717373 C59.2038216,19.7789731 58.4372722,20.2781372 57.572688,20.484529 C56.7550411,20.6957738 55.887899,20.5926395 55.1426102,20.1955056 C54.3406203,19.7881081 53.6965665,19.1259966 53.3114952,18.313051 C52.8897544,17.4850095 52.6701608,16.5688417 52.6706991,15.6395851 C52.6844716,14.6843048 52.8961891,13.7422592 53.2924806,12.8729473 C53.6575525,11.9982997 54.2619014,11.2443465 55.0361279,10.6976664 C55.755006,10.1465215 56.6590373,9.89445553 57.5593777,9.99412273 C58.4741663,10.102168 59.311634,10.5600836 59.8962835,11.2719101 C61.0751945,12.6485739 58.905618,14.6203976 57.7133967,13.2456353 C57.3559205,12.8216076 56.9585134,12.7398444 56.547796,13.0440795 Z M61.4174589,12.7284356 C61.9974071,10.9258427 63.0184961,9.75643907 64.3381158,9.63284356 C65.7699222,9.48643042 66.8917891,10.4942092 67.5021608,12.2511668 C68.1125324,14.0081245 68.4110631,15.9856525 68.4833189,18.3929127 C68.5422645,20.3133967 65.6501296,20.5206569 65.6482282,18.5982714 L63.3360415,18.7256698 C63.3355261,19.1369424 63.1607099,19.5287241 62.8549697,19.8038029 C62.5885902,20.0532845 62.2404944,20.1972542 61.8757131,20.2088159 C61.5230661,20.2180598 61.1795377,20.0960971 60.9116681,19.8665514 C60.6198833,19.6015687 60.4651219,19.2178164 60.4914434,18.8245462 C60.5617978,16.514261 60.8470182,14.5291271 61.4174589,12.7284356 Z M65.4105445,15.740363 C65.1956785,14.2458081 64.8686258,13.2171132 64.4598099,12.6675886 C64.0624028,13.3388073 63.7657736,14.4055315 63.5680207,15.8392394 L65.4105445,15.740363 Z M72.0656871,11.9089023 C71.9382887,12.1617978 72.0656871,12.426102 72.4630942,12.6694901 C72.5201383,12.7094209 72.8319793,12.8767502 73.4138289,13.1866897 C74.3227312,13.6905791 74.832325,14.0176318 75.3019879,14.5633535 C75.7716508,15.1090752 75.9256698,15.772688 75.8134831,16.6416595 C75.7412238,17.3061578 75.4463699,17.9266912 74.9768366,18.4024201 C74.534756,18.8659367 73.9767116,19.2027329 73.3605877,19.3778738 C72.1569576,19.739153 70.7099395,19.6726016 69.747796,19.1135696 C69.0822818,18.7332757 68.7685393,18.2122731 68.8255834,17.5619706 C68.8673194,17.0810831 69.1291633,16.6465486 69.5348315,16.3849611 C70.0444252,16.0369922 70.5692308,16.0617113 71.0940363,16.4610199 L71.2499568,16.5808124 C71.9306828,17.1512532 72.725497,17.2634399 73.0221262,16.6701815 C73.2122731,16.1853068 72.7673293,15.8962835 71.6910977,15.432325 C70.7821953,15.0520311 70.3011236,14.7858254 69.8333621,14.3123596 C69.3656007,13.8388937 69.1792567,13.2190147 69.192567,12.3424373 C69.1896836,11.6219171 69.4347392,10.922334 69.8866033,10.3611063 C70.3131596,9.82438285 70.8836276,9.42010896 71.5313742,9.19550562 C72.1724468,8.96952409 72.8577665,8.89786518 73.53172,8.98634399 C74.1830278,9.04504803 74.8001462,9.30411822 75.298185,9.72791703 C75.7448096,10.0563952 75.8942021,10.6563617 75.6537597,11.1559205 C75.4818141,11.5976896 75.1233534,11.9408373 74.674503,12.0933449 C74.1848176,12.2839858 73.6293171,12.17923 73.2426966,11.8233362 C72.8814175,11.5000864 72.4003457,11.4430424 72.0656871,11.9089023 Z M79.0687986,17.5923941 C79.0687986,19.5166811 76.2318064,19.6630942 76.2318064,17.7977528 C76.2013829,15.4304235 76.2146932,12.9737252 76.2831461,10.3991357 C76.3249784,8.5147796 79.1467589,8.36836646 79.1201383,10.2945549 C79.0516854,12.8406223 79.0383751,15.2687986 79.0687986,17.5923941 Z M87.4466724,13.3825411 C87.4333621,15.0063959 87.4333621,16.2119274 87.4200519,17.0181504 C87.505618,18.4480553 85.5071737,19.1325843 84.7579948,17.968885 L82.4553155,14.654624 L82.4553155,16.0179775 C82.4705272,16.6207433 82.4705272,17.0808989 82.4705272,17.381331 C82.4705272,19.305618 79.6354365,19.4520311 79.6354365,17.5866897 C79.6354365,16.7671564 79.6468453,15.5312014 79.6601556,13.8940363 C79.6734659,12.2568712 79.6886776,11.0057044 79.6867761,10.1880726 C79.6876246,9.75446289 79.879643,9.34329314 80.2115817,9.06430424 C80.5189591,8.77847318 80.9350627,8.63977197 81.3524633,8.68401037 C81.7687258,8.7201006 82.138218,8.9649966 82.3336214,9.33431288 L84.5773552,12.5668107 C84.5906655,12.2644771 84.5906655,11.806223 84.6058773,11.2015557 C84.621089,10.5968885 84.6324978,10.1234226 84.6324978,9.82108902 C84.6743302,7.9386344 87.4961106,7.79222126 87.4694901,9.71840968 C87.4675886,10.5398444 87.4675886,11.7586863 87.4466724,13.3825411 Z M95.2426966,9.09472774 C95.9804667,9.98271392 96.3360415,11.186344 96.3227312,12.6885048 C96.3227312,14.281936 95.9557476,15.5844425 95.219879,16.6207433 C94.4840104,17.6570441 93.4629213,18.2084702 92.1433016,18.2902334 C90.8236819,18.3719965 89.7892826,17.9612792 89.0781331,17.0295592 C88.3669836,16.0978392 88,14.8561798 87.9847882,13.321694 C87.9695765,11.7872083 88.308038,10.4999136 89.0172861,9.50924806 C89.7265341,8.51858254 90.7742437,7.9880726 92.1509075,7.89299914 C93.4838375,7.81123596 94.5201383,8.20674157 95.2426966,9.09472774 Z M91.1450303,11.2871219 C90.8994839,11.8515011 90.7744887,12.4609337 90.7780467,13.0764045 C90.7469315,13.6910396 90.8643311,14.3041262 91.1203111,14.8637857 C91.3617978,15.3524633 91.6907519,15.5749352 92.1261884,15.5331029 C92.5958513,15.5045808 92.9628349,15.2231634 93.2043215,14.6926534 C93.4572391,14.1164334 93.5762113,13.4903664 93.5522904,12.8615385 C93.5510199,12.2726373 93.4150854,11.6918265 93.1548833,11.1635264 C92.9133967,10.6900605 92.5730337,10.4523768 92.1471046,10.4637857 C91.7211755,10.4751945 91.3865169,10.7699222 91.1450303,11.2871219 Z" id="Combined-Shape" fill="#FFDE17"></path>
                </g>
            </g>
        </g>
    </g>
</svg>