<?xml version="1.0" encoding="iso-8859-1"?>
<!-- Generator: Adobe Illustrator 18.1.1, SVG Export Plug-In . SVG Version: 6.00 Build 0)  -->
<svg version="1.1" id="Layer_1" xmlns="http://www.w3.org/2000/svg" xmlns:xlink="http://www.w3.org/1999/xlink" x="0px" y="0px"
	 viewBox="0 0 249.186 51.674" style="enable-background:new 0 0 249.186 51.674;" xml:space="preserve">
<g>
	<polygon style="fill:#FEDE00;" points="184.746,14.873 184.803,9.163 178.745,6.81 184.066,5.711 184.083,1.142 187.809,4.842 
		193.131,3.743 190.414,7.931 195.241,12.812 188.618,10.296 	"/>
	<path style="fill:#FEDE00;" d="M124.484,26.868h-10.942v-7.313c0-2.126-0.118-3.452-0.352-3.98
		c-0.235-0.526-0.754-0.791-1.555-0.791c-0.905,0-1.479,0.321-1.723,0.962c-0.244,0.641-0.366,2.026-0.366,4.157v19.536
		c0,2.044,0.122,3.378,0.366,4.001c0.244,0.624,0.792,0.935,1.646,0.935c0.818,0,1.353-0.312,1.605-0.94
		c0.253-0.627,0.379-2.099,0.379-4.415v-5.301h10.942v1.644c0,4.365-0.308,7.462-0.923,9.287c-0.615,1.826-1.977,3.427-4.084,4.8
		c-2.108,1.372-4.704,2.06-7.79,2.06c-3.208,0-5.851-0.581-7.933-1.742c-2.081-1.161-3.46-2.768-4.136-4.823
		c-0.677-2.053-1.014-5.142-1.014-9.269V23.379c0-3.033,0.104-5.309,0.312-6.825c0.208-1.516,0.828-2.976,1.86-4.381
		c1.032-1.403,2.462-2.509,4.291-3.315c1.829-0.806,3.932-1.209,6.308-1.209c3.225,0,5.886,0.624,7.985,1.87
		c2.098,1.247,3.476,2.801,4.136,4.662c0.659,1.861,0.989,4.757,0.989,8.688V26.868z"/>
	<path style="fill:#FEDE00;" d="M141.39,41.394c0,1.741-0.1,2.816-0.299,3.225c-0.199,0.409-0.629,0.612-1.287,0.612
		c-0.694,0-1.158-0.26-1.393-0.783c-0.235-0.522-0.351-1.679-0.351-3.471c0-1.567,0.134-2.767,0.403-3.602s1.244-1.87,2.927-3.107
		V41.394z M138.06,25.909c0-1.928,0.086-3.122,0.26-3.583c0.172-0.461,0.615-0.691,1.328-0.691c0.624,0,1.07,0.275,1.339,0.822
		c0.268,0.547,0.403,1.725,0.403,3.532c0,1.443-0.122,2.399-0.366,2.868c-0.244,0.468-2.095,1.38-5.556,2.732
		c-3.235,1.249-5.261,2.343-6.079,3.28c-0.818,0.937-1.225,2.698-1.225,5.284v2.838c0,3.488,0.769,5.749,2.307,6.781
		c1.539,1.032,3.23,1.549,5.074,1.549c1.408,0,2.621-0.311,3.638-0.931c1.017-0.62,1.848-1.551,2.492-2.792v3.057h10.181V33.347
		c0-5.7-0.183-9.463-0.547-11.291c-0.364-1.827-1.448-3.369-3.25-4.625c-1.803-1.256-4.482-1.885-8.035-1.885
		c-2.966,0-5.376,0.555-7.231,1.664c-1.855,1.109-3.089,2.388-3.705,3.836c-0.615,1.448-0.923,3.506-0.923,6.174v2.313h9.895V25.909
		z"/>
	<path style="fill:#FEDE00;" d="M177.525,27.249h-9.419v-1.897c0-1.616-0.092-2.639-0.275-3.07
		c-0.183-0.431-0.641-0.647-1.372-0.647c-0.593,0-1.038,0.196-1.333,0.586c-0.297,0.391-0.445,0.977-0.445,1.757
		c0,1.06,0.073,1.837,0.221,2.331c0.149,0.495,0.593,1.038,1.335,1.628c0.74,0.59,2.263,1.449,4.565,2.578
		c3.07,1.493,5.084,2.899,6.045,4.218c0.959,1.32,1.439,3.24,1.439,5.755c0,2.813-0.366,4.936-1.097,6.367
		c-0.731,1.433-1.953,2.535-3.666,3.308c-1.714,0.772-3.781,1.158-6.198,1.158c-2.679,0-4.972-0.416-6.877-1.249
		c-1.906-0.833-3.214-1.959-3.928-3.382c-0.714-1.423-1.069-3.574-1.069-6.453v-1.665h9.324v2.194c0,1.864,0.119,3.074,0.357,3.63
		c0.238,0.557,0.709,0.835,1.414,0.835c0.758,0,1.286-0.186,1.586-0.559c0.299-0.373,0.449-1.16,0.449-2.358
		c0-1.649-0.192-2.682-0.575-3.098c-0.401-0.416-2.45-1.649-6.146-3.697c-3.104-1.736-4.995-3.311-5.675-4.726
		c-0.681-1.415-1.02-3.095-1.02-5.04c0-2.759,0.366-4.794,1.099-6.106c0.731-1.311,1.974-2.322,3.726-3.034
		c1.751-0.711,3.788-1.067,6.107-1.067c2.301,0,4.258,0.293,5.871,0.876c1.612,0.583,2.85,1.354,3.714,2.312
		c0.862,0.957,1.386,1.846,1.568,2.664c0.183,0.819,0.275,2.099,0.275,3.84V27.249z"/>
	<path style="fill:#FEDE00;" d="M192.481,16.117v34.538h-10.847V16.117H192.481z"/>
	<path style="fill:#FEDE00;" d="M207.419,16.117l-0.19,3.259c0.766-1.275,1.702-2.233,2.808-2.872
		c1.106-0.638,2.382-0.957,3.828-0.957c1.811,0,3.291,0.425,4.442,1.274c1.149,0.849,1.89,1.919,2.221,3.21
		c0.33,1.29,0.497,3.443,0.497,6.457v24.169h-10.466V26.758c0-2.376-0.082-3.822-0.242-4.343c-0.161-0.52-0.608-0.781-1.342-0.781
		c-0.77,0-1.255,0.3-1.451,0.898c-0.196,0.598-0.294,2.197-0.294,4.797v23.324h-10.466V16.117H207.419z"/>
	<g>
		<path style="fill:#FFFFFF;" d="M1.201,8.505h18.268v8.468h-7.326v7.992h6.851v7.992h-6.851v9.229h8.087v8.468H1.201V8.505z"/>
		<path style="fill:#FFFFFF;" d="M47.661,16.117v34.538H37.006l0.189-2.851c-0.734,1.173-1.637,2.053-2.71,2.639
			c-1.073,0.584-2.309,0.879-3.703,0.879c-1.589,0-2.908-0.278-3.954-0.834c-1.047-0.556-1.82-1.293-2.316-2.215
			c-0.497-0.92-0.807-1.879-0.929-2.878c-0.122-0.999-0.183-2.984-0.183-5.956V16.117h10.466v23.558
			c0,2.697,0.085,4.296,0.257,4.801c0.171,0.505,0.636,0.757,1.394,0.757c0.812,0,1.293-0.26,1.448-0.782
			c0.153-0.522,0.23-2.2,0.23-5.035V16.117H47.661z"/>
		<path style="fill:#FFFFFF;" d="M62.425,16.117l-0.381,4.607c1.51-3.26,3.699-4.986,6.565-5.178v12.179
			c-1.915,0-3.321,0.26-4.218,0.779c-0.898,0.519-1.45,1.241-1.656,2.166c-0.208,0.925-0.311,3.057-0.311,6.393v13.593H51.959
			V16.117H62.425z"/>
		<path style="fill:#FFFFFF;" d="M84.787,41.634c0,1.496-0.103,2.468-0.306,2.92c-0.205,0.452-0.626,0.678-1.264,0.678
			c-0.621,0-1.038-0.247-1.25-0.743c-0.214-0.495-0.32-1.559-0.32-3.193V25.676c0-1.772,0.106-2.888,0.32-3.349
			c0.213-0.461,0.638-0.691,1.277-0.691c0.638,0,1.054,0.23,1.25,0.691c0.195,0.461,0.293,1.577,0.293,3.349V41.634z M94.746,22.832
			c-0.339-1.197-0.966-2.359-1.885-3.486c-0.919-1.127-2.222-2.043-3.911-2.746c-1.69-0.702-3.714-1.054-6.07-1.054
			c-2.808,0-5.114,0.547-6.916,1.64c-1.802,1.093-3.051,2.541-3.743,4.344c-0.693,1.805-1.039,4.311-1.039,7.519v8.846
			c0,2.932,0.19,5.13,0.571,6.596s1.018,2.715,1.91,3.746c0.892,1.032,2.145,1.805,3.757,2.316c1.612,0.51,3.58,0.767,5.902,0.767
			c2.078,0,3.92-0.3,5.523-0.898c1.603-0.598,2.917-1.525,3.94-2.783c1.023-1.258,1.689-2.611,2.001-4.059
			c0.312-1.448,0.468-3.725,0.468-6.831v-8.455C95.253,25.85,95.084,24.029,94.746,22.832z"/>
	</g>
	<g>
		<path style="fill:#FEDE00;" d="M238.739,33.859c-0.188-0.048-0.439-0.079-0.758-0.094s-0.719-0.022-1.2-0.022
			c-0.482,0-0.882,0.008-1.2,0.022s-0.57,0.046-0.759,0.094c-0.187,0.049-0.317,0.119-0.392,0.212
			c-0.073,0.093-0.11,0.217-0.11,0.372c0,0.156,0.037,0.28,0.11,0.373c0.074,0.093,0.205,0.163,0.392,0.211
			c0.188,0.048,0.44,0.079,0.759,0.095c0.318,0.015,0.718,0.021,1.2,0.021c0.481,0,0.882-0.007,1.2-0.021
			c0.318-0.016,0.57-0.047,0.758-0.095s0.318-0.118,0.392-0.211c0.074-0.093,0.11-0.217,0.11-0.373c0-0.155-0.036-0.279-0.11-0.372
			C239.057,33.978,238.926,33.907,238.739,33.859z"/>
		<path style="fill:#FEDE00;" d="M248.344,22.832c-0.339-1.197-0.966-2.359-1.885-3.486c-0.919-1.127-2.222-2.043-3.911-2.746
			c-1.69-0.702-3.714-1.054-6.07-1.054c-2.808,0-5.114,0.547-6.916,1.64c-1.802,1.093-3.051,2.541-3.743,4.344
			c-0.693,1.805-1.039,4.311-1.039,7.519v8.846c0,2.932,0.19,5.13,0.571,6.596c0.381,1.466,1.018,2.715,1.91,3.746
			c0.892,1.032,2.145,1.805,3.757,2.316c1.612,0.51,3.58,0.767,5.902,0.767c2.078,0,3.92-0.3,5.523-0.898
			c1.603-0.598,2.917-1.525,3.94-2.783c1.023-1.258,1.689-2.611,2.001-4.059c0.312-1.448,0.468-3.725,0.468-6.831v-8.455
			C248.851,25.85,248.681,24.029,248.344,22.832z M233.195,27.984l4.249-0.834v-0.022l-4.249-0.834v-2.957h7.171v1.935h-5.343v0.022
			l5.343,1.101v1.489l-5.343,1.101v0.022h5.343v1.935h-7.171V27.984z M240.366,45.882h-1.988v-1.867h1.988V45.882z M240.286,41.835
			c-0.127,0.371-0.34,0.66-0.638,0.867c-0.298,0.208-0.683,0.351-1.155,0.429c-0.472,0.077-1.042,0.116-1.712,0.116
			c-0.683,0-1.262-0.046-1.737-0.139s-0.86-0.25-1.155-0.473s-0.507-0.515-0.638-0.878s-0.195-0.812-0.195-1.346
			c0-0.467,0.053-0.863,0.16-1.189s0.26-0.591,0.457-0.795s0.436-0.352,0.713-0.444c0.278-0.093,0.591-0.14,0.939-0.14h0.451v2.002
			h-0.401c-0.408,0-0.687,0.044-0.833,0.133c-0.147,0.089-0.222,0.233-0.222,0.434c0,0.156,0.037,0.28,0.11,0.373
			c0.074,0.093,0.205,0.163,0.392,0.211c0.188,0.048,0.44,0.079,0.759,0.095c0.318,0.015,0.718,0.021,1.2,0.021
			c0.481,0,0.882-0.007,1.2-0.021c0.318-0.016,0.57-0.047,0.758-0.095s0.318-0.118,0.392-0.211c0.074-0.093,0.11-0.217,0.11-0.373
			c0-0.126-0.028-0.229-0.085-0.312c-0.057-0.081-0.152-0.145-0.286-0.188c-0.134-0.045-0.312-0.076-0.537-0.095
			s-0.508-0.027-0.849-0.027v-2.002h0.532c0.502,0,0.914,0.074,1.235,0.223s0.574,0.345,0.758,0.59
			c0.185,0.244,0.309,0.524,0.372,0.839c0.063,0.315,0.095,0.64,0.095,0.973C240.476,40.99,240.413,41.465,240.286,41.835z
			 M240.286,35.776c-0.127,0.363-0.34,0.656-0.638,0.879c-0.298,0.222-0.683,0.382-1.155,0.478
			c-0.472,0.097-1.042,0.145-1.712,0.145s-1.24-0.048-1.713-0.145c-0.472-0.096-0.856-0.256-1.154-0.478
			c-0.298-0.223-0.516-0.516-0.653-0.879c-0.137-0.362-0.205-0.808-0.205-1.334s0.068-0.971,0.205-1.334
			c0.138-0.363,0.355-0.656,0.653-0.878c0.298-0.223,0.683-0.382,1.154-0.479c0.473-0.096,1.043-0.145,1.713-0.145
			s1.24,0.049,1.712,0.145c0.473,0.097,0.857,0.256,1.155,0.479c0.298,0.222,0.511,0.515,0.638,0.878s0.19,0.808,0.19,1.334
			S240.413,35.414,240.286,35.776z"/>
	</g>
</g>
</svg>
