<?xml version="1.0" encoding="UTF-8"?>
<svg width="174" height="39" xmlns="http://www.w3.org/2000/svg">
 <g>
  <title>background</title>
  <rect x="-1" y="-1" width="176" height="41" id="canvas_background" fill="none"/>
 </g>

 <g>
  <title>Layer 1</title>
  <g id="svg_1">
   <g id="svg_2">
    <g id="svg_3">
     <path fill="#18435F" d="m31.799999,24.299999l-4.099998,0c-0.299999,-1.5 -1.100002,-2.299999 -2.5,-2.299999c-1.200001,0 -1.900002,0.700001 -1.900002,1.700001c0,1.199999 1,1.799999 3.700001,2.5c3.299999,0.900009 5.200001,2.199989 5.200001,5.099998c0,3.200001 -2.900002,4.800011 -6.6,4.800011c-3.9,0 -6.6,-1.70002 -7.1,-5.300011l4.1,0c0.299999,1.700001 1.5,2.5 3,2.5c1.300001,0 2.4,-0.599998 2.4,-1.699989c0,-1.20002 -1.099998,-1.900009 -3.799999,-2.60001c-3,-0.799999 -5,-2 -5,-4.799999c0,-3.1 2.5,-4.900002 6.4,-4.900002s5.800001,2.1 6.199999,5z" id="svg_4"/>
     <path fill="#18435F" d="m39.599998,29.89999c0,0.5 0,1 0.100002,1.400002c0.099998,1.599998 0.700001,1.900009 3,1.699989l0,2.70002c-0.900002,0.199989 -1.799999,0.199989 -2.700001,0.199989c-3.099998,0 -4.200001,-1 -4.400002,-3.299999c-0.099998,-0.700001 -0.099998,-1.39999 -0.099998,-2.299999l0,-7.900002l-2.400002,0l0,-2.700001l2.400002,0l0,-3.9l4.099998,0l0,3.9l3.300003,0l0,2.700001l-3.300003,0l0,7.5l0,0z" id="svg_5"/>
     <path fill="#18435F" d="m54.39999,33.299999l-0.799999,1.700001c-1.10001,0.799999 -2.5,1.10001 -4,1.10001c-2.700001,0 -5.100002,-1.60001 -5.100002,-4.60001c0,-3.5 3,-5.5 8.800003,-5.5l1,0l0,-0.299999c0,-0.5 0,-1 -0.099991,-1.5c-0.10001,-1.1 -0.900009,-1.900002 -2.5,-1.900002c-1.700012,0 -2.5,1 -2.700012,2.700001l-4,0.1c0.100002,-3.6 3,-5.700001 6.800003,-5.700001c4.5,0 6.099998,1.9 6.400005,4.700001c0.099991,0.799999 0.099991,1.6 0.099991,2.499998l0,5.200001c0,1.200001 0.099998,2.300011 0.300003,4l-4,0l-0.200001,-2.5zm0,-3.5l0,-1.299999c-3.299999,-0.200001 -5.5,0.5 -5.5,2.60001c0,1.39999 1,2 2.400002,2c1.700008,0.099991 3.099998,-1.10001 3.099998,-3.300011z" id="svg_6"/>
     <path fill="#18435F" d="m71.699997,19.4l0,3.300001c-3.399994,-0.200001 -5.199997,1.299999 -5.199997,5.599998l0,7.300011l-4.100014,0l0,-16.00001l4.100014,0l0,2.9l1.199997,-2.200001c0.800003,-0.699999 1.800003,-1.099998 2.699989,-1.099998c0.600014,0.099998 0.900017,0.099998 1.300011,0.199999z" id="svg_7"/>
     <path fill="#00ABBE" d="m86.800003,25l-1.900017,0c-0.5,-2.700001 -2.199989,-4.1 -4.699989,-4.1c-2.699997,0 -5.300011,2.200001 -5.300011,6.800001c0,4.900009 2.5,7.099998 5.100014,7.099998c2.399986,0 4.100014,-1.299999 4.699997,-3.900009l1.900017,0c-0.700027,3.5 -3.300011,5.400009 -6.800011,5.400009c-4,0 -7.100006,-2.699989 -7.100006,-8.299999c0,-5.299999 3.400017,-8.4 7.400017,-8.4c3.799973,-0.200001 6.199989,2 6.699989,5.4z" id="svg_8"/>
     <path fill="#00ABBE" d="m99.100014,32.799999l-0.800011,1.700001c-1.099991,1.10001 -2.699989,1.60001 -4.399994,1.60001c-3,0 -5.100006,-1.5 -5.100006,-4.400009c0,-3.700001 3.400009,-5.400002 9.20002,-5.400002l1,0l0,-0.599998c0,-0.700001 0,-1.300001 -0.100014,-1.900002c-0.199997,-1.799999 -1.199997,-2.9 -3.600006,-2.9c-2.199989,0 -3.79998,1.200001 -4,3.700001l-1.899994,0c0.200005,-3.1 2.600014,-5.1 5.899994,-5.1c3.5,0 5.20002,1.6 5.400009,4.200001c0.099991,0.699999 0.099991,1.299999 0.099991,2.099998l0,5.5c0,1.400002 0.100006,2.5 0.300011,4.5l-1.900002,0l-0.099998,-3zm0,-3.199989l0,-1.800011c-4.5,-0.29998 -8.200005,0.800011 -8.200005,3.800011c0,2 1.200005,3.099998 3.600014,3.099998c2.79998,-0.099998 4.599991,-2.200008 4.599991,-5.099998z" id="svg_9"/>
     <path fill="#00ABBE" d="m115.600014,24.200001l-1.900002,0c-0.400009,-2.200001 -1.699989,-3.300001 -3.900009,-3.300001c-1.899994,0 -3.199989,1.1 -3.199989,2.800001c0,1.799999 1.5,2.5 3.799995,3.099998c3.700005,0.900002 5.399994,2.200001 5.399994,4.900002c0,2.799999 -2.399994,4.400009 -5.699989,4.400009c-3.200005,0 -5.700005,-1.5 -6.099991,-5.10001l1.899986,0c0.399994,2.700001 2.200005,3.700001 4.300003,3.700001c2,0 3.699997,-0.900002 3.699997,-2.700001c0,-1.799999 -1.100006,-2.60001 -4.299995,-3.39999c-2.700005,-0.70002 -5,-1.800011 -5,-4.60001s2.199989,-4.5 5.299995,-4.5c3.499977,-0.1 5.299988,1.9 5.700005,4.700001z" id="svg_10"/>
     <path fill="#00ABBE" d="m121.100014,16.4c0,0.700001 -0.5,1.200001 -1.200005,1.200001s-1.199997,-0.6 -1.199997,-1.200001c0,-0.699999 0.599991,-1.199999 1.199997,-1.199999c0.700005,-0.1 1.200005,0.5 1.200005,1.199999zm-2.200027,19.300001l0,-15.900002l1.900002,0l0,15.900002l-1.900002,0z" id="svg_11"/>
     <path fill="#00ABBE" d="m138.100006,26.799999l0,8.900002l-1.899994,0l0,-8.700001c0,-0.900002 0,-1.6 -0.100006,-2.4c-0.199997,-2.200001 -1.399994,-3.700001 -4.099991,-3.700001c-2.600006,0 -5,1.9 -5,6.9l0,7.900002l-1.900009,0l0,-15.900002l1.900009,0l0,3.1l0.899994,-1.699999c1.300003,-1.300001 2.699997,-1.800001 4.5,-1.800001c3.300003,0 5.300003,1.800001 5.600006,4.700001c0.099991,0.799999 0.099991,1.4 0.099991,2.699999z" id="svg_12"/>
     <path fill="#00ABBE" d="m156.5,27.700001c0,4.599998 -2.699997,8.299999 -7.699997,8.299999c-5.100006,0 -7.699997,-3.700001 -7.699997,-8.299999c0,-4.700001 2.699997,-8.400002 7.699997,-8.400002c5,0.1 7.699997,3.700001 7.699997,8.400002zm-2.100006,0c0,-4.300001 -2.400009,-6.900002 -5.699997,-6.900002c-3.300003,0 -5.700012,2.5 -5.700012,6.900002c0,4.299999 2.400009,6.900009 5.700012,6.900009c3.400009,0 5.699997,-2.5 5.699997,-6.900009zm-8.5,-12.700001l1.800003,0l1.799988,3.299999l-1.299988,0l-2.300003,-3.299999z" id="svg_13"/>
    </g>
   </g>
   <g id="svg_14">
    <g id="svg_15">
     <g id="svg_16">
      <g id="svg_17">
       <polygon fill="#00ABBE" points="24.5,15.699996948242188 30.199996948242188,15.699996948242188 34,13 23.5,13 " id="svg_18"/>
      </g>
      <g id="svg_19">
       <polygon fill="#18435F" points="17.199996948242188,15.699996948242188 20.300003051757812,6.5 18.699996948242188,1.9000015258789062 15.099998474121094,13 3.5,13 7.3000030517578125,15.699996948242188 " id="svg_20"/>
      </g>
      <g id="svg_21">
       <polygon fill="#00ABBE" points="15,22.599998474121094 12.599998474121094,20.800003051757812 9.300003051757812,30.899993896484375 13.300003051757812,28 " id="svg_22"/>
      </g>
     </g>
    </g>
   </g>
  </g>
 </g>
</svg>