<?xml version="1.0" encoding="UTF-8"?>
<svg width="118px" height="24px" viewBox="0 0 118 24" version="1.1" xmlns="http://www.w3.org/2000/svg" xmlns:xlink="http://www.w3.org/1999/xlink">
    <!-- Generator: sketchtool 56 (101010) - https://sketch.com -->
    <title>A6733FE1-BF62-47AB-9285-00CCBFD2DE6A</title>
    <desc>Created with sketchtool.</desc>
    <g id="Customer-Support" stroke="none" stroke-width="1" fill="none" fill-rule="evenodd">
        <g id="Customer-Support-02" transform="translate(-129.000000, -94.000000)" fill="#FFFFFF" fill-rule="nonzero">
            <g id="Customer/Support/Mobile-nav-bar" transform="translate(0.000000, 76.000000)">
                <g id="Mobile-nav-bar">
                    <g id="LiveRoulette/logos/CasinoDK/Colour" transform="translate(129.000000, 18.000000)">
                        <g id="SC-LRBRAND-ReveersedOUt">
                            <path d="M10.1305925,8.25938445 L5.7803969,8.25938445 L5.7803969,4.09998221 C5.7803969,3.40476783 5.59566256,3.11360968 5.05933708,3.11360968 C4.52301159,3.11360968 4.42170567,3.45824586 4.42170567,4.09998221 L4.42170567,7.74837218 C4.42170567,8.50300658 4.51705242,8.79416474 5.40496906,9.25764099 L8.09255566,10.6956058 C9.82667473,11.5928482 10.1305925,12.7218289 10.1305925,14.2608077 L10.1305925,19.1570183 C10.1305925,23.1856965 9.62406288,23.8571429 5.04741874,23.8571429 C0.631672238,23.8571429 0,23.1322185 0,19.1570183 L0,13.9696495 L4.42170567,13.9696495 L4.42170567,19.7096246 C4.42170567,20.375129 4.61239917,20.7257072 5.14872466,20.7257072 C5.68505015,20.7257072 5.7803969,20.375129 5.7803969,19.7096246 L5.7803969,14.7242839 C5.7803969,13.9696495 5.72080518,13.7379114 4.80309268,13.2447251 L1.99036347,11.7413983 C0.34563198,10.8679239 0,9.70923323 0,8.05735634 L0,4.69418253 C0,0.695214375 0.661468099,0 5.08913294,0 C9.63598122,0 10.1305925,0.754634407 10.1305925,4.69418253 L10.1305925,8.25938445 Z" id="Path"></path>
                            <path d="M16.0868698,0.142857143 L16.0868698,19.8275405 C16.0868698,20.4970469 16.2475784,20.8497333 16.7832737,20.8497333 C17.3189689,20.8497333 17.4439645,20.4970469 17.4439645,19.8275405 L17.4439645,0.142857143 L21.8307134,0.142857143 L21.8307134,19.2716111 C21.8307134,23.2707163 21.2354965,24 16.8130345,24 C12.3905726,24 11.7001209,23.3125604 11.7001209,19.2716111 L11.7001209,0.142857143 L16.0868698,0.142857143 Z" id="Path"></path>
                            <path d="M28.7690987,0.142857143 C33.0308521,0.142857143 33.5308343,1.01874187 33.5308343,4.90957677 L33.5308343,10.5462227 C33.5308343,14.443016 33.0844216,15.3725264 28.7690987,15.3725264 L27.7572299,15.3725264 L27.7572299,23.7142857 L23.4002418,23.7142857 L23.4002418,0.142857143 L28.7690987,0.142857143 Z M27.7869909,12.2920336 L28.1679297,12.2920336 C29.1440856,12.2920336 29.1797986,11.9762384 29.1797986,10.8679761 L29.1797986,4.70699106 C29.1797986,3.54510316 29.1797986,3.22930799 28.1024559,3.22930799 L27.7869909,3.22930799 L27.7869909,12.2920336 Z" id="Shape"></path>
                            <polygon id="Path" points="34.9576784 0.142857143 34.9576784 23.7142857 41.949214 23.7142857 41.949214 20.6138782 39.3377746 20.6138782 39.3377746 12.3362066 41.949214 12.3362066 41.949214 9.22984816 39.3377746 9.22984816 39.3377746 3.22541205 41.949214 3.22541205 41.949214 0.142857143"></polygon>
                            <path d="M48.8875993,0.142857143 C53.018405,0.142857143 53.6493349,1.2199661 53.6493349,4.90355971 L53.6493349,7.98016374 C53.6493349,10.0986764 53.4588655,11.288852 51.6553582,12.0446136 C53.2683961,12.6397014 53.6493349,13.7287121 53.6493349,15.6746493 L53.6493349,23.7142857 L49.3280599,23.7142857 L49.3280599,14.9783965 C49.3280599,14.222635 49.0423557,13.9072384 48.2864302,13.9072384 C48.1554825,13.9072384 48.0661999,13.9369928 47.9352522,13.9369928 L47.9352522,23.7142857 L43.5187424,23.7142857 L43.5187424,0.142857143 L48.8875993,0.142857143 Z M47.9054915,10.4200238 C48.0364392,10.4200238 48.1911956,10.4200238 48.2864303,10.4200238 C49.1078298,10.4200238 49.2982992,10.1284308 49.2982992,9.22984815 L49.2982992,4.70122988 C49.2982992,3.57056303 49.2982992,3.2254121 48.1911956,3.2254121 L47.9054915,3.2254121 L47.9054915,10.4200238 Z" id="Shape"></path>
                            <path d="M65.3494559,8.17619641 L60.9652828,8.17619641 L60.9652828,4.15940224 C60.9652828,3.48795588 60.8046686,3.14331969 60.2395446,3.14331969 C59.6744205,3.14331969 59.573293,3.48795588 59.573293,4.15940224 L59.573293,19.7096246 C59.573293,20.404839 59.7636506,20.6959972 60.2990313,20.6959972 C60.834412,20.6959972 60.9652828,20.375129 60.9652828,19.7096246 L60.9652828,13.7082014 L65.3494559,13.7082014 L65.3494559,19.1332503 C65.3494559,23.1025085 64.7545884,23.8571429 60.3347233,23.8571429 C55.9148583,23.8571429 55.2188634,23.1856965 55.2188634,19.1332503 L55.2188634,4.69418253 C55.2188634,0.695214375 55.7245007,0 60.2692879,0 C64.7188964,0 65.3494559,0.635794343 65.3494559,4.69418253 L65.3494559,8.17619641 Z" id="Path"></path>
                            <path d="M71.6154081,4.82024765 L71.7406636,4.82024765 L72.4027285,15.5318282 L70.9175559,15.5318282 L71.6154081,4.82024765 Z M68.734531,0.142857143 L66.2055623,23.7142857 L70.4403919,23.7142857 L70.7624776,18.6917445 L72.6055231,18.6917445 L72.9216442,23.7142857 L77.1922612,23.7142857 L74.5857534,0.142857143 L68.734531,0.142857143 Z" id="Shape"></path>
                            <path d="M88.3216445,8.25938445 L83.9672148,8.25938445 L83.9672148,4.09998221 C83.9672148,3.40476783 83.7768573,3.11360968 83.2414766,3.11360968 C82.7060959,3.11360968 82.6109171,3.45824586 82.6109171,4.09998221 L82.6109171,7.74837218 C82.6109171,8.50300658 82.7060959,8.79416474 83.5864997,9.25764099 L86.2693518,10.6956058 C88.0063648,11.5928482 88.3216445,12.7218289 88.3216445,14.2608077 L88.3216445,19.1570183 C88.3216445,23.1856965 87.8160072,23.8571429 83.2414766,23.8571429 C78.8275602,23.8571429 78.191052,23.1322185 78.191052,19.1570183 L78.191052,13.9696495 L82.6109171,13.9696495 L82.6109171,19.7096246 C82.6109171,20.375129 82.8012747,20.7257072 83.3366554,20.7257072 C83.872036,20.7257072 83.9672148,20.375129 83.9672148,19.7096246 L83.9672148,14.7242839 C83.9672148,13.9696495 83.9017794,13.7379114 82.9916322,13.2447251 L80.1838579,11.7413983 C78.5420238,10.8679239 78.191052,9.70923323 78.191052,8.05735634 L78.191052,4.69418253 C78.191052,0.695214375 78.8573035,0 83.2712199,0 C87.8160072,0 88.3216445,0.754634407 88.3216445,4.69418253 L88.3216445,8.25938445 Z" id="Path"></path>
                            <rect id="Rectangle" x="89.8911729" y="0.142857143" width="4.42321644" height="23.5714286"></rect>
                            <polygon id="Path" points="102.49297 0.142857143 102.558709 11.9017925 102.367467 11.9017925 99.9590142 0.142857143 96.0266022 0.142857143 96.0266022 23.7142857 99.8633932 23.7142857 99.7677722 11.6399538 99.9590142 11.6399538 102.397349 23.7142857 106.299879 23.7142857 106.299879 0.142857143"></polygon>
                            <path d="M112.919832,0 C117.369441,0 118,0.635794343 118,4.69418253 L118,19.1332503 C118,23.1025085 117.405133,23.8571429 112.985267,23.8571429 C108.565402,23.8571429 107.869407,23.1916385 107.869407,19.1332503 L107.869407,4.69418253 C107.869407,0.695214375 108.375045,0 112.919832,0 L112.919832,0 Z M112.223837,19.709625 C112.223837,20.4048393 112.414195,20.6959975 112.949575,20.6959975 C113.484956,20.6959975 113.615827,20.3751293 113.615827,19.709625 L113.615827,4.15940237 C113.615827,3.487956 113.455213,3.14331981 112.890089,3.14331981 C112.324965,3.14331981 112.223837,3.487956 112.223837,4.15940237 L112.223837,19.709625 Z" id="Shape"></path>
                        </g>
                    </g>
                </g>
            </g>
        </g>
    </g>
</svg>