<?xml version="1.0" encoding="UTF-8"?>
<svg width="201px" height="30px" viewBox="0 0 201 30" version="1.1" xmlns="http://www.w3.org/2000/svg" xmlns:xlink="http://www.w3.org/1999/xlink">
    <!-- Generator: sketchtool 53.2 (72643) - https://sketchapp.com -->
    <title>C7EA61BF-0869-4F4C-A0F2-10196EBC45F1</title>
    <desc>Created with sketchtool.</desc>
    <defs>
        <polygon id="path-1" points="0.0676377585 0.02862 13.6218491 0.02862 13.6218491 29.0737154 0.0676377585 29.0737154"></polygon>
    </defs>
    <g id="Theme-Guide" stroke="none" stroke-width="1" fill="none" fill-rule="evenodd">
        <g id="02---Assets" transform="translate(-128.000000, -359.000000)">
            <g id="LiveRoulette/logos/CasinoDK/Colour" transform="translate(128.000000, 359.000000)">
                <g id="Group-25">
                    <polygon id="Fill-1" fill="#FF2179" points="0 0.72 0 29.64 14.1499979 29.64 14.862254 23.6926333 7.36389426 23.6926333 7.36389426 0.72"></polygon>
                    <polygon id="Fill-2" fill="#FF2179" points="16.6601073 29.64 23.9713775 29.64 23.9713775 0.72 16.6601073 0.72"></polygon>
                    <g id="Group-24" transform="translate(25.529517, 0.000000)">
                        <path d="M4.26282562,29.5399865 L0.0903784454,0.589848 L7.76067149,0.589848 L8.51439632,10.5913911 C8.781658,14.1446557 9.08349959,18.4382326 9.25932964,22.314468 L9.63619206,22.314468 C9.79561131,18.1299157 10.1027278,14.321088 10.3453733,10.5908049 L11.0270078,0.589848 L18.4980268,0.589848 L14.2441117,29.5399865 L4.26282562,29.5399865 Z" id="Fill-3" fill="#FF2179"></path>
                        <polygon id="Fill-5" fill="#FF2179" points="34.4281124 17.4305169 27.5789457 17.4305169 27.5789457 23.7176031 35.5452193 23.7176031 34.7129571 29.5398692 20.3306448 29.5398692 20.3306448 0.589730769 34.7457787 0.589730769 34.7457787 6.44013231 27.5789457 6.44013231 27.5789457 11.5865631 34.4281124 11.5865631"></polygon>
                        <path d="M42.8687169,12.9774475 L44.7864367,12.9774475 C47.6155423,12.9774475 48.6664199,11.7441798 48.6664199,8.67449215 L48.6664199,8.16981369 C48.6664199,5.72965523 47.7919584,4.26544292 45.1205138,4.26544292 L42.8687169,4.26544292 L42.8687169,12.9774475 Z M42.8687169,16.7481752 L42.8687169,29.5398106 L38.2854135,29.5398106 L38.2854135,0.495301385 L45.6966503,0.495301385 C50.5272879,0.495301385 53.2661341,2.78423215 53.2661341,7.92187062 L53.2661341,8.47344138 C53.2661341,12.7687768 51.2622576,14.2968798 49.8825778,14.8367275 C51.9069678,15.7499552 52.9004076,17.3736014 52.9004076,21.475506 L52.9004076,22.0751414 C52.9004076,24.9238491 52.9549149,27.8809952 53.2338986,29.5398106 L48.7824677,29.5398106 C48.3798169,28.0011568 48.3821613,24.4807168 48.3821613,22.1835798 L48.3821613,21.6413875 C48.3821613,17.8876583 47.6981824,16.7481752 44.676836,16.7481752 L42.8687169,16.7481752 Z" id="Fill-7" fill="#FFFFFF"></path>
                        <path d="M60.9511382,11.3300035 L60.9511382,18.4136728 C60.9511382,23.3133328 61.9820885,26.0008482 64.4050266,26.0008482 C66.9662844,26.0008482 67.8852895,23.4915235 67.8852895,18.3855374 L67.8852895,11.3253143 C67.8852895,6.53585123 66.9615956,4.08807277 64.3962351,4.08807277 C61.9393031,4.08807277 60.9511382,6.63491123 60.9511382,11.3300035 M72.5858129,11.5662235 L72.5858129,18.1962097 C72.5858129,26.2909943 70.0110748,29.9949005 64.24971,29.9949005 C58.7726039,29.9949005 56.2494426,26.282202 56.2494426,18.2067605 L56.2494426,11.529882 C56.2494426,3.51422815 59.3458099,0.0576789231 64.4970443,0.0576789231 C69.8651359,0.0576789231 72.5858129,3.74868969 72.5858129,11.5662235" id="Fill-9" fill="#FFFFFF"></path>
                        <path d="M80.7989519,0.495008308 L80.7989519,21.563136 C80.7989519,23.8995452 81.4758976,26.0009068 84.0477052,26.0009068 C86.5966549,26.0009068 87.2495705,24.0812529 87.2495705,21.5813068 L87.2495705,0.495008308 L91.8545596,0.495008308 L91.8545596,21.5748591 C91.8545596,26.4821391 89.814931,29.9996483 83.9656512,29.9996483 C78.28341,29.9996483 76.1939628,26.7810775 76.1939628,21.5983052 L76.1939628,0.495008308 L80.7989519,0.495008308 Z" id="Fill-11" fill="#FFFFFF"></path>
                        <polygon id="Fill-13" fill="#FFFFFF" points="96.1386002 0.495008308 100.738901 0.495008308 100.738901 25.5261222 109.437213 25.5261222 108.99881 29.5401037 96.1386002 29.5401037"></polygon>
                        <polygon id="Fill-15" fill="#FFFFFF" points="124.213326 16.3191692 116.272841 16.3191692 116.272841 25.4567215 125.262446 25.4567215 124.683965 29.5398692 111.707707 29.5398692 111.707707 0.494773846 124.615977 0.494773846 124.615977 4.63067538 116.272841 4.63067538 116.272841 12.2184369 124.213326 12.2184369"></polygon>
                        <polygon id="Fill-17" fill="#FFFFFF" points="132.18634 4.630734 126.703373 4.630734 126.703373 0.494832462 142.278985 0.494832462 142.278985 4.630734 136.787813 4.630734 136.787813 29.5399278 132.18634 29.5399278"></polygon>
                        <polygon id="Fill-19" fill="#FFFFFF" points="149.282531 4.630734 143.80015 4.630734 143.80015 0.494832462 159.375176 0.494832462 159.375176 4.630734 153.884003 4.630734 153.884003 29.5399278 149.282531 29.5399278"></polygon>
                        <g id="Group-23" transform="translate(161.763649, 0.466154)">
                            <mask id="mask-2" fill="white">
                                <use xlink:href="#path-1"></use>
                            </mask>
                            <g id="Clip-22"></g>
                            <polygon id="Fill-21" fill="#FFFFFF" mask="url(#mask-2)" points="12.5732573 15.8530154 4.63277205 15.8530154 4.63277205 24.9905677 13.6223766 24.9905677 13.0438957 29.0737154 0.0676377585 29.0737154 0.0676377585 0.02862 12.9759081 0.02862 12.9759081 4.16452154 4.63277205 4.16452154 4.63277205 11.7522831 12.5732573 11.7522831"></polygon>
                        </g>
                    </g>
                </g>
            </g>
        </g>
    </g>
</svg>