<svg width="200" height="200" viewBox="0 0 200 200" fill="none" xmlns="http://www.w3.org/2000/svg">
<path d="M135.812 69.8127V75.5625C135.731 76.009 135.496 76.4128 135.148 76.7035C134.8 76.9943 134.36 77.1533 133.907 77.1533C133.453 77.1533 133.013 76.9943 132.665 76.7035C132.316 76.4128 132.081 76.009 132 75.5625V69.8127C131.976 69.605 131.976 69.3951 132 69.1874L115.625 64.625C111.69 78.8483 105.348 92.2925 96.875 104.375C92.1482 111.406 86.7699 117.977 80.8121 124C77.2736 128.181 72.6438 131.297 67.4378 133V139.25C67.3566 139.696 67.1208 140.1 66.7725 140.391C66.4241 140.682 65.9849 140.841 65.5312 140.841C65.0774 140.841 64.6382 140.682 64.2899 140.391C63.9415 140.1 63.7057 139.696 63.6246 139.25V133C58.2277 131.475 53.4151 128.361 49.8123 124.063C33.9564 108.091 22.298 88.4447 15.8753 66.875L-0.375351 72.2499V199.938L63.6246 177.062V171.562C63.5738 171.283 63.585 170.996 63.6574 170.722C63.7298 170.448 63.8616 170.192 64.0434 169.974C64.2253 169.757 64.4532 169.581 64.7103 169.461C64.9673 169.341 65.2474 169.279 65.5312 169.279C65.815 169.279 66.0951 169.341 66.3521 169.461C66.6091 169.581 66.8371 169.757 67.0189 169.974C67.2007 170.192 67.3326 170.448 67.405 170.722C67.4773 170.996 67.4885 171.283 67.4378 171.562V177.062L131.625 199.25V194.187C131.706 193.741 131.942 193.337 132.29 193.046C132.638 192.756 133.077 192.597 133.531 192.597C133.985 192.597 134.424 192.756 134.773 193.046C135.121 193.337 135.357 193.741 135.438 194.187V199.25L199.625 175.688V47.1877L135.375 69.3125C135.56 69.4409 135.71 69.6127 135.812 69.8127ZM67.8124 160.688C67.8631 160.967 67.8519 161.254 67.7796 161.528C67.7072 161.803 67.5753 162.058 67.3935 162.276C67.2117 162.493 66.9845 162.669 66.7275 162.789C66.4704 162.909 66.1903 162.972 65.9065 162.972C65.6227 162.972 65.3419 162.909 65.0849 162.789C64.8278 162.669 64.6006 162.493 64.4188 162.276C64.237 162.058 64.1051 161.803 64.0328 161.528C63.9604 161.254 63.9492 160.967 64 160.688V149.875C64.0811 149.429 64.3161 149.025 64.6645 148.734C65.0128 148.443 65.4528 148.284 65.9065 148.284C66.3603 148.284 66.7995 148.443 67.1478 148.734C67.4962 149.025 67.7312 149.429 67.8124 149.875V160.688ZM135.812 183.375C135.731 183.821 135.496 184.225 135.148 184.516C134.8 184.807 134.36 184.966 133.907 184.966C133.453 184.966 133.013 184.807 132.665 184.516C132.316 184.225 132.081 183.821 132 183.375V172.563C132.081 172.116 132.316 171.712 132.665 171.422C133.013 171.131 133.453 170.972 133.907 170.972C134.36 170.972 134.8 171.131 135.148 171.422C135.496 171.712 135.731 172.116 135.812 172.563V183.375ZM135.812 161.75C135.863 162.029 135.852 162.316 135.78 162.591C135.707 162.865 135.575 163.12 135.394 163.338C135.212 163.556 134.985 163.731 134.727 163.851C134.47 163.972 134.19 164.034 133.907 164.034C133.623 164.034 133.342 163.972 133.085 163.851C132.828 163.731 132.601 163.556 132.419 163.338C132.237 163.12 132.105 162.865 132.033 162.591C131.96 162.316 131.949 162.029 132 161.75V151C131.949 150.721 131.96 150.434 132.033 150.159C132.105 149.885 132.237 149.63 132.419 149.412C132.601 149.194 132.828 149.019 133.085 148.899C133.342 148.778 133.623 148.716 133.907 148.716C134.19 148.716 134.47 148.778 134.727 148.899C134.985 149.019 135.212 149.194 135.394 149.412C135.575 149.63 135.707 149.885 135.78 150.159C135.852 150.434 135.863 150.721 135.812 151V161.75ZM135.812 140.187C135.731 140.634 135.496 141.038 135.148 141.328C134.8 141.619 134.36 141.778 133.907 141.778C133.453 141.778 133.013 141.619 132.665 141.328C132.316 141.038 132.081 140.634 132 140.187V129.438C132.081 128.991 132.316 128.587 132.665 128.297C133.013 128.006 133.453 127.846 133.907 127.846C134.36 127.846 134.8 128.006 135.148 128.297C135.496 128.587 135.731 128.991 135.812 129.438V140.187ZM135.812 118.563C135.863 118.842 135.852 119.129 135.78 119.403C135.707 119.677 135.575 119.933 135.394 120.151C135.212 120.369 134.985 120.544 134.727 120.664C134.47 120.784 134.19 120.846 133.907 120.846C133.623 120.846 133.342 120.784 133.085 120.664C132.828 120.544 132.601 120.369 132.419 120.151C132.237 119.933 132.105 119.677 132.033 119.403C131.96 119.129 131.949 118.842 132 118.563V107.812C131.949 107.533 131.96 107.246 132.033 106.972C132.105 106.698 132.237 106.442 132.419 106.224C132.601 106.006 132.828 105.832 133.085 105.711C133.342 105.591 133.623 105.529 133.907 105.529C134.19 105.529 134.47 105.591 134.727 105.711C134.985 105.832 135.212 106.006 135.394 106.224C135.575 106.442 135.707 106.698 135.78 106.972C135.852 107.246 135.863 107.533 135.812 107.812V118.563ZM135.812 97C135.863 97.2792 135.852 97.5663 135.78 97.8408C135.707 98.1152 135.575 98.3702 135.394 98.5881C135.212 98.8059 134.985 98.9812 134.727 99.1015C134.47 99.2218 134.19 99.2842 133.907 99.2842C133.623 99.2842 133.342 99.2218 133.085 99.1015C132.828 98.9812 132.601 98.8059 132.419 98.5881C132.237 98.3702 132.105 98.1152 132.033 97.8408C131.96 97.5663 131.949 97.2792 132 97V86.3124C132.081 85.8659 132.316 85.4625 132.665 85.1718C133.013 84.881 133.453 84.7216 133.907 84.7216C134.36 84.7216 134.8 84.881 135.148 85.1718C135.496 85.4625 135.731 85.8659 135.812 86.3124V97Z" fill="#EBEBEC"/>
<path d="M65.7501 125.625C73.0001 125.625 110.75 84.4374 110.75 45C110.75 33.0652 106.009 21.6192 97.57 13.18C89.1309 4.7409 77.6848 -0.00012207 65.7501 -0.00012207C53.8154 -0.00012207 42.3693 4.7409 33.9302 13.18C25.4911 21.6192 20.7496 33.0652 20.7496 45C20.7496 85.1249 58.1251 125.625 65.7501 125.625ZM42.25 22.0626C46.9242 17.3809 52.8819 14.1911 59.3696 12.8966C65.8573 11.6021 72.5834 12.261 78.6964 14.7902C84.8094 17.3195 90.0345 21.6053 93.7111 27.1052C97.3876 32.6051 99.35 39.0718 99.35 45.6874C99.35 52.3029 97.3876 58.77 93.7111 64.2699C90.0345 69.7698 84.8094 74.0556 78.6964 76.5849C72.5834 79.1141 65.8573 79.773 59.3696 78.4785C52.8819 77.184 46.9242 73.9942 42.25 69.3125C35.9908 63.0433 32.4753 54.5463 32.4753 45.6874C32.4753 36.8284 35.9908 28.3318 42.25 22.0626Z" fill="#EBEBEC"/>
<path d="M93.1876 37.5H38.3126C37.4496 37.5 36.7501 38.1996 36.7501 39.0625V50.75C36.7501 51.6129 37.4496 52.3125 38.3126 52.3125H93.1876C94.0505 52.3125 94.7501 51.6129 94.7501 50.75V39.0625C94.7501 38.1996 94.0505 37.5 93.1876 37.5Z" fill="#EBEBEC"/>
</svg>
