<svg xmlns="http://www.w3.org/2000/svg" xmlns:xlink="http://www.w3.org/1999/xlink" width="75px" height="75px" viewBox="0 0 75 75" version="1.1">
    <title>globe_icon_75x75</title>
    <g id="globe_icon_75x75" stroke="none" stroke-width="1" fill="none" fill-rule="evenodd">
        <path d="M37.4909877,0 L37.3648163,0 C27.3792358,0.0360576818 18.0064888,3.94831732 10.9408796,11.015625 C3.8932949,18.1009615 0,27.4939904 0,37.5 C0,47.5060098 3.8932949,56.8990384 10.9589041,63.984375 C18.0064888,71.0516826 27.3972603,74.9639424 37.3828408,75 L37.5090123,75 C58.1831291,75 75,58.1790866 75,37.5 C75,16.8209135 58.1651045,0 37.4909877,0 Z M69.9711607,34.9759616 L55.9841383,34.9759616 C55.8219177,30.1622596 55.2271087,25.5649038 54.2177363,21.2379808 C57.2999281,20.2463942 60.2919972,18.984375 63.1759193,17.4519231 C67.1413122,22.5360577 69.484499,28.5576923 69.9711607,34.9759616 Z M34.9675558,34.9759616 L23.8284066,34.9759616 C23.9726027,30.5588942 24.5133381,26.3762019 25.4145638,22.5180288 C28.5508291,23.2211538 31.741168,23.6538462 34.9675558,23.7980769 L34.9675558,34.9759616 Z M34.9675558,40.0240384 L34.9675558,51.1838942 C31.7591925,51.328125 28.5508291,51.7608174 25.4145638,52.4639424 C24.5133381,48.6057692 23.9726027,44.4230768 23.8284066,40.0240384 L34.9675558,40.0240384 Z M40.0144197,40.0240384 L51.0634462,40.0240384 C50.9192502,44.4230768 50.3785149,48.6057692 49.477289,52.4459134 C46.377073,51.7427884 43.2047584,51.328125 40.0144197,51.1838942 L40.0144197,40.0240384 Z M40.0144197,34.9759616 L40.0144197,23.7980769 C43.222783,23.6538462 46.3950975,23.2211538 49.477289,22.5360577 C50.3785149,26.3942308 50.9192502,30.5588942 51.0634462,34.9759616 L40.0144197,34.9759616 Z M59.7332373,13.7199519 C57.5162219,14.8197115 55.2271087,15.7572115 52.8839223,16.5144231 C51.6041816,12.65625 49.9819756,9.32091348 48.1074263,6.68870192 C52.4333093,8.18509616 56.3806776,10.5829327 59.7332373,13.7199519 Z M48.1254505,17.8125 C45.475847,18.3894231 42.7541458,18.75 40.0144197,18.8942308 L40.0144197,5.66105768 C43.0785869,7.31971152 46.070656,11.7728365 48.1254505,17.8125 Z M34.9675558,5.58894232 L34.9675558,18.8762019 C32.1917809,18.7319712 29.4520548,18.3713942 26.7664023,17.7764423 C28.8572459,11.6826923 31.885364,7.22956732 34.9675558,5.58894232 Z M26.7483778,6.74278848 C24.8918529,9.35697116 23.2876712,12.6742788 22.0079308,16.4963942 C19.7007931,15.7391827 17.4297044,14.8016827 15.2487383,13.7199519 C18.5652488,10.6009615 22.4765681,8.22115384 26.7483778,6.74278848 L26.7483778,6.74278848 Z M11.8060562,17.4699519 C14.6539293,18.984375 17.6279741,20.2463942 20.6741168,21.2199519 C19.6467195,25.5288462 19.0519106,30.1442308 18.9077145,34.9579326 L5.02883922,34.9579326 C5.49747658,28.5757212 7.8406633,22.5540865 11.8060562,17.4699519 L11.8060562,17.4699519 Z M5.0108147,40.0240384 L18.88969,40.0240384 C19.0519106,44.8377402 19.6467195,49.453125 20.6560923,53.7620192 C17.6099495,54.7536058 14.6359048,56.015625 11.7880317,57.5120192 C7.8406633,52.4459134 5.49747658,46.424279 5.0108147,40.0240384 Z M15.2307138,61.2800482 C17.4116799,60.1983174 19.6827686,59.2608174 22.0079308,58.5036058 C23.2876712,62.34375 24.8918529,65.643029 26.7483778,68.2752402 C22.4765681,66.7608174 18.5652488,64.3990384 15.2307138,61.2800482 Z M26.7664023,57.205529 C29.4520548,56.6105768 32.2098055,56.25 34.9675558,56.1057692 L34.9675558,69.4110576 C31.8673394,67.7704326 28.8572459,63.299279 26.7664023,57.205529 L26.7664023,57.205529 Z M40.0144197,69.3389424 L40.0144197,56.0877402 C42.7541458,56.231971 45.475847,56.5925482 48.1254505,57.169471 C46.070656,63.2271634 43.0785869,67.6802884 40.0144197,69.3389424 Z M48.1254505,68.3112982 C50.0000001,65.6790866 51.6222061,62.34375 52.9019465,58.4855768 C55.2451333,59.2427884 57.552271,60.1983174 59.7512618,61.2980768 C56.3987022,64.4170674 52.4333093,66.814904 48.1254505,68.3112982 Z M63.1759193,57.5300482 C60.2919972,55.997596 57.2999281,54.7355768 54.2177363,53.7439902 C55.2271087,49.435096 55.8219177,44.8377402 55.9841383,40.0240384 L69.9711607,40.0240384 C69.484499,46.424279 67.1593367,52.4459134 63.1759193,57.5300482 L63.1759193,57.5300482 Z" id="globe-icon" fill="#f60" fill-rule="nonzero"/>
    </g>
</svg>