<?xml version="1.0" encoding="utf-8"?>
<svg version="1.1" xmlns="http://www.w3.org/2000/svg" viewBox="0 0 215 32">
<path fill="#f05a22" d="M0 15.925c0.009-6.703 5.444-12.133 12.148-12.133 6.709 0 12.148 5.439 12.148 12.148s-5.439 12.148-12.148 12.148v0c-6.71-0.006-12.148-5.447-12.148-12.158 0-0.002 0-0.004 0-0.005v0z"></path>
<path fill="#fff" d="M121.349 21.532c-2.836-0.077-5.124-2.322-5.271-5.133l-0.001-0.013v-0.903c0.15-2.822 2.437-5.064 5.264-5.141l0.007-0c2.924 0 5.297 2.508 5.297 5.598s-2.372 5.592-5.297 5.592zM122.272 5.608c-2.381 0.005-4.554 0.892-6.21 2.351l0.010-0.009v-1.75h-5.467v25.801h5.467v-8.070c1.646 1.451 3.819 2.337 6.198 2.342h0.001c5.402 0 9.776-4.624 9.776-10.332s-4.379-10.332-9.776-10.332z"></path>
<path fill="#fff" d="M214.54 6.199h-4.133v-6.199h-5.457v6.199h-2.528v4.504h2.528v14.947h5.457v-14.947h4.133v-4.504z"></path>
<path fill="#fff" d="M173.357 15.93c0 3.090-2.367 5.587-5.292 5.587-2.833-0.075-5.119-2.316-5.266-5.123l-0.001-0.013v-0.903c0.147-2.821 2.434-5.061 5.259-5.136l0.007-0c2.924 0 5.292 2.508 5.292 5.587zM178.759 15.93c0-5.698-4.374-10.322-9.771-10.322-2.379 0.004-4.55 0.889-6.205 2.346l0.010-0.009v-7.945h-5.457v25.65h5.462v-1.74c1.644 1.45 3.815 2.337 6.193 2.342h0.001c5.397 0 9.771-4.619 9.771-10.322z"></path>
<path fill="#fff" d="M139.406 15.488c-0.050-2.874 2.598-5.407 5.517-5.407 3.009 0 4.063 2.172 4.063 2.172l-9.53 3.877s0-0.291 0-0.637zM141.016 20.108l13.793-5.613c-0.547-5.206-4.795-8.893-10.031-8.893-0.025-0-0.055-0-0.086-0-5.721 0-10.364 4.614-10.412 10.323l-0 0.005c0 5.703 4.77 10.322 10.759 10.322 3.952 0 7.468-1.58 9.028-3.431l-2.974-3.009c-5.878 4.218-9.826 0.792-10.066 0.301z"></path>
<path fill="#fff" d="M64.497 6.199v10.994c0.002 0.044 0.002 0.096 0.002 0.148 0 2.399-1.945 4.344-4.344 4.344s-4.344-1.945-4.344-4.344c0-0.052 0.001-0.104 0.003-0.155l-0 0.007v-10.994h-5.422v10.272c-0.002 0.066-0.002 0.143-0.002 0.221 0 5.393 4.372 9.766 9.766 9.766s9.766-4.372 9.766-9.766c0-0.078-0.001-0.155-0.003-0.233l0 0.012v-10.272z"></path>
<path fill="#fff" d="M97.199 21.537c-2.986-0.078-5.378-2.517-5.378-5.515 0-0.032 0-0.065 0.001-0.097l-0 0.005c-0.002-0.049-0.002-0.107-0.002-0.164 0-2.972 2.41-5.382 5.382-5.382s5.382 2.41 5.382 5.382c0 0.058-0.001 0.115-0.003 0.173l0-0.008c0.001 0.027 0.001 0.060 0.001 0.092 0 2.998-2.391 5.437-5.37 5.515l-0.007 0zM97.204 5.608c-5.949 0-10.774 4.619-10.774 10.322s4.825 10.322 10.774 10.322 10.774-4.619 10.774-10.322-4.825-10.322-10.774-10.322z"></path>
<path fill="#fff" d="M32.547 15.488c-0.050-2.874 2.598-5.407 5.517-5.407 3.009 0 4.063 2.172 4.063 2.172l-9.53 3.877s0-0.291 0-0.637zM34.107 20.103l13.793-5.613c-0.547-5.206-4.795-8.893-10.031-8.893-0.031-0-0.069-0.001-0.106-0.001-5.721 0-10.364 4.614-10.412 10.323l-0 0.005c0 5.703 4.75 10.322 10.769 10.322 3.952 0 7.468-1.58 9.028-3.431l-2.974-3.009c-5.878 4.218-9.826 0.792-10.066 0.301z"></path>
<path fill="#fff" d="M186.031 15.488c-0.050-2.874 2.598-5.407 5.517-5.407 3.009 0 4.063 2.172 4.063 2.172l-9.53 3.877s0-0.291 0-0.637zM187.641 20.108l13.793-5.613c-0.547-5.206-4.795-8.893-10.031-8.893-0.025-0-0.055-0-0.086-0-5.721 0-10.364 4.614-10.412 10.323l-0 0.005c0 5.703 4.77 10.322 10.759 10.322 3.952 0 7.468-1.58 9.028-3.431l-2.974-3.009c-5.878 4.218-9.826 0.792-10.066 0.301z"></path>
<path fill="#fff" d="M85.216 5.818c-4.283-0.742-12.148 0.642-12.148 8.973v10.859h5.442v-9.445c0-6.671 6.706-5.517 6.706-5.517z"></path>
</svg>