<svg xmlns="http://www.w3.org/2000/svg" xmlns:xlink="http://www.w3.org/1999/xlink" width="75" height="75" viewBox="6.25 6.25 62.5 62.5" version="1.1">
<g id="surface1">
<path style=" stroke:none;fill-rule:nonzero;fill:rgb(89.019608%,3.921569%,9.019608%);fill-opacity:1;" d="M 68.75 37.5 C 68.75 54.761719 54.761719 68.75 37.5 68.75 C 20.238281 68.75 6.25 54.761719 6.25 37.5 C 6.25 20.238281 20.238281 6.25 37.5 6.25 C 54.761719 6.25 68.75 20.238281 68.75 37.5 Z M 68.75 37.5 "></path>
<path style=" stroke:none;fill-rule:nonzero;fill:rgb(100%,100%,100%);fill-opacity:1;" d="M 36.265625 50.074219 C 28.210938 50.074219 21.679688 43.824219 21.679688 36.109375 C 21.679688 28.394531 28.210938 22.132812 36.265625 22.132812 C 39.769531 22.132812 42.980469 23.316406 45.496094 25.292969 C 42.222656 20.996094 37.074219 18.226562 31.261719 18.226562 C 21.386719 18.226562 13.378906 26.234375 13.378906 36.109375 C 13.378906 45.984375 21.386719 53.992188 31.261719 53.992188 C 37.074219 53.992188 42.22265....207031 45.496094 46.921875 C 42.980469 48.902344 39.769531 50.074219 36.265625 50.074219 Z M 36.265625 50.074219 "></path>
<path style=" stroke:none;fill-rule:nonzero;fill:rgb(100%,100%,100%);fill-opacity:1;" d="M 51.878906 27.429688 L 55.75 32.617188 L 62.144531 30.53125 L 58.203125 36.011719 L 62 41.160156 L 55.785156 39.402344 L 51.804688 44.496094 L 51.832031 38.097656 L 45.445312 35.972656 L 51.84375 33.886719 Z M 51.878906 27.429688 "></path>
</g>
</svg>