<?xml version="1.0" encoding="utf-8"?>
<!DOCTYPE svg PUBLIC "-//W3C//DTD SVG 1.1//EN" "http://www.w3.org/Graphics/SVG/1.1/DTD/svg11.dtd">
<svg version="1.1" xmlns="http://www.w3.org/2000/svg" width="171" height="24" viewBox="0 0 171 24">
<path fill="#ffc229" d="M 44.484375 15.160156 C 44.761719 13.480469 45.28125 12.238281 45.917969 11.441406 C 46.59375 10.679688 47.472656 10.28125 48.546875 10.28125 C 49.382812 10.28125 49.941406 10.558594 50.21875 11.160156 C 50.496094 11.757812 50.539062 12.640625 50.339844 13.800781 L 48.667969 23.320312 L 53.085938 23.320312 L 54.957031 12.679688 C 55.316406 10.597656 55.117188 9.078125 54.363281 8.117188 C 53.605469 7.160156 52.289062 6.679688 50.457031 6.679688 C 49.382812 6.679688 48.425781 6.878906 47.511719 7.320312 C 46.59375 7.71875 45.839844 8.316406 45.28125 9.078125 L 44.882812 9.078125 C 44.285156 7.480469 42.8125 6.679688 40.382812 6.679688 C 39.308594 6.679688 38.351562 6.878906 37.433594 7.320312 C 36.519531 7.757812 35.800781 8.316406 35.246094 9.078125 L 35.046875 9.078125 L 34.804688 7 L 31.421875 7 L 28.554688 23.320312 L 32.976562 23.320312 L 34.328125 15.640625 C 34.648438 13.71875 35.164062 12.359375 35.800781 11.519531 C 36.4375 10.679688 37.355469 10.28125 38.46875 10.28125 C 39.304688 10.28125 39.863281 10.558594 40.140625 11.160156 C 40.421875 11.757812 40.460938 12.640625 40.261719 13.800781 L 38.628906 23.359375 L 43.050781 23.359375 Z M 44.484375 15.160156 "/>
<path fill="#ffc229" d="M 61.609375 11.519531 C 62.289062 10.71875 63.203125 10.320312 64.359375 10.320312 C 65.554688 10.320312 66.308594 10.71875 66.707031 11.519531 C 67.105469 12.320312 67.144531 13.519531 66.867188 15.160156 C 66.589844 16.800781 66.109375 18 65.472656 18.839844 C 64.796875 19.679688 63.878906 20.078125 62.726562 20.078125 C 61.53125 20.078125 60.773438 19.679688 60.375 18.839844 C 59.976562 18 59.9375 16.800781 60.214844 15.160156 C 60.496094 13.519531 60.972656 12.320312 61.609375 11.519531 Z M 71.207031 10.679688 C 70.808594 9.398438 70.050781 8.441406 68.976562 7.761719 C 67.902344 7.082031 66.585938 6.71875 65.035156 6.71875 C 62.527344 6.71875 60.496094 7.441406 58.820312 8.917969 C 57.1875 10.398438 56.152344 12.480469 55.675781 15.121094 C 55.355469 16.839844 55.4375 18.320312 55.835938 19.601562 C 56.234375 20.878906 56.988281 21.878906 58.066406 22.558594 C 59.140625 23.242188 60.453125 23.601562 61.96875 23.601562 C 64.4375 23.601562 66.507812 22.839844 68.140625 21.359375 C 69.773438 19.878906 70.851562 17.800781 71.328125 15.121094 C 71.6875 13.441406 71.605469 11.960938 71.207031 10.679688 Z M 71.207031 10.679688 "/>
<path fill="#ffc229" d="M 78.097656 9.160156 L 77.9375 9.160156 C 78.296875 7.679688 78.574219 6.601562 78.65625 5.917969 L 79.570312 0.640625 L 75.152344 0.640625 L 71.167969 23.359375 L 74.554688 23.359375 L 75.589844 21.558594 L 75.910156 21.558594 C 76.746094 22.960938 78.097656 23.640625 80.011719 23.640625 C 81.921875 23.640625 83.554688 22.917969 84.949219 21.441406 C 86.300781 19.960938 87.257812 17.878906 87.695312 15.160156 C 88.132812 12.558594 87.976562 10.480469 87.136719 8.960938 C 86.339844 7.4375 84.949219 6.71875 83.035156 6.71875 C 81.085938 6.71875 79.414062 7.519531 78.097656 9.160156 Z M 83.074219 11.480469 C 83.472656 12.28125 83.554688 13.480469 83.234375 15.082031 C 82.957031 16.679688 82.476562 17.921875 81.800781 18.761719 C 81.125 19.601562 80.328125 20.039062 79.410156 20.039062 C 78.296875 20.039062 77.539062 19.679688 77.179688 18.921875 C 76.78125 18.160156 76.742188 16.921875 77.0625 15.160156 L 77.140625 14.679688 C 77.417969 13.121094 77.898438 12 78.496094 11.320312 C 79.132812 10.640625 79.96875 10.320312 81.042969 10.320312 C 82 10.28125 82.675781 10.679688 83.074219 11.480469 Z M 83.074219 11.480469 "/>
<path fill="#ffc229" d="M 92.992188 5 C 93.789062 5 94.425781 4.800781 94.902344 4.441406 C 95.382812 4.039062 95.660156 3.519531 95.78125 2.839844 C 96.019531 1.398438 95.339844 0.679688 93.75 0.679688 C 92.15625 0.679688 91.238281 1.398438 90.960938 2.839844 C 90.722656 4.28125 91.398438 5 92.992188 5 Z M 94.824219 7.039062 L 90.402344 7.039062 L 87.535156 23.359375 L 91.957031 23.359375 Z M 94.824219 7.039062 "/>
<path fill="#ffc229" d="M 102.589844 0.640625 L 98.167969 0.640625 L 94.1875 23.359375 L 98.609375 23.359375 Z M 102.589844 0.640625 "/>
<path fill="#dededd" d="M 107.765625 9.160156 L 107.609375 9.160156 C 107.964844 7.679688 108.246094 6.601562 108.324219 5.917969 L 109.242188 0.640625 L 104.820312 0.640625 L 100.839844 23.359375 L 104.222656 23.359375 L 105.257812 21.558594 L 105.578125 21.558594 C 106.414062 22.960938 107.769531 23.640625 109.679688 23.640625 C 111.589844 23.640625 113.222656 22.917969 114.617188 21.441406 C 115.972656 19.960938 116.925781 17.878906 117.367188 15.160156 C 117.804688 12.558594 117.644531 10.480469 116.808594 8.960938 C 116.011719 7.4375 114.617188 6.71875 112.707031 6.71875 C 110.753906 6.71875 109.082031 7.519531 107.769531 9.160156 Z M 112.746094 11.480469 C 113.144531 12.28125 113.222656 13.480469 112.90625 15.082031 C 112.625 16.679688 112.148438 17.921875 111.472656 18.761719 C 110.792969 19.601562 109.996094 20.039062 109.082031 20.039062 C 107.964844 20.039062 107.210938 19.679688 106.851562 18.921875 C 106.453125 18.160156 106.414062 16.921875 106.730469 15.160156 L 106.8125 14.679688 C 107.089844 13.121094 107.566406 12 108.164062 11.320312 C 108.800781 10.640625 109.636719 10.320312 110.714844 10.320312 C 111.667969 10.28125 112.347656 10.679688 112.746094 11.480469 Z M 112.746094 11.480469 "/>
<path fill="#dededd" d="M 130.585938 23.359375 L 132.5 12.480469 C 132.855469 10.519531 132.5 9.082031 131.542969 8.121094 C 130.546875 7.160156 128.996094 6.679688 126.804688 6.679688 C 124.535156 6.679688 122.382812 7.160156 120.351562 8.160156 L 121.269531 11.160156 C 123.140625 10.359375 124.734375 9.960938 126.007812 9.960938 C 127.679688 9.960938 128.359375 10.800781 128.078125 12.441406 L 127.957031 13.160156 L 125.132812 13.242188 C 122.703125 13.320312 120.828125 13.800781 119.476562 14.601562 C 118.121094 15.441406 117.324219 16.679688 117.007812 18.441406 C 116.726562 20.082031 116.925781 21.359375 117.683594 22.28125 C 118.402344 23.160156 119.554688 23.640625 121.109375 23.640625 C 122.382812 23.640625 123.417969 23.441406 124.253906 23.078125 C 125.089844 22.71875 125.96875 22.078125 126.882812 21.121094 L 127.003906 21.121094 L 127.480469 23.320312 L 130.585938 23.320312 Z M 127.28125 17.121094 C 127.121094 18.121094 126.683594 18.878906 125.96875 19.480469 C 125.25 20.082031 124.375 20.359375 123.378906 20.359375 C 121.945312 20.359375 121.347656 19.71875 121.585938 18.480469 C 121.746094 17.601562 122.183594 16.960938 122.859375 16.519531 C 123.578125 16.078125 124.574219 15.839844 125.847656 15.800781 L 127.558594 15.761719 Z M 127.28125 17.121094 "/>
<path fill="#dededd" d="M 149.503906 12.71875 C 149.824219 10.800781 149.625 9.320312 148.789062 8.28125 C 147.992188 7.238281 146.636719 6.71875 144.726562 6.71875 C 142.574219 6.71875 140.902344 7.519531 139.628906 9.121094 L 139.386719 9.121094 L 139.707031 7.800781 C 140.027344 6.480469 140.183594 5.640625 140.265625 5.28125 L 141.0625 0.640625 L 136.640625 0.640625 L 132.660156 23.359375 L 137.078125 23.359375 L 138.433594 15.679688 C 138.75 13.800781 139.269531 12.398438 139.984375 11.558594 C 140.664062 10.71875 141.660156 10.28125 142.894531 10.28125 C 144.644531 10.28125 145.28125 11.441406 144.886719 13.800781 L 143.210938 23.320312 L 147.632812 23.320312 Z M 149.503906 12.71875 "/>
<path fill="#dededd" d="M 155.238281 5 C 156.035156 5 156.671875 4.800781 157.152344 4.441406 C 157.628906 4.039062 157.90625 3.519531 158.027344 2.839844 C 158.265625 1.398438 157.589844 0.679688 155.996094 0.679688 C 154.402344 0.679688 153.484375 1.398438 153.207031 2.839844 C 152.96875 4.28125 153.644531 5 155.238281 5 Z M 157.070312 7.039062 L 152.652344 7.039062 L 149.785156 23.359375 L 154.203125 23.359375 Z M 157.070312 7.039062 "/>
<path fill="#dededd" d="M 168.542969 16.398438 C 168.382812 15.800781 168.023438 15.320312 167.503906 14.839844 C 166.988281 14.398438 166.152344 13.921875 164.996094 13.398438 C 163.683594 12.839844 162.847656 12.402344 162.488281 12.121094 C 162.128906 11.839844 161.96875 11.480469 162.050781 11.078125 C 162.167969 10.359375 162.886719 10 164.199219 10 C 164.917969 10 165.632812 10.121094 166.3125 10.320312 C 166.988281 10.558594 167.664062 10.839844 168.421875 11.199219 L 170.292969 8 C 168.621094 7.160156 166.789062 6.71875 164.835938 6.71875 C 162.804688 6.71875 161.132812 7.117188 159.898438 7.917969 C 158.664062 8.71875 157.90625 9.839844 157.628906 11.277344 C 157.46875 12.121094 157.46875 12.839844 157.667969 13.398438 C 157.828125 13.960938 158.1875 14.480469 158.664062 14.917969 C 159.179688 15.359375 159.976562 15.839844 161.132812 16.359375 C 161.929688 16.71875 162.566406 17.039062 163.046875 17.320312 C 163.523438 17.597656 163.84375 17.839844 164 18.078125 C 164.160156 18.28125 164.238281 18.597656 164.160156 18.917969 C 164 19.839844 163.125 20.320312 161.53125 20.320312 C 160.734375 20.320312 159.859375 20.199219 158.902344 19.921875 C 157.90625 19.640625 157.070312 19.320312 156.3125 18.960938 L 155.675781 22.640625 C 156.355469 22.960938 157.070312 23.199219 157.867188 23.359375 C 158.664062 23.519531 159.660156 23.601562 160.816406 23.601562 C 163.125 23.601562 164.917969 23.160156 166.191406 22.28125 C 167.503906 21.402344 168.300781 20.121094 168.582031 18.441406 C 168.738281 17.679688 168.699219 17 168.542969 16.398438 Z M 168.542969 16.398438 "/>
<path fill="#ffc229" d="M 14.296875 6.320312 L 18.558594 6.320312 C 19.035156 6.320312 19.914062 6.921875 19.59375 7.480469 L 17.324219 20.359375 C 16.925781 22.28125 16.328125 23.800781 14.457031 23.800781 L 10.195312 23.800781 C 9.71875 23.800781 9.28125 23.402344 9.199219 22.960938 L 11.46875 10.082031 C 11.828125 8.242188 12.425781 6.320312 14.296875 6.320312 Z M 14.296875 6.320312 "/>
<path fill="#ffc229" d="M 5.019531 12.800781 L 8.722656 12.800781 C 9.121094 12.800781 9.957031 13.160156 9.675781 13.519531 L 8.125 21.601562 C 7.847656 22.800781 7.367188 23.761719 5.734375 23.761719 L 2.03125 23.761719 C 1.632812 23.761719 1.234375 23.519531 1.15625 23.242188 L 2.707031 15.160156 C 2.90625 14 3.386719 12.800781 5.019531 12.800781 Z M 5.019531 12.800781 "/>
<path fill="#ffc229" d="M 24.492188 0.199219 L 28.753906 0.199219 C 29.230469 0.199219 30.148438 0.199219 29.75 1.039062 L 26.285156 20.359375 C 25.964844 22.160156 25.289062 23.800781 23.417969 23.800781 L 19.15625 23.800781 C 18.679688 23.800781 18.238281 23.402344 18.160156 22.960938 L 21.585938 3.640625 C 21.90625 1.921875 22.621094 0.199219 24.492188 0.199219 Z M 24.492188 0.199219 "/>
</svg>
