<?xml version="1.0" encoding="UTF-8"?>
<svg width="179px" height="30px" viewBox="0 0 179 30" version="1.1" xmlns="http://www.w3.org/2000/svg" xmlns:xlink="http://www.w3.org/1999/xlink">
    <!-- Generator: sketchtool 56 (101010) - https://sketch.com -->
    <title>3379F880-774D-4925-8928-8FD25BB029EB</title>
    <desc>Created with sketchtool.</desc>
    <g id="Customer-Support" stroke="none" stroke-width="1" fill="none" fill-rule="evenodd">
        <g id="Customer-Support-02" transform="translate(-98.000000, -91.000000)" fill-rule="nonzero">
            <g id="Customer/Support/Mobile-nav-bar" transform="translate(0.000000, 76.000000)">
                <g id="Mobile-nav-bar">
                    <g id="LiveRoulette/logos/CasinoDK/Colour" transform="translate(98.000000, 15.000000)">
                        <g id="JP-LRBRAND-ReversedOut">
                            <path d="M13.7465926,15.256914 C13.8124023,18.9337967 12.3657489,22.4762481 9.74544903,25.0546005 C7.19329022,27.6894488 3.6664277,29.1515871 0,29.0947904 L0,20.7884492 C1.45419717,20.8122922 2.85107956,20.2216335 3.84760082,19.1615271 C4.88889819,18.1337528 5.45790625,16.7200219 5.41915609,15.256914 L5.41915609,0 L13.7375607,0 L13.7465926,15.256914 Z" id="Path" fill="#EF5721"></path>
                            <path d="M25.1796751,24.3795181 L19.5127657,24.3795181 L18.6916053,26.746988 L12.8442211,26.746988 L19.0435312,8.85542169 L25.6579334,8.85542169 L31.839196,26.6837349 L26.0008355,26.6837349 L25.1796751,24.3795181 Z M23.5914969,19.8614461 L22.3371969,16.2469882 L21.0738732,19.8614461 L23.5914969,19.8614461 Z" id="Shape" fill="#EF5721"></path>
                            <path d="M46.4925123,25.4341092 C44.3218581,27.1795388 43.0194655,27.4689364 40.3423253,27.4689364 C37.8001347,27.5052607 35.355649,26.4908958 33.5861639,24.6653967 C31.74732,22.8991617 30.7224321,20.4501029 30.7552689,17.9007266 C30.7092311,15.3489468 31.7246189,12.8925579 33.5590307,11.1179691 C35.3260306,9.288819 37.7721712,8.27376742 40.3151921,8.31442935 C42.4952037,8.3725392 44.600767,9.11971754 46.3297132,10.448737 L43.2184421,15.1243178 L43.1732202,15.0790995 C42.4272785,14.303202 41.3913505,13.8737849 40.3151921,13.8943778 C38.0999698,13.8992446 36.3012106,15.685763 36.2813929,17.9007266 C36.1997695,18.9328142 36.5769427,19.9484546 37.3124537,20.6771353 C38.135211,21.430968 39.2283513,21.8192468 40.3423253,21.7533328 C41.4745773,21.8704418 42.6083905,21.5465209 43.5078627,20.8489651 C43.5343209,20.8273077 43.5585587,20.8030718 43.5802179,20.7766157 L47.0351759,24.8734012 L46.4925123,25.4341092 Z" id="Path" fill="#EF5721"></path>
                            <polygon id="Path" fill="#EF5721" points="53.677266 14.6728422 53.677266 8.83004262 48.120603 8.83004262 48.120603 26.6754924 53.677266 26.6754924 53.677266 20.4975245 61.0891665 30 65.4874372 26.6754924 58.6094831 17.580654 64.0937465 12.0730228 60.1841726 8.13253012"></polygon>
                            <path d="M80.4365815,21.9229906 C79.0143264,23.3837539 77.0601943,24.1961885 75.0276361,24.1717713 L71.773254,24.1717713 L71.773254,26.746988 L66.2110553,26.746988 L66.2110553,8.85648642 L75.0005914,8.85648642 C77.0298226,8.82231657 78.987184,9.61182601 80.4307245,11.046752 C81.8742651,12.4816781 82.6822622,14.4410245 82.6722789,16.482392 C82.7072491,18.5288991 81.897862,20.498553 80.4365815,21.9229906 M75.0276363,14.3696262 L71.7732541,14.3696262 L71.7732541,18.6223608 L75.0005916,18.6223608 C75.5624552,18.619961 76.1003581,18.3931512 76.4959651,17.9918281 C76.891572,17.590505 77.1124763,17.0475437 77.1101001,16.482392 C77.1125123,15.9197301 76.8907529,15.3795378 76.4943557,14.9825249 C76.0979586,14.5855119 75.5599644,14.3647703 75.0005916,14.3696262" id="Shape" fill="#EF5721"></path>
                            <polygon id="Path" fill="#EF5721" points="118.130653 14.3507532 113.481407 14.3507532 113.481407 26.746988 107.945729 26.746988 107.945729 14.3507532 103.296482 14.3507532 103.296482 8.85542169 118.130653 8.85542169"></polygon>
                            <path d="M138.753769,20.137843 L138.753769,26.5662651 L121.849129,26.5662651 L121.849129,20.9085283 C121.849129,20.9085283 130.687089,13.863558 130.814123,13.709421 C131.211529,13.3967508 131.539144,13.0045332 131.775955,12.5579265 C131.792381,12.4497428 131.792381,12.3397022 131.775955,12.2315186 C131.781141,11.7667138 131.596137,11.3199531 131.263787,10.9947076 C130.931438,10.669462 130.480576,10.4939463 130.015622,10.5088103 C129.160423,10.5176441 128.447018,11.1642778 128.355102,12.0139133 L121.567839,10.5722785 C121.889179,8.87748721 122.72568,7.32292163 123.963344,6.12043754 C127.443196,2.80378787 132.908266,2.77594664 136.421782,6.05696934 C137.978774,7.76847585 138.805711,10.0196563 138.726547,12.3312543 C138.736404,13.0415852 138.606932,13.7469682 138.345444,14.4075712 C137.904764,15.5539628 137.161627,16.5597146 136.194935,17.3180415 L132.4202,20.137843 L138.753769,20.137843 Z" id="Path" fill="#63C8E4"></path>
                            <polygon id="Path" fill="#63C8E4" points="158.653266 11.7737754 158.653266 26.3855422 152.065225 26.3855422 152.065225 21.1098211 141.286432 21.1098211 141.286432 14.9158004 146.153111 4.3373494 153.399055 4.3373494 148.541389 14.9158004 152.065225 14.9158004 152.065225 11.7737754"></polygon>
                            <polygon id="Path" fill="#EF5721" points="161.366834 4.37336115 161.810995 10.8824846 169.07167 10.8824846 163.796123 26.3855422 170.830185 26.3855422 178.371859 4.3373494"></polygon>
                            <path d="M84.7221106,22.2650602 C84.7398125,22.3030839 84.7610089,22.3393842 84.7854271,22.373494 L84.7854271,22.373494 L84.7221106,22.2650602" id="Path" fill="#A71F21"></path>
                            <path d="M84.98708,15.8264195 L84.98708,15.9075824 C84.98708,15.9075824 84.98708,15.8534738 84.98708,15.8264195 L84.98708,15.8264195 C84.9282301,15.0469359 84.9591811,14.2634575 85.0793504,13.4907294 C85.1829331,12.8083748 85.3655716,12.1397454 85.623746,11.4977274 C85.8672192,10.9297959 86.1768286,10.3911703 86.5464505,9.89250415 L86.5464505,9.8383955 C86.787944,9.48370221 87.066228,9.15430109 87.3768844,8.85542169 C85.8415703,9.91674963 84.6656065,11.402093 83.9997863,13.1209869 C83.4972883,14.6604341 83.3061185,16.2807439 83.4369366,17.8915663 C83.4369366,17.8284395 83.4369366,17.7653127 83.4369366,17.6931679 L84.98708,15.8264195 Z" id="Path" fill="#A71F21"></path>
                            <path d="M93.7085427,27.5512048 L93.7085427,27.5512048 L93.6179092,27.5512048 L93.4366421,27.496988 C92.8779375,27.3090313 92.3353899,27.0763455 91.814302,26.8012048 C91.0760092,26.389217 90.3807374,25.9048959 89.7387942,25.3554217 C89.107442,24.8207211 88.5250887,24.2310442 87.9986304,23.5933735 L87.9986304,23.5933735 L87.8898702,23.4668675 L87.7901733,23.3313253 L87.6089063,23.1054217 L87.5454628,23.0240964 C87.2191938,22.5950694 86.9166329,22.1486235 86.6391275,21.686747 L86.6391275,21.686747 C86.6391275,21.686747 84.7176967,22.3192771 84.6633166,22.373494 L84.6633166,22.373494 C86.151589,25.1246744 88.5791848,27.2532633 91.506148,28.373494 L93.6994794,27.5783133 L93.6994794,27.5783133" id="Path" fill="#A71F21"></path>
                            <path d="M100.494835,26.6334997 C100.134879,26.8703934 99.7568096,27.0794006 99.3640333,27.2586388 C99.0062734,27.4144629 98.6375769,27.5446604 98.2608123,27.6482182 L98.2608123,27.6482182 C97.6977983,28.0398961 97.0778791,28.345354 96.4221106,28.5542169 C98.6381931,28.0832999 100.620072,26.8698197 102.030151,25.1204819 C101.835236,25.386613 101.616805,25.6352224 101.377412,25.8634008 C101.094482,26.1461846 100.786845,26.4038785 100.458061,26.6334997" id="Path" fill="#A71F21"></path>
                            <path d="M91.5376884,28.3822766 L91.5376884,28.3822766 C92.6797919,28.8011456 93.8994954,28.9767131 95.1159186,28.8973368 C95.5597334,28.8680161 95.9983125,28.7860965 96.4221106,28.6533609 C95.8196174,28.8023154 95.2031511,28.8901249 94.5824035,28.9154091 C93.5555778,28.9050028 92.5381804,28.72162 91.5744826,28.3732404" id="Path" fill="#866361"></path>
                            <path d="M98.0144187,27.6322859 C97.4548092,27.7836895 96.8761244,27.8613386 96.2944572,27.8630739 C95.415352,27.8607956 94.5419596,27.7281474 93.7055567,27.4698795 L91.5376884,28.2220775 C92.4762002,28.5516257 93.4670081,28.7250959 94.466998,28.7349398 C95.0715225,28.7110223 95.6718775,28.6279592 96.2586246,28.4870563 C96.898348,28.2917431 97.5026641,28.0034288 98.0502513,27.6322859 L98.0502513,27.6322859" id="Path" fill="#866361"></path>
                            <path d="M83.3969849,17.8915663 C83.5133046,19.4103583 83.94467,20.8878404 84.6633166,22.2289157 L84.5547739,22.0288702 C83.9031508,20.7392575 83.509779,19.3335618 83.3969849,17.8915663" id="Path" fill="#866361"></path>
                            <path d="M86.7717216,21.675672 L86.7717216,21.675672 L86.4773181,21.1319932 C85.7491977,19.7175505 85.2720524,18.1839023 85.0677497,16.6013357 C85.0677497,16.3929255 85.0677497,16.1845152 85.0677497,15.9851663 L85.0677497,15.9036145 L83.5778894,17.7793066 C83.5778894,17.8517972 83.5778894,17.9152264 83.5778894,17.9786556 C83.6891384,19.4156303 84.0771215,20.8164314 84.7198183,22.1015538 L84.8268741,22.3009028 L84.8893233,22.4096386 C84.9428512,22.3552707 86.8341709,21.7209786 86.8341709,21.7209786" id="Path" fill="#866361"></path>
                            <polyline id="Path" fill="#866361" points="84.7582915 22.3192771 84.7492462 22.3192771 84.7582915 22.3192771 84.7582915 22.3192771"></polyline>
                            <path d="M86.4723618,9.74597184 C86.7437036,9.38526917 87.0488453,9.05147638 87.3836073,8.74916534 L87.7754429,9.05095079 L87.7754429,9.05095079 L90.0262193,10.7976484 L90.0262193,10.7976484 L90.0262193,10.7976484 L90.0262193,10.7976484 L90.1082314,10.8433735 L90.181131,10.8433735 L90.2540307,10.8433735 L90.3360428,10.8433735 L90.5547417,10.8433735 C90.6640912,10.7244883 90.7825531,10.6056031 90.901015,10.495863 L91.2746257,10.1849325 C91.3997109,10.0941082 91.5306044,10.0116256 91.6664612,9.93801713 C91.7953224,9.85349883 91.9327839,9.78298966 92.0765217,9.72768181 L92.0765217,9.67281173 C92.0806002,9.64859677 92.0806002,9.62386658 92.0765217,9.59965162 C92.0816954,9.57554129 92.0816954,9.55060184 92.0765217,9.52649151 L92.0765217,9.44418638 C92.0765217,9.44418638 92.0765217,9.44418638 92.0765217,9.38017129 L92.0765217,9.30701118 L92.0765217,9.23385107 L92.0765217,9.16069096 L90.800778,7.3316882 L90.4727296,7.04819277 C89.9836047,7.16463251 89.5073677,7.3300728 89.0511866,7.54202352 L88.8051503,7.65176368 L88.6502386,7.76150385 L88.6502386,7.76150385 C88.178411,8.01828493 87.7457203,8.34165271 87.3653824,8.72173029 L87.3653824,8.72173029 C87.0585839,9.02481561 86.7837559,9.35885216 86.5452614,9.7185368" id="Path" fill="#FFFFFF"></path>
                            <polyline id="Path" fill="#FFFFFF" points="93.7085427 27.4066265 93.5276382 27.3524096 93.7085427 27.4066265"></polyline>
                            <path d="M102.963334,20.7087172 L101.897627,19.8795181 L101.825983,19.8795181 L101.763295,19.8795181 L101.602095,19.8795181 L101.602095,19.8795181 L101.602095,19.8795181 C101.602095,20.0253113 101.530451,20.1711046 101.485673,20.3168978 C101.440896,20.4626911 101.396118,20.5993723 101.342385,20.7360535 C101.288652,20.8727346 101.225963,21.0185279 101.163275,21.146097 L100.948342,21.5379164 C100.944334,21.5620441 100.944334,21.5866853 100.948342,21.610813 L100.948342,21.7019338 C100.943928,21.7321414 100.943928,21.762847 100.948342,21.7930546 C100.944125,21.8263277 100.944125,21.8600143 100.948342,21.8932874 C100.945248,21.9174843 100.945248,21.9419872 100.948342,21.9661841 C100.945144,21.990374 100.945144,22.0148908 100.948342,22.0390807 C100.943517,22.0631316 100.943517,22.0879264 100.948342,22.1119773 L100.948342,22.1848739 L101.449851,22.9047282 L102.345403,24.2168675 C102.345403,24.2168675 102.345403,24.1348588 102.408092,24.0984104 L102.408092,24.0164017 L102.533469,23.7612635 L102.533469,23.7612635 C102.614069,23.588134 102.685713,23.4058925 102.757357,23.2236509 L102.757357,23.1416422 C102.792563,23.0586411 102.822476,22.9734186 102.846912,22.886504 C102.846912,22.886504 102.846912,22.8136074 102.846912,22.7862711 C102.936336,22.5118686 103.008131,22.231841 103.061845,21.9479599 L103.061845,21.8203908 L103.115578,21.5652526 C103.115578,21.5652526 103.115578,21.4741318 103.115578,21.4285714 C103.115578,21.383011 103.115578,21.2098815 103.115578,21.0914245 L102.963334,20.7087172 Z" id="Path" fill="#FFFFFF"></path>
                            <polyline id="Path" fill="#FFFFFF" points="87.919598 23.3358434 87.7386935 23.1099398 87.919598 23.3358434"></polyline>
                            <polygon id="Path" fill="#FFFFFF" points="93.8396985 27.2213855 93.7582915 27.5376506 93.7582915 27.5376506 93.7582915 27.5376506"></polygon>
                            <path d="M101.46386,13.1899907 L101.46386,13.1899907 L100.639849,13.6615385 L100.586688,13.6615385 C100.586688,13.6615385 100.586688,13.7060241 100.586688,13.7327155 C100.581657,13.7561723 100.581657,13.7804357 100.586688,13.8038925 L100.586688,13.8928638 C100.66643,14.0352178 100.746173,14.1775718 100.817056,14.328823 C100.887939,14.4800741 100.967681,14.6313253 101.029704,14.7825765 C101.091726,14.9338276 101.162609,15.0939759 101.224631,15.2541242 C101.286653,15.4142725 101.339815,15.5744208 101.392977,15.7434662 C101.408904,15.7685007 101.430068,15.7897528 101.454999,15.8057461 C101.47234,15.830688 101.497181,15.8493963 101.525882,15.8591288 L101.596764,15.8591288 L101.649926,15.8591288 L102.934673,15.9036145 C102.934673,15.8324374 102.934673,15.7612604 102.863791,15.6900834 L102.863791,15.592215 C102.863791,15.4765524 102.784048,15.3608897 102.739746,15.2452271 C102.726103,15.1963395 102.708317,15.1487143 102.686584,15.102873 L102.553679,14.7558851 L102.553679,14.6669138 L102.367613,14.2398517 L102.314451,14.1241891 L102.154965,13.7949954 L102.092943,13.6704356 L101.871434,13.2433735 L101.729669,13.0120482 L101.605625,13.0832252 L101.605625,13.0832252" id="Path" fill="#FFFFFF"></path>
                            <path d="M98.0777066,27.1631982 L98.0777066,27.1084337 L97.8791254,25.502008 L97.7617819,24.5892662 L97.8791254,25.502008 L97.7617819,24.5892662 L97.7617819,24.2698065 L97.7617819,24.1876597 C97.7486523,24.1114068 97.7243124,24.0375699 97.6895705,23.9686017 C97.6630792,23.9051978 97.6264884,23.8466141 97.5812535,23.7951807 C97.5421795,23.7455183 97.4929022,23.7050325 97.4368307,23.6765243 C97.3861062,23.6670925 97.3341061,23.6670925 97.2833816,23.6765243 L96.9313511,23.6765243 L96.5702943,23.6765243 C96.4457996,23.667216 96.3221229,23.6489145 96.200211,23.6217598 L95.8211013,23.539613 L95.6947315,23.539613 L95.5593351,23.539613 L95.4239388,23.539613 L95.2975689,23.4939759 C95.2229988,23.506026 95.1502188,23.527491 95.0809348,23.5578678 C95.02253,23.583741 94.9678717,23.617517 94.9184592,23.6582694 C94.8776611,23.6965561 94.84132,23.7394284 94.8101422,23.7860533 C94.7821662,23.8378354 94.7609286,23.8930576 94.7469572,23.9503468 L93.970685,27.026287 C93.975735,27.0564974 93.975735,27.0873507 93.970685,27.1175612 L93.970685,27.1175612 L93.970685,27.1175612 L93.970685,27.2727273 L93.8894472,27.5921869 L93.8894472,27.5921869 C94.7322261,27.8679708 95.6122763,28.0096154 96.4980829,28.0120482 C97.0841842,28.0101952 97.6672803,27.9272799 98.2311558,27.7656079 L98.2311558,27.7656079 L98.0777066,27.1631982 Z" id="Path" fill="#FFFFFF"></path>
                            <path d="M90.0381286,18.4265981 C89.9295451,18.1751976 89.8300103,17.9327757 89.7485727,17.6813752 C89.6671352,17.4299747 89.5856976,17.1875528 89.4771142,16.9181951 C89.3685307,16.6488374 89.3594821,16.3974369 89.3232876,16.1460364 C89.289853,16.1010437 89.2465306,16.0641976 89.196607,16.0382933 L89.0608777,15.957486 C89.0069962,15.9301465 88.9488872,15.9119384 88.8889539,15.9036145 L88.7170301,15.9036145 L85.9481527,15.9036145 L84.8442211,15.9036145 C84.8442211,15.9036145 84.8442211,15.957486 84.8442211,15.9844218 C84.8442211,16.1819507 84.8442211,16.3884583 84.8442211,16.5949659 C85.051439,18.1630844 85.5353928,19.6827311 86.2739029,21.0842606 L86.5725074,21.622976 C86.8495616,22.0819106 87.1516307,22.5255129 87.4773693,22.9518072 C87.1516307,22.5255129 86.8495616,22.0819106 86.5725074,21.622976 L87.1878135,21.2817896 L87.1878135,21.2817896 L87.2421052,21.2817896 L87.7759737,20.9765175 L89.5223573,19.9888727 L89.9295451,19.7554294 C89.9844572,19.7249207 90.0360117,19.6888109 90.0833717,19.6476863 L90.1919551,19.5130074 C90.2214446,19.4648056 90.2457094,19.4136419 90.264344,19.3603714 C90.2736944,19.3099157 90.2736944,19.2581911 90.264344,19.2077354 C90.1376634,18.9742921 90.0200313,18.7318702 89.9114479,18.4894482 L90.0381286,18.4265981 Z" id="Shape" fill="#FFFFFF"></path>
                            <path d="M101.641206,13.1663238 L101.641206,13.1663238 C101.451256,12.8577726 101.261307,12.558037 101.053266,12.2847488 C100.845226,12.0114605 100.501508,11.5530414 100.203015,11.2092272 C99.9045226,10.8654129 99.5788945,10.5392301 99.2984925,10.2306788 C99.1809045,10.1248898 99.0723618,10.0279165 98.9547739,9.93975904 C100.0333,10.8744442 100.94965,11.97296 101.668342,13.1927711" id="Path" fill="#EF5721"></path>
                            <path d="M101.831156,25.1114458 L101.930653,24.9849398 C102.104163,24.7377148 102.264194,24.4813181 102.41005,24.2168675 L102.41005,24.2168675 C102.389378,24.2609133 102.365178,24.3032194 102.337688,24.3433735 C102.189889,24.6134972 102.023668,24.8731461 101.840201,25.1204819" id="Path" fill="#EF5721"></path>
                            <path d="M103.472864,18.7315097 C103.436931,18.2803642 103.370448,17.8321475 103.273869,17.3899155 C103.186793,16.9488652 103.075061,16.512995 102.939196,16.0843373 L102.939196,16.0843373 C102.939196,16.1563692 102.939196,16.2284011 103.002513,16.2914291 L103.002513,16.4444968 L103.08392,16.7506324 C103.08392,16.8046563 103.08392,16.8586803 103.08392,16.9037002 L103.165327,17.2908717 C103.16944,17.3388057 103.16944,17.3870015 103.165327,17.4349355 C103.165327,17.5519873 103.165327,17.6600352 103.228643,17.768083 L103.228643,17.9481628 C103.228643,18.0382026 103.228643,18.1282425 103.228643,18.2182824 L103.228643,18.3983621 C103.228643,18.5334219 103.228643,18.6594778 103.228643,18.7855336 C103.232701,18.8515011 103.232701,18.9176538 103.228643,18.9836213 C103.228643,19.0646572 103.228643,19.1366891 103.228643,19.217725 C103.228643,19.2987609 103.228643,19.3617888 103.228643,19.4338207 C103.228643,19.5058526 103.228643,19.5778845 103.228643,19.6499164 L103.228643,20.0100759 C103.233368,20.0790264 103.233368,20.1482171 103.228643,20.2171676 C103.233151,20.2981414 103.233151,20.3793015 103.228643,20.4602753 C103.228643,20.5142992 103.228643,20.5683231 103.228643,20.631351 C103.224154,20.7123253 103.224154,20.7934844 103.228643,20.8744587 C103.228643,20.9194786 103.228643,20.9644986 103.228643,21.0095185 C103.228643,21.0545384 103.228643,21.0995584 103.228643,21.1445783 L103.228643,21.1445783 C103.277113,20.7891874 103.307303,20.4315627 103.319095,20.0731038 C103.346046,19.6263081 103.346046,19.1783054 103.319095,18.7315097" id="Path" fill="#EF5721"></path>
                            <path d="M103.567839,19.5 C103.567839,19.5722892 103.567839,19.6445783 103.567839,19.7168675 C103.567839,19.6445783 103.567839,19.5722892 103.567839,19.5" id="Path" fill="#EF5721"></path>
                            <path d="M88.1005025,23.4939759 C88.6259079,24.1197275 89.2070964,24.6983825 89.8371859,25.2230886 C90.4794582,25.749966 91.1732836,26.2133154 91.9085427,26.6063788 C92.4285885,26.8763767 92.970051,27.1047132 93.5276382,27.2891566 C91.4083834,26.5162696 89.5358182,25.20679 88.1005025,23.4939759" id="Path" fill="#EF5721"></path>
                            <path d="M103.566148,20.0466867 C103.570658,20.1158906 103.570658,20.1853142 103.566148,20.2545181 C103.570658,20.1853142 103.570658,20.1158906 103.566148,20.0466867" id="Path" fill="#EF5721"></path>
                            <path d="M103.386935,18.3298193 C103.386935,18.4653614 103.386935,18.5918675 103.386935,18.7183735 C103.386935,18.5918675 103.386935,18.4653614 103.386935,18.3298193" id="Path" fill="#EF5721"></path>
                            <polyline id="Path" fill="#EF5721" points="93.8442211 27.560241 93.8442211 27.560241 93.7537688 27.560241 93.8442211 27.560241"></polyline>
                            <path d="M88.0055276,23.4081325 L88.1140704,23.5346386 C88.0397969,23.4513082 87.9703375,23.3638169 87.9060302,23.2725904 L88.0055276,23.4081325" id="Path" fill="#EF5721"></path>
                            <path d="M103.569495,20.8057229 C103.565079,20.8507959 103.565079,20.896192 103.569495,20.9412651 C103.565079,20.896192 103.565079,20.8507959 103.569495,20.8057229" id="Path" fill="#EF5721"></path>
                            <path d="M86.4723618,9.75903614 L86.4723618,9.8129264 C86.0992845,10.3095799 85.7867807,10.8460315 85.5410315,11.4116708 C85.2740776,12.0503588 85.0834771,12.7163093 84.97292,13.3966287 C84.8485184,14.1659002 84.814154,14.9462179 84.8704736,15.7228916 L84.8704736,15.7228916 C84.7233859,13.6240372 85.2747939,11.5346945 86.4444219,9.75903614" id="Path" fill="#EF5721"></path>
                            <path d="M103.567839,18.9487952 C103.567839,19.0301205 103.567839,19.1024096 103.567839,19.1837349 C103.567839,19.1024096 103.567839,19.0301205 103.567839,18.9487952" id="Path" fill="#EF5721"></path>
                            <polyline id="Path" fill="#EF5721" points="103.165327 16.8885542 103.246734 17.2680723 103.165327 16.8885542"></polyline>
                            <path d="M103.355276,17.4533133 C103.355276,17.5707831 103.355276,17.6792169 103.418593,17.7876506 C103.418593,17.6792169 103.373367,17.5707831 103.355276,17.4533133" id="Path" fill="#EF5721"></path>
                            <path d="M103.386935,17.8463855 C103.386935,17.936747 103.386935,18.0271084 103.386935,18.1174699 C103.386935,18.0271084 103.386935,17.936747 103.386935,17.8463855" id="Path" fill="#EF5721"></path>
                            <path d="M99.5706191,27.1680127 C99.1376847,27.362102 98.6898568,27.5234481 98.2311558,27.6506024 L98.2311558,27.6506024 C98.6097306,27.5484521 98.9801984,27.4200243 99.3396771,27.266318 C99.7403866,27.0932188 100.12647,26.8900292 100.494387,26.6586125 C100.822649,26.4295065 101.131546,26.1754943 101.418155,25.8989805 C101.653183,25.6714468 101.869393,25.4264208 102.064792,25.1661591 C102.252163,24.9215412 102.421921,24.6647457 102.572864,24.3975904 C101.865357,25.5757553 100.827725,26.5362205 99.5798567,27.1680127" id="Path" fill="#EF5721"></path>
                            <path d="M103.056784,16.2786145 C103.056784,16.2153614 103.011558,16.1430723 102.993467,16.0707831 L102.993467,16.0707831 C102.993467,16.1430723 102.993467,16.2153614 103.056784,16.2786145" id="Path" fill="#EF5721"></path>
                            <polyline id="Path" fill="#EF5721" points="87.6798995 23.0828313 87.6165829 23.001506 87.6798995 23.0828313"></polyline>
                            <polyline id="Path" fill="#EF5721" points="102.984422 16.3825301 103.065829 16.689759 102.984422 16.3825301"></polyline>
                            <path d="M102.446231,24.3704819 L102.446231,24.3704819 L102.518593,24.2439759 L102.518593,24.2439759 C102.518593,24.2439759 102.473367,24.3253012 102.446231,24.3704819" id="Path" fill="#EF5721"></path>
                            <path d="M103.386935,21.1265346 L103.386935,21.1265346 C103.386935,21.0813539 103.386935,21.0361732 103.386935,20.9909924 C103.386935,20.9458117 103.386935,21.0813539 103.386935,21.1265346" id="Path" fill="#EF5721"></path>
                            <path d="M103.566318,18.7861446 C103.570375,18.8523477 103.570375,18.9187367 103.566318,18.9849398 C103.570375,18.9187367 103.570375,18.8523477 103.566318,18.7861446" id="Path" fill="#EF5721"></path>
                            <polyline id="Path" fill="#EF5721" points="103.025126 16.2786145 103.025126 16.4322289 103.025126 16.2786145"></polyline>
                            <polyline id="Path" fill="#EF5721" points="103.20603 17.1822289 103.20603 17.3358434 103.20603 17.1822289"></polyline>
                            <path d="M103.20603,16.6357519 C103.20603,16.6899687 103.20603,16.7441856 103.20603,16.7893663 C103.20603,16.834547 103.20603,16.6899687 103.20603,16.6357519" id="Path" fill="#EF5721"></path>
                            <path d="M103.567839,19.1385542 C103.567839,19.2108434 103.567839,19.2831325 103.567839,19.3554217 C103.567839,19.2831325 103.567839,19.2108434 103.567839,19.1385542" id="Path" fill="#EF5721"></path>
                            <path d="M103.566149,20.2093373 C103.570656,20.2906003 103.570656,20.3720503 103.566149,20.4533133 C103.570656,20.3720503 103.570656,20.2906003 103.566149,20.2093373" id="Path" fill="#EF5721"></path>
                            <path d="M103.569523,20.5707831 C103.565034,20.6520466 103.565034,20.7334956 103.569523,20.814759 C103.565034,20.7334956 103.565034,20.6520466 103.569523,20.5707831" id="Path" fill="#EF5721"></path>
                            <polyline id="Path" fill="#EF5721" points="103.386935 17.7108434 103.386935 17.8915663 103.386935 17.7108434"></polyline>
                            <polyline id="Path" fill="#EF5721" points="103.386935 18.253012 103.386935 18.4337349 103.386935 18.253012"></polyline>
                            <polyline id="Path" fill="#EF5721" points="93.9798995 26.936747 93.9798995 27.0993976 93.9798995 26.9457831 93.9798995 26.9457831"></polyline>
                            <path d="M98.1976128,21.7983309 C100.823606,20.4168209 100.923557,17.1693752 99.4424607,14.4512093 C97.9613643,11.7330435 94.971912,10.2797667 92.6094269,11.4100931 C92.004544,11.7264104 91.4939563,12.1933892 91.1283305,12.7646906 C91.0241614,12.9823887 90.9360952,13.2072477 90.8648225,13.4375039 C90.6220461,14.2678998 90.5692834,15.141194 90.7103523,15.9941946 C90.854008,16.9746855 91.1871615,17.9187897 91.6916923,18.7751564 C92.1624074,19.6071962 92.7775223,20.3511225 93.5089885,20.9730132 C94.083577,21.4545053 94.7384295,21.8339177 95.444409,22.0943688 C96.3554042,22.3417023 97.327006,22.2457786 98.1703534,21.8252435" id="Path" fill="#FFFFFF"></path>
                            <path d="M98.9547739,9.72775259 C97.1888382,8.00968106 94.8782392,6.99487838 92.4422111,6.86746988 L92.6206374,6.86746988 C92.9855864,6.88798921 93.3490238,6.93057337 93.7090383,6.99499841 C94.0734,7.06246928 94.4337875,7.15066198 94.7885179,7.25916465 L95.0561575,7.35025645 L95.3059544,7.44134826 L95.5646727,7.54154925 L95.6806498,7.58709515 C95.6806498,7.65996859 95.6806498,7.74195122 95.6806498,7.83304303 C95.6806498,7.92413483 95.6806498,7.83304303 95.6806498,7.83304303 L95.8769188,9.39982209 L95.8769188,9.39982209 L95.8769188,9.39982209 L95.8769188,9.39982209 L95.8769188,9.39982209 C95.8867681,9.45108589 95.9048549,9.50033298 95.9304468,9.54556898 C95.9527622,9.59573551 95.9828903,9.6418792 96.0196599,9.68220669 C96.0457225,9.72729726 96.0825551,9.76490547 96.1267158,9.79151686 C96.1609657,9.82483431 96.2000949,9.85249419 96.2426929,9.87349948 L96.5192538,9.99191883 L96.7868934,10.1194474 L97.0456116,10.2651943 L97.3043299,10.4200503 L97.3935431,10.4838146 L97.4827562,10.5384697 L97.5719694,10.5931248 L97.6522613,10.656889 L97.8217664,10.656889 C97.841903,10.6645711 97.864079,10.6645711 97.8842156,10.656889 L97.9377435,10.656889 C97.9419174,10.6389199 97.9419174,10.6202031 97.9377435,10.6022339 L97.9377435,10.5111421 L97.9377435,10.5111421 L98.062642,10.0283556 L98.285675,9.19031094 C98.481944,9.34516701 98.6692917,9.50002308 98.847718,9.66398833" id="Path" fill="#FFFFFF"></path>
                            <path d="M100.809999,19.7126229 C101.020474,19.1366986 101.127252,18.5282165 101.125407,17.915238 C101.130828,17.2460469 101.036683,16.579755 100.846046,15.9381145 C100.471651,14.646806 99.7881803,13.4655795 98.8544723,12.4961224 C98.405329,12.0272785 97.8963135,11.6193702 97.340516,11.2828875 C96.7839078,10.9490718 96.1744517,10.7120359 95.538187,10.5819074 C94.9448463,10.4486011 94.3291988,10.4486011 93.7358581,10.5819074 C93.1360908,10.7346134 92.5883764,11.0449611 92.1498086,11.4805999 C91.8240436,11.7977268 91.5557461,12.1686643 91.3567839,12.5770047 C91.7230107,12.0145756 92.2290783,11.556339 92.825682,11.2469398 C95.1687096,10.1145873 98.151564,11.6783122 99.6024388,14.2935073 C101.053314,16.9087024 100.972209,20.2698123 98.3678435,21.6537987 C97.5314419,22.0750877 96.5678422,22.1711833 95.6643501,21.9234064 L95.9977809,22.0312495 C96.7125142,22.2555365 97.4736215,22.289615 98.2056338,22.1301057 C98.8369283,21.990851 99.4171428,21.6797634 99.8817998,21.2314132 C100.30884,20.8087484 100.635279,20.2958644 100.837034,19.7305968" id="Path" fill="#A71F21"></path>
                            <path d="M103.474347,19.5882246 C103.469847,19.5159005 103.469847,19.4433661 103.474347,19.371042 C103.474347,19.2986478 103.474347,19.2262536 103.474347,19.1538594 C103.474347,19.0814652 103.474347,19.0000218 103.474347,18.9185783 C103.4784,18.852279 103.4784,18.7857935 103.474347,18.7194943 C103.474347,18.5928044 103.474347,18.4570653 103.474347,18.3303755 L103.474347,18.14939 C103.474347,18.0588973 103.474347,17.9684045 103.474347,17.8779118 L103.474347,17.6969263 C103.474347,17.588335 103.429161,17.4797437 103.411087,17.3621032 C103.41429,17.3108741 103.41429,17.2594946 103.411087,17.2082655 L103.329752,16.828196 C103.329752,16.7829497 103.329752,16.728654 103.329752,16.6743584 L103.248418,16.3666831 C103.248418,16.3123874 103.248418,16.267141 103.248418,16.2218947 C103.248418,16.1766483 103.203232,16.0771063 103.185158,16.0047121 L101.874771,15.9594657 L101.820548,15.9594657 L101.748251,15.9594657 C101.718978,15.9495668 101.693641,15.9305385 101.675954,15.9051701 C101.650525,15.8889034 101.628939,15.8672878 101.612694,15.8418252 C101.609095,15.8117686 101.609095,15.781389 101.612694,15.7513324 L101.477136,15.3441151 C101.413876,15.1812282 101.350616,15.0273905 101.278319,14.8645036 C101.206022,14.7016167 101.142762,14.5568283 101.061427,14.4029906 C100.980093,14.249153 100.907796,14.1043646 100.826462,13.9595762 L100.826462,13.8690835 C100.822229,13.8421011 100.822229,13.8146224 100.826462,13.78764 C100.826462,13.78764 100.826462,13.78764 100.826462,13.7242951 L100.880684,13.7242951 L101.034316,13.6428516 L101.721139,13.2446836 L101.721139,13.2446836 L101.84766,13.1722894 C101.129609,11.9201664 100.214077,10.7925517 99.1365145,9.83310731 C98.9557715,9.67022038 98.7659913,9.51638273 98.567174,9.36254507 L98.3412452,10.1950783 L98.2147251,10.6746898 L98.2147251,10.6746898 L98.2147251,10.7651825 C98.2189532,10.7830335 98.2189532,10.8016272 98.2147251,10.8194782 L98.1605022,10.8194782 L97.6273104,10.8194782 L97.545976,10.7561332 L97.4556045,10.7018376 L97.365233,10.647542 L97.2748615,10.584197 L97.0127841,10.4303594 L96.7507068,10.285571 L96.4795923,10.1588812 L96.1994406,10.0412406 C96.1562895,10.0203735 96.1166523,9.99289548 96.0819577,9.95979715 C96.0372236,9.93336077 95.9999128,9.89599989 95.9735118,9.85120586 C95.9362648,9.81114358 95.9057456,9.76530336 95.8831403,9.71546675 C95.8572162,9.67052825 95.8388946,9.62160503 95.8289174,9.57067837 L95.8289174,9.57067837 L95.8289174,9.57067837 L95.8289174,9.57067837 L95.8289174,9.57067837 L95.8289174,9.40779144 L95.6572116,8.01420326 L95.6572116,8.01420326 C95.6572116,7.92371052 95.6572116,7.84226706 95.6572116,7.76987287 L95.5397286,7.7246265 L95.2776513,7.62508449 L95.0246111,7.53459175 L94.7534966,7.44409901 C94.3941605,7.33630991 94.0290938,7.24869722 93.6600014,7.18167007 C93.2953125,7.11766872 92.9271564,7.07536462 92.557469,7.05498023 C92.3828677,7.04593028 92.2079157,7.04593028 92.0333143,7.05498023 L91.7079769,7.05498023 C91.3152024,7.08426665 90.925376,7.14478593 90.5421845,7.23596571 L90.8494476,7.67938013 L92.1146487,9.4892349 L92.1146487,9.5616291 L92.1146487,9.63402329 L92.1146487,9.70641748 C92.1146487,9.70641748 92.1146487,9.75166385 92.1146487,9.7697624 L92.1146487,9.85120586 C92.1197797,9.87506378 92.1197797,9.89974213 92.1146487,9.92360005 C92.1186935,9.9475615 92.1186935,9.97203279 92.1146487,9.99599424 L92.1146487,10.0502899 C91.9720987,10.1050187 91.8357731,10.1747897 91.7079769,10.2584232 C91.5711489,10.3310953 91.4410968,10.415894 91.3193794,10.5118029 C91.1898011,10.603547 91.0660539,10.703282 90.9488563,10.8104289 C90.8313733,10.9190202 90.7138904,11.0366607 90.6054446,11.1543013 L90.3072186,11.1543013 L90.2349214,11.1543013 L90.1626242,11.1543013 L90.0812898,11.1090549 L90.0812898,11.1090549 L90.0812898,11.1090549 L90.0812898,11.1090549 L87.686445,9.09106685 L87.686445,9.09106685 L87.2978475,8.79244082 C86.9680275,9.09377891 86.6655999,9.4238672 86.3941325,9.77881167 C85.2591857,11.5678273 84.7241278,13.6728868 84.8668541,15.7875295 L85.9693865,15.7875295 L88.7347544,15.7875295 L88.9064603,15.7875295 C88.9637509,15.7946098 89.0190541,15.8130689 89.069129,15.8418252 L89.2227606,15.9232686 L89.2950578,15.9775643 C89.3099526,15.9807412 89.3253487,15.9807412 89.3402435,15.9775643 C89.3402435,16.2399932 89.430615,16.5024222 89.4938751,16.7648511 C89.5571351,17.02728 89.6384695,17.2806597 89.728841,17.5340394 C89.8192125,17.7874191 89.909584,18.0317494 90.0180298,18.2851291 C90.1264756,18.5385088 90.2439586,18.7737899 90.3704787,19.009071 C90.3798171,19.0599239 90.3798171,19.1120558 90.3704787,19.1629087 C90.3518676,19.2165985 90.3276335,19.268165 90.2981815,19.3167463 L90.1897356,19.4524854 C90.1424357,19.4939338 90.0909465,19.5303279 90.0361041,19.5610767 L89.7107667,19.7511115 L89.6294323,19.7963579 L89.6294323,19.7963579 L87.8762252,20.7827287 L87.3520705,21.090404 L87.2888104,21.090404 L87.2888104,21.090404 L86.6742842,21.4342764 C86.9509873,21.896824 87.2526735,22.3439186 87.5779992,22.773569 L87.6412593,22.8550124 L87.8220023,23.0812443 C87.8862522,23.1726034 87.9556496,23.2602218 88.0298567,23.3436732 L88.0298567,23.3436732 C89.4638909,25.0916484 91.3347843,26.4280094 93.4521469,27.2167624 L93.6328899,27.2710581 L93.7232614,27.2710581 L93.8045958,26.9543335 L93.8045958,26.7914466 L93.8045958,26.7914466 C93.8096518,26.7614948 93.8096518,26.7309056 93.8045958,26.7009538 L94.3829734,24.4295861 L94.5817907,23.6513485 C94.5957786,23.5945498 94.6170416,23.5398003 94.6450508,23.4884616 C94.6762656,23.4422359 94.7126499,23.3997306 94.7534966,23.3617718 C94.8029678,23.3213682 94.857691,23.2878814 94.9161653,23.2622297 C94.9855316,23.232113 95.0583981,23.2108318 95.1330569,23.1988848 L95.259577,23.2441312 L95.3951342,23.2441312 L95.5306915,23.2441312 L95.6572116,23.2441312 C95.7837317,23.2441312 95.9102518,23.3074761 96.0367719,23.3255747 C96.1588287,23.3524969 96.2826524,23.3706418 96.4072951,23.3798703 L96.7687811,23.3798703 L97.1212299,23.3798703 C97.1720147,23.3705193 97.2240767,23.3705193 97.2748615,23.3798703 C97.3309996,23.4081345 97.3803355,23.4482737 97.4194559,23.4975109 C97.4647446,23.5485039 97.5013789,23.6065861 97.5279017,23.6694471 C97.5295374,23.6935507 97.5295374,23.7177377 97.5279017,23.7418413 C97.5330575,23.789966 97.5330575,23.8385049 97.5279017,23.8866296 L97.5279017,23.9680731 L97.5279017,24.2847977 L97.5279017,24.2847977 L97.6453847,25.1897251 L97.844202,26.7823973 L97.844202,26.8366929 L97.907462,27.2891566 C98.3537334,27.1617919 98.7889453,26.9983684 99.2088117,26.8004958 C100.435268,26.1654267 101.454464,25.1919658 102.145886,23.9952209 L102.145886,23.9952209 L102.218183,23.8594818 L101.314468,22.5654357 L100.808387,21.850543 L100.808387,21.7781488 C100.803518,21.7542637 100.803518,21.7296398 100.808387,21.7057546 C100.80516,21.6817315 100.80516,21.6573836 100.808387,21.6333605 C100.804342,21.609399 100.804342,21.5849277 100.808387,21.5609663 C100.804131,21.5279224 100.804131,21.4944681 100.808387,21.4614242 C100.803933,21.4314249 100.803933,21.4009309 100.808387,21.3709315 L100.808387,21.6424097 C100.805265,21.6183796 100.805265,21.5940456 100.808387,21.5700155 C100.880684,21.4433257 100.952982,21.3166359 101.016242,21.1808968 C101.079502,21.0451576 101.142762,20.9184678 101.206022,20.7736794 C101.269282,20.6288911 101.305431,20.5022012 101.350616,20.3574128 C101.398171,20.2150328 101.437399,20.0699985 101.468099,19.9230477 L101.468099,19.9230477 L101.468099,19.9230477 L101.468099,19.9230477 L101.603656,19.9230477 L101.666917,19.9230477 L101.739214,19.9230477 L102.814635,20.7465316 L103.266492,21.0994533 C103.266492,21.0542069 103.266492,21.0089606 103.266492,20.9637142 L103.266492,20.8279751 C103.262007,20.7465935 103.262007,20.6650262 103.266492,20.5836447 C103.266492,20.5202998 103.266492,20.4660041 103.266492,20.4117085 C103.270996,20.3303274 103.270996,20.2487591 103.266492,20.1673781 C103.270803,20.0980675 103.270803,20.0285554 103.266492,19.9592448 L103.266492,19.5972738 M95.8198807,22.0858239 L95.4855061,21.9772326 C94.7833594,21.7145045 94.1320621,21.331775 93.5605931,20.8460734 C92.833098,20.2187457 92.2213226,19.4683155 91.753163,18.6290014 C91.2513713,17.7651478 90.9200265,16.8127896 90.7771508,15.8237266 C90.6321906,14.9635134 90.684729,14.0815419 90.9307823,13.2446836 C91.0016681,13.0124144 91.0892562,12.7855895 91.1928597,12.5659881 C91.392385,12.1548148 91.6614418,11.7813037 91.9881289,11.4619767 C92.427938,11.0233156 92.9772026,10.7108148 93.5786674,10.5570493 C94.1736875,10.4228182 94.7910774,10.4228182 95.3860975,10.5570493 C96.024163,10.6880806 96.6353441,10.926761 97.1935276,11.2628927 C97.7508982,11.6017097 98.2613544,12.012448 98.7117688,12.4845446 C99.6481196,13.4607276 100.333524,14.6501491 100.708979,15.9504164 C100.900156,16.5965084 100.994567,17.2674228 100.989131,17.9412566 C100.990981,18.5584878 100.883902,19.1711914 100.67283,19.7511113 C100.470504,20.3203006 100.143141,20.8367429 99.7148925,21.26234 C99.2489204,21.7138008 98.6670638,22.0270466 98.0339826,22.1672674 C97.2998984,22.3278833 96.5366369,22.2935684 95.8198807,22.0677254" id="Shape" fill="#EF5721"></path>
                            <polygon id="Path" fill="#FFFFFF" points="97.7201005 24.5783133 97.8376884 25.4819277 97.7291457 24.5783133"></polygon>
                            <polygon id="Path" fill="#FFFFFF" points="89.7286432 20.0684556 89.7193182 20.060241 87.919598 20.9638554"></polygon>
                        </g>
                    </g>
                </g>
            </g>
        </g>
    </g>
</svg>